G04*
G04 #@! TF.GenerationSoftware,Altium Limited,CircuitStudio,1.5.1 (13)*
G04*
G04 Layer_Physical_Order=3*
G04 Layer_Color=56745*
%FSLAX24Y24*%
%MOIN*%
G70*
G01*
G75*
%ADD38C,0.0591*%
%ADD40C,0.0650*%
%ADD42O,0.0750X0.0580*%
%ADD45C,0.0300*%
G36*
X37000Y18400D02*
X35318D01*
X35315Y18447D01*
X35315Y18449D01*
X35315Y18450D01*
X35315Y18450D01*
X35333Y18452D01*
X35333D01*
X35466Y18465D01*
X35626Y18513D01*
X35773Y18592D01*
X35902Y18698D01*
X36008Y18827D01*
X36087Y18974D01*
X36135Y19134D01*
X36151Y19300D01*
X36135Y19466D01*
X36087Y19626D01*
X36008Y19773D01*
X35902Y19902D01*
X35773Y20008D01*
X35626Y20087D01*
X35466Y20135D01*
X35300Y20152D01*
X35134Y20135D01*
X34974Y20087D01*
X34827Y20008D01*
X34698Y19902D01*
X34592Y19773D01*
X34513Y19626D01*
X34465Y19466D01*
X34448Y19300D01*
X34465Y19134D01*
X34513Y18974D01*
X34592Y18827D01*
X34698Y18698D01*
X34827Y18592D01*
X34974Y18513D01*
X35134Y18465D01*
X35267Y18452D01*
X35267D01*
X35285Y18450D01*
X35285Y18450D01*
X35285Y18449D01*
X35285Y18447D01*
X35282Y18400D01*
X33049D01*
X33027Y18450D01*
X33035Y18490D01*
X32545D01*
X32555Y18442D01*
X32610Y18360D01*
X32692Y18305D01*
X32734Y18296D01*
X32748Y18248D01*
X32600Y18100D01*
Y17400D01*
X32407D01*
X32389Y17450D01*
X32428Y17508D01*
X32444Y17590D01*
X32428Y17672D01*
X32381Y17741D01*
X32312Y17788D01*
X32230Y17804D01*
X32148Y17788D01*
X32079Y17741D01*
X32032Y17672D01*
X32016Y17590D01*
X32032Y17508D01*
X32071Y17450D01*
X32053Y17400D01*
X30200D01*
Y18100D01*
X29900Y18400D01*
X29400D01*
X29100Y18100D01*
Y17400D01*
X25000D01*
Y18100D01*
X24700Y18400D01*
X21700D01*
Y18500D01*
Y25052D01*
X21750Y25062D01*
X21774Y25003D01*
X21837Y24922D01*
X21918Y24859D01*
X22013Y24820D01*
X22115Y24807D01*
X22150D01*
Y25200D01*
Y25593D01*
X22115D01*
X22013Y25580D01*
X21918Y25541D01*
X21837Y25478D01*
X21774Y25397D01*
X21750Y25338D01*
X21700Y25348D01*
Y28101D01*
X21749Y28109D01*
X21784Y28023D01*
X21840Y27950D01*
X21913Y27894D01*
X21999Y27859D01*
X22090Y27847D01*
X22310D01*
X22401Y27859D01*
X22487Y27894D01*
X22560Y27950D01*
X22616Y28023D01*
X22651Y28109D01*
X22663Y28200D01*
X22651Y28291D01*
X22616Y28377D01*
X22560Y28450D01*
X22487Y28506D01*
X22401Y28541D01*
X22310Y28553D01*
X22090D01*
X21999Y28541D01*
X21913Y28506D01*
X21840Y28450D01*
X21784Y28377D01*
X21749Y28291D01*
X21700Y28299D01*
Y39085D01*
X21744Y39108D01*
X21768Y39092D01*
X21850Y39076D01*
X21932Y39092D01*
X22001Y39139D01*
X22048Y39208D01*
X22064Y39290D01*
X22048Y39372D01*
X22001Y39441D01*
X21932Y39488D01*
X21850Y39504D01*
X21768Y39488D01*
X21744Y39472D01*
X21700Y39495D01*
Y41300D01*
X30663D01*
X30674Y41215D01*
X30707Y41136D01*
X30759Y41068D01*
X30827Y41016D01*
X30906Y40983D01*
X30991Y40972D01*
X31076Y40983D01*
X31155Y41016D01*
X31223Y41068D01*
X31275Y41136D01*
X31308Y41215D01*
X31319Y41300D01*
X33281D01*
X33292Y41215D01*
X33325Y41136D01*
X33377Y41068D01*
X33445Y41016D01*
X33524Y40983D01*
X33609Y40972D01*
X33694Y40983D01*
X33773Y41016D01*
X33841Y41068D01*
X33893Y41136D01*
X33926Y41215D01*
X33937Y41300D01*
X37000D01*
Y18400D01*
D02*
G37*
%LPC*%
G36*
X25750Y25644D02*
X25668Y25628D01*
X25599Y25581D01*
X25552Y25512D01*
X25536Y25430D01*
X25552Y25348D01*
X25599Y25279D01*
X25668Y25232D01*
X25750Y25216D01*
X25832Y25232D01*
X25901Y25279D01*
X25948Y25348D01*
X25964Y25430D01*
X25948Y25512D01*
X25901Y25581D01*
X25832Y25628D01*
X25750Y25644D01*
D02*
G37*
G36*
X24500Y25614D02*
X24418Y25598D01*
X24349Y25551D01*
X24302Y25482D01*
X24286Y25400D01*
X24302Y25318D01*
X24349Y25249D01*
X24418Y25202D01*
X24500Y25186D01*
X24582Y25202D01*
X24651Y25249D01*
X24698Y25318D01*
X24714Y25400D01*
X24698Y25482D01*
X24651Y25551D01*
X24582Y25598D01*
X24500Y25614D01*
D02*
G37*
G36*
X31395Y25430D02*
X31200D01*
Y25235D01*
X31248Y25245D01*
X31330Y25300D01*
X31386Y25382D01*
X31395Y25430D01*
D02*
G37*
G36*
X31100D02*
X30905D01*
X30914Y25382D01*
X30970Y25300D01*
X31052Y25245D01*
X31100Y25235D01*
Y25430D01*
D02*
G37*
G36*
X34515Y25250D02*
X34320D01*
Y25055D01*
X34368Y25064D01*
X34450Y25120D01*
X34506Y25202D01*
X34515Y25250D01*
D02*
G37*
G36*
X35285Y25553D02*
X35115D01*
X35024Y25541D01*
X34938Y25506D01*
X34865Y25450D01*
X34809Y25377D01*
X34774Y25291D01*
X34762Y25200D01*
X34774Y25109D01*
X34809Y25023D01*
X34865Y24950D01*
X34938Y24894D01*
X35024Y24859D01*
X35115Y24847D01*
X35285D01*
X35376Y24859D01*
X35462Y24894D01*
X35535Y24950D01*
X35591Y25023D01*
X35626Y25109D01*
X35638Y25200D01*
X35626Y25291D01*
X35591Y25377D01*
X35535Y25450D01*
X35462Y25506D01*
X35376Y25541D01*
X35285Y25553D01*
D02*
G37*
G36*
X23285D02*
X23115D01*
X23024Y25541D01*
X22938Y25506D01*
X22865Y25450D01*
X22809Y25377D01*
X22774Y25291D01*
X22762Y25200D01*
X22774Y25109D01*
X22809Y25023D01*
X22865Y24950D01*
X22938Y24894D01*
X23024Y24859D01*
X23115Y24847D01*
X23285D01*
X23376Y24859D01*
X23462Y24894D01*
X23535Y24950D01*
X23591Y25023D01*
X23626Y25109D01*
X23638Y25200D01*
X23626Y25291D01*
X23591Y25377D01*
X23535Y25450D01*
X23462Y25506D01*
X23376Y25541D01*
X23285Y25553D01*
D02*
G37*
G36*
X34220Y25250D02*
X34025D01*
X34035Y25202D01*
X34090Y25120D01*
X34172Y25064D01*
X34220Y25055D01*
Y25250D01*
D02*
G37*
G36*
X36285Y25553D02*
X36115D01*
X36024Y25541D01*
X35938Y25506D01*
X35865Y25450D01*
X35809Y25377D01*
X35774Y25291D01*
X35762Y25200D01*
X35774Y25109D01*
X35809Y25023D01*
X35865Y24950D01*
X35938Y24894D01*
X36024Y24859D01*
X36115Y24847D01*
X36285D01*
X36376Y24859D01*
X36462Y24894D01*
X36535Y24950D01*
X36591Y25023D01*
X36626Y25109D01*
X36638Y25200D01*
X36626Y25291D01*
X36591Y25377D01*
X36535Y25450D01*
X36462Y25506D01*
X36376Y25541D01*
X36285Y25553D01*
D02*
G37*
G36*
X28600Y25664D02*
X28518Y25648D01*
X28449Y25601D01*
X28402Y25532D01*
X28386Y25450D01*
X28402Y25368D01*
X28449Y25299D01*
X28518Y25252D01*
X28600Y25236D01*
X28682Y25252D01*
X28751Y25299D01*
X28798Y25368D01*
X28814Y25450D01*
X28798Y25532D01*
X28751Y25601D01*
X28682Y25648D01*
X28600Y25664D01*
D02*
G37*
G36*
X31100Y25725D02*
X31052Y25715D01*
X30970Y25660D01*
X30914Y25578D01*
X30905Y25530D01*
X31100D01*
Y25725D01*
D02*
G37*
G36*
X34320Y25545D02*
Y25350D01*
X34515D01*
X34506Y25398D01*
X34450Y25480D01*
X34368Y25536D01*
X34320Y25545D01*
D02*
G37*
G36*
X27880Y26094D02*
X27798Y26078D01*
X27729Y26031D01*
X27682Y25962D01*
X27666Y25880D01*
X27682Y25798D01*
X27729Y25729D01*
X27798Y25682D01*
X27880Y25666D01*
X27962Y25682D01*
X28031Y25729D01*
X28078Y25798D01*
X28094Y25880D01*
X28078Y25962D01*
X28031Y26031D01*
X27962Y26078D01*
X27880Y26094D01*
D02*
G37*
G36*
X31200Y25725D02*
Y25530D01*
X31395D01*
X31386Y25578D01*
X31330Y25660D01*
X31248Y25715D01*
X31200Y25725D01*
D02*
G37*
G36*
X34220Y25545D02*
X34172Y25536D01*
X34090Y25480D01*
X34035Y25398D01*
X34025Y25350D01*
X34220D01*
Y25545D01*
D02*
G37*
G36*
X22285Y25593D02*
X22250D01*
Y25250D01*
X22672D01*
X22665Y25302D01*
X22626Y25397D01*
X22563Y25478D01*
X22482Y25541D01*
X22387Y25580D01*
X22285Y25593D01*
D02*
G37*
G36*
X30450Y25664D02*
X30368Y25648D01*
X30299Y25601D01*
X30252Y25532D01*
X30236Y25450D01*
X30252Y25368D01*
X30299Y25299D01*
X30368Y25252D01*
X30450Y25236D01*
X30532Y25252D01*
X30601Y25299D01*
X30648Y25368D01*
X30664Y25450D01*
X30648Y25532D01*
X30601Y25601D01*
X30532Y25648D01*
X30450Y25664D01*
D02*
G37*
G36*
X32850Y25714D02*
X32768Y25698D01*
X32699Y25651D01*
X32652Y25582D01*
X32636Y25500D01*
X32652Y25418D01*
X32699Y25349D01*
X32768Y25302D01*
X32850Y25286D01*
X32932Y25302D01*
X33001Y25349D01*
X33048Y25418D01*
X33064Y25500D01*
X33048Y25582D01*
X33001Y25651D01*
X32932Y25698D01*
X32850Y25714D01*
D02*
G37*
G36*
X26950D02*
X26868Y25698D01*
X26799Y25651D01*
X26752Y25582D01*
X26736Y25500D01*
X26752Y25418D01*
X26799Y25349D01*
X26868Y25302D01*
X26950Y25286D01*
X27032Y25302D01*
X27101Y25349D01*
X27148Y25418D01*
X27164Y25500D01*
X27148Y25582D01*
X27101Y25651D01*
X27032Y25698D01*
X26950Y25714D01*
D02*
G37*
G36*
X22672Y25150D02*
X22250D01*
Y24807D01*
X22285D01*
X22387Y24820D01*
X22482Y24859D01*
X22563Y24922D01*
X22626Y25003D01*
X22665Y25098D01*
X22672Y25150D01*
D02*
G37*
G36*
X35285Y24553D02*
X35115D01*
X35024Y24541D01*
X34938Y24506D01*
X34865Y24450D01*
X34809Y24377D01*
X34774Y24291D01*
X34762Y24200D01*
X34774Y24109D01*
X34809Y24023D01*
X34865Y23950D01*
X34938Y23894D01*
X35024Y23859D01*
X35115Y23847D01*
X35285D01*
X35376Y23859D01*
X35462Y23894D01*
X35535Y23950D01*
X35591Y24023D01*
X35626Y24109D01*
X35638Y24200D01*
X35626Y24291D01*
X35591Y24377D01*
X35535Y24450D01*
X35462Y24506D01*
X35376Y24541D01*
X35285Y24553D01*
D02*
G37*
G36*
X23285D02*
X23115D01*
X23024Y24541D01*
X22938Y24506D01*
X22865Y24450D01*
X22809Y24377D01*
X22774Y24291D01*
X22762Y24200D01*
X22774Y24109D01*
X22809Y24023D01*
X22865Y23950D01*
X22938Y23894D01*
X23024Y23859D01*
X23115Y23847D01*
X23285D01*
X23376Y23859D01*
X23462Y23894D01*
X23535Y23950D01*
X23591Y24023D01*
X23626Y24109D01*
X23638Y24200D01*
X23626Y24291D01*
X23591Y24377D01*
X23535Y24450D01*
X23462Y24506D01*
X23376Y24541D01*
X23285Y24553D01*
D02*
G37*
G36*
X28360Y24304D02*
X28278Y24288D01*
X28209Y24241D01*
X28162Y24172D01*
X28146Y24090D01*
X28162Y24008D01*
X28209Y23939D01*
X28278Y23892D01*
X28360Y23876D01*
X28442Y23892D01*
X28511Y23939D01*
X28558Y24008D01*
X28574Y24090D01*
X28558Y24172D01*
X28511Y24241D01*
X28442Y24288D01*
X28360Y24304D01*
D02*
G37*
G36*
X36285Y24553D02*
X36115D01*
X36024Y24541D01*
X35938Y24506D01*
X35865Y24450D01*
X35809Y24377D01*
X35774Y24291D01*
X35762Y24200D01*
X35774Y24109D01*
X35809Y24023D01*
X35865Y23950D01*
X35938Y23894D01*
X36024Y23859D01*
X36115Y23847D01*
X36285D01*
X36376Y23859D01*
X36462Y23894D01*
X36535Y23950D01*
X36591Y24023D01*
X36626Y24109D01*
X36638Y24200D01*
X36626Y24291D01*
X36591Y24377D01*
X36535Y24450D01*
X36462Y24506D01*
X36376Y24541D01*
X36285Y24553D01*
D02*
G37*
G36*
X22285D02*
X22115D01*
X22024Y24541D01*
X21938Y24506D01*
X21865Y24450D01*
X21809Y24377D01*
X21774Y24291D01*
X21762Y24200D01*
X21774Y24109D01*
X21809Y24023D01*
X21865Y23950D01*
X21938Y23894D01*
X22024Y23859D01*
X22115Y23847D01*
X22285D01*
X22376Y23859D01*
X22462Y23894D01*
X22535Y23950D01*
X22591Y24023D01*
X22626Y24109D01*
X22638Y24200D01*
X22626Y24291D01*
X22591Y24377D01*
X22535Y24450D01*
X22462Y24506D01*
X22376Y24541D01*
X22285Y24553D01*
D02*
G37*
G36*
X25450Y24004D02*
X25368Y23988D01*
X25299Y23941D01*
X25252Y23872D01*
X25236Y23790D01*
X25252Y23708D01*
X25299Y23639D01*
X25368Y23592D01*
X25450Y23576D01*
X25532Y23592D01*
X25601Y23639D01*
X25648Y23708D01*
X25664Y23790D01*
X25648Y23872D01*
X25601Y23941D01*
X25532Y23988D01*
X25450Y24004D01*
D02*
G37*
G36*
X32570Y23874D02*
X32488Y23858D01*
X32419Y23811D01*
X32372Y23742D01*
X32356Y23660D01*
X32372Y23578D01*
X32419Y23509D01*
X32488Y23462D01*
X32570Y23446D01*
X32652Y23462D01*
X32721Y23509D01*
X32768Y23578D01*
X32784Y23660D01*
X32768Y23742D01*
X32721Y23811D01*
X32652Y23858D01*
X32570Y23874D01*
D02*
G37*
G36*
X26610Y24224D02*
X26528Y24208D01*
X26459Y24161D01*
X26412Y24092D01*
X26396Y24010D01*
X26412Y23928D01*
X26459Y23859D01*
X26528Y23812D01*
X26610Y23796D01*
X26692Y23812D01*
X26761Y23859D01*
X26808Y23928D01*
X26824Y24010D01*
X26808Y24092D01*
X26761Y24161D01*
X26692Y24208D01*
X26610Y24224D01*
D02*
G37*
G36*
X31460Y24214D02*
X31378Y24198D01*
X31309Y24151D01*
X31262Y24082D01*
X31246Y24000D01*
X31262Y23918D01*
X31309Y23849D01*
X31378Y23802D01*
X31460Y23786D01*
X31542Y23802D01*
X31611Y23849D01*
X31658Y23918D01*
X31674Y24000D01*
X31658Y24082D01*
X31611Y24151D01*
X31542Y24198D01*
X31460Y24214D01*
D02*
G37*
G36*
X34040Y24324D02*
X33958Y24308D01*
X33889Y24261D01*
X33842Y24192D01*
X33826Y24110D01*
X33842Y24028D01*
X33889Y23959D01*
X33958Y23912D01*
X34040Y23896D01*
X34122Y23912D01*
X34191Y23959D01*
X34238Y24028D01*
X34254Y24110D01*
X34238Y24192D01*
X34191Y24261D01*
X34122Y24308D01*
X34040Y24324D01*
D02*
G37*
G36*
X33480Y24954D02*
X33398Y24938D01*
X33329Y24891D01*
X33282Y24822D01*
X33266Y24740D01*
X33282Y24658D01*
X33329Y24589D01*
X33398Y24542D01*
X33480Y24526D01*
X33562Y24542D01*
X33631Y24589D01*
X33678Y24658D01*
X33694Y24740D01*
X33678Y24822D01*
X33631Y24891D01*
X33562Y24938D01*
X33480Y24954D01*
D02*
G37*
G36*
X34570Y24934D02*
X34488Y24918D01*
X34419Y24871D01*
X34372Y24802D01*
X34356Y24720D01*
X34372Y24638D01*
X34419Y24569D01*
X34488Y24522D01*
X34570Y24506D01*
X34652Y24522D01*
X34721Y24569D01*
X34768Y24638D01*
X34784Y24720D01*
X34768Y24802D01*
X34721Y24871D01*
X34652Y24918D01*
X34570Y24934D01*
D02*
G37*
G36*
X29750Y25164D02*
X29668Y25148D01*
X29599Y25101D01*
X29552Y25032D01*
X29536Y24950D01*
X29552Y24868D01*
X29599Y24799D01*
X29668Y24752D01*
X29750Y24736D01*
X29832Y24752D01*
X29901Y24799D01*
X29948Y24868D01*
X29964Y24950D01*
X29948Y25032D01*
X29901Y25101D01*
X29832Y25148D01*
X29750Y25164D01*
D02*
G37*
G36*
X30550Y25064D02*
X30468Y25048D01*
X30399Y25001D01*
X30352Y24932D01*
X30336Y24850D01*
X30352Y24768D01*
X30399Y24699D01*
X30468Y24652D01*
X30550Y24636D01*
X30632Y24652D01*
X30701Y24699D01*
X30748Y24768D01*
X30764Y24850D01*
X30748Y24932D01*
X30701Y25001D01*
X30632Y25048D01*
X30550Y25064D01*
D02*
G37*
G36*
X32770Y24914D02*
X32688Y24898D01*
X32619Y24851D01*
X32572Y24782D01*
X32556Y24700D01*
X32572Y24618D01*
X32619Y24549D01*
X32688Y24502D01*
X32770Y24486D01*
X32852Y24502D01*
X32921Y24549D01*
X32968Y24618D01*
X32984Y24700D01*
X32968Y24782D01*
X32921Y24851D01*
X32852Y24898D01*
X32770Y24914D01*
D02*
G37*
G36*
X24770Y24814D02*
X24688Y24798D01*
X24619Y24751D01*
X24572Y24682D01*
X24556Y24600D01*
X24572Y24518D01*
X24619Y24449D01*
X24688Y24402D01*
X24770Y24386D01*
X24852Y24402D01*
X24921Y24449D01*
X24968Y24518D01*
X24984Y24600D01*
X24968Y24682D01*
X24921Y24751D01*
X24852Y24798D01*
X24770Y24814D01*
D02*
G37*
G36*
X29401Y24715D02*
X29319Y24698D01*
X29249Y24652D01*
X29203Y24582D01*
X29186Y24501D01*
X29203Y24419D01*
X29249Y24349D01*
X29319Y24303D01*
X29401Y24286D01*
X29482Y24303D01*
X29552Y24349D01*
X29598Y24419D01*
X29615Y24501D01*
X29598Y24582D01*
X29552Y24652D01*
X29482Y24698D01*
X29401Y24715D01*
D02*
G37*
G36*
X28350Y24864D02*
X28268Y24848D01*
X28199Y24801D01*
X28152Y24732D01*
X28136Y24650D01*
X28152Y24568D01*
X28199Y24499D01*
X28268Y24452D01*
X28350Y24436D01*
X28432Y24452D01*
X28501Y24499D01*
X28548Y24568D01*
X28564Y24650D01*
X28548Y24732D01*
X28501Y24801D01*
X28432Y24848D01*
X28350Y24864D01*
D02*
G37*
G36*
X31850Y24814D02*
X31768Y24798D01*
X31699Y24751D01*
X31652Y24682D01*
X31636Y24600D01*
X31652Y24518D01*
X31699Y24449D01*
X31768Y24402D01*
X31850Y24386D01*
X31932Y24402D01*
X32001Y24449D01*
X32048Y24518D01*
X32064Y24600D01*
X32048Y24682D01*
X32001Y24751D01*
X31932Y24798D01*
X31850Y24814D01*
D02*
G37*
G36*
X29969Y27272D02*
X29774D01*
Y27077D01*
X29821Y27086D01*
X29904Y27142D01*
X29959Y27224D01*
X29969Y27272D01*
D02*
G37*
G36*
X29674D02*
X29479D01*
X29488Y27224D01*
X29543Y27142D01*
X29626Y27086D01*
X29674Y27077D01*
Y27272D01*
D02*
G37*
G36*
X24950Y27714D02*
X24868Y27698D01*
X24799Y27651D01*
X24752Y27582D01*
X24736Y27500D01*
X24752Y27418D01*
X24799Y27349D01*
X24868Y27302D01*
X24950Y27286D01*
X25032Y27302D01*
X25101Y27349D01*
X25148Y27418D01*
X25164Y27500D01*
X25148Y27582D01*
X25101Y27651D01*
X25032Y27698D01*
X24950Y27714D01*
D02*
G37*
G36*
X31300Y27664D02*
X31218Y27648D01*
X31149Y27601D01*
X31102Y27532D01*
X31086Y27450D01*
X31102Y27368D01*
X31149Y27299D01*
X31218Y27252D01*
X31300Y27236D01*
X31382Y27252D01*
X31451Y27299D01*
X31498Y27368D01*
X31514Y27450D01*
X31498Y27532D01*
X31451Y27601D01*
X31382Y27648D01*
X31300Y27664D01*
D02*
G37*
G36*
X24450Y27155D02*
Y26960D01*
X24645D01*
X24636Y27008D01*
X24580Y27090D01*
X24498Y27146D01*
X24450Y27155D01*
D02*
G37*
G36*
X35285Y27553D02*
X35115D01*
X35024Y27541D01*
X34938Y27506D01*
X34865Y27450D01*
X34809Y27377D01*
X34774Y27291D01*
X34762Y27200D01*
X34774Y27109D01*
X34809Y27023D01*
X34865Y26950D01*
X34938Y26894D01*
X35024Y26859D01*
X35115Y26847D01*
X35285D01*
X35376Y26859D01*
X35462Y26894D01*
X35535Y26950D01*
X35591Y27023D01*
X35626Y27109D01*
X35638Y27200D01*
X35626Y27291D01*
X35591Y27377D01*
X35535Y27450D01*
X35462Y27506D01*
X35376Y27541D01*
X35285Y27553D01*
D02*
G37*
G36*
X23285D02*
X23115D01*
X23024Y27541D01*
X22938Y27506D01*
X22865Y27450D01*
X22809Y27377D01*
X22774Y27291D01*
X22762Y27200D01*
X22774Y27109D01*
X22809Y27023D01*
X22865Y26950D01*
X22938Y26894D01*
X23024Y26859D01*
X23115Y26847D01*
X23285D01*
X23376Y26859D01*
X23462Y26894D01*
X23535Y26950D01*
X23591Y27023D01*
X23626Y27109D01*
X23638Y27200D01*
X23626Y27291D01*
X23591Y27377D01*
X23535Y27450D01*
X23462Y27506D01*
X23376Y27541D01*
X23285Y27553D01*
D02*
G37*
G36*
X24350Y27155D02*
X24302Y27146D01*
X24220Y27090D01*
X24165Y27008D01*
X24155Y26960D01*
X24350D01*
Y27155D01*
D02*
G37*
G36*
X36285Y27553D02*
X36115D01*
X36024Y27541D01*
X35938Y27506D01*
X35865Y27450D01*
X35809Y27377D01*
X35774Y27291D01*
X35762Y27200D01*
X35774Y27109D01*
X35809Y27023D01*
X35865Y26950D01*
X35938Y26894D01*
X36024Y26859D01*
X36115Y26847D01*
X36285D01*
X36376Y26859D01*
X36462Y26894D01*
X36535Y26950D01*
X36591Y27023D01*
X36626Y27109D01*
X36638Y27200D01*
X36626Y27291D01*
X36591Y27377D01*
X36535Y27450D01*
X36462Y27506D01*
X36376Y27541D01*
X36285Y27553D01*
D02*
G37*
G36*
X26861Y27733D02*
X26779Y27717D01*
X26710Y27670D01*
X26663Y27601D01*
X26647Y27519D01*
X26663Y27437D01*
X26710Y27368D01*
X26779Y27321D01*
X26861Y27305D01*
X26943Y27321D01*
X27012Y27368D01*
X27059Y27437D01*
X27075Y27519D01*
X27059Y27601D01*
X27012Y27670D01*
X26943Y27717D01*
X26861Y27733D01*
D02*
G37*
G36*
X25450Y28014D02*
X25368Y27998D01*
X25299Y27951D01*
X25252Y27882D01*
X25236Y27800D01*
X25252Y27718D01*
X25299Y27649D01*
X25368Y27602D01*
X25450Y27586D01*
X25532Y27602D01*
X25601Y27649D01*
X25648Y27718D01*
X25664Y27800D01*
X25648Y27882D01*
X25601Y27951D01*
X25532Y27998D01*
X25450Y28014D01*
D02*
G37*
G36*
X28929Y27679D02*
X28734D01*
Y27484D01*
X28781Y27494D01*
X28864Y27549D01*
X28919Y27632D01*
X28929Y27679D01*
D02*
G37*
G36*
X24290Y28204D02*
X24208Y28188D01*
X24139Y28141D01*
X24092Y28072D01*
X24076Y27990D01*
X24092Y27908D01*
X24139Y27839D01*
X24208Y27792D01*
X24290Y27776D01*
X24372Y27792D01*
X24441Y27839D01*
X24488Y27908D01*
X24504Y27990D01*
X24488Y28072D01*
X24441Y28141D01*
X24372Y28188D01*
X24290Y28204D01*
D02*
G37*
G36*
X26500Y28164D02*
X26418Y28148D01*
X26349Y28101D01*
X26302Y28032D01*
X26286Y27950D01*
X26302Y27868D01*
X26349Y27799D01*
X26418Y27752D01*
X26500Y27736D01*
X26582Y27752D01*
X26651Y27799D01*
X26698Y27868D01*
X26714Y27950D01*
X26698Y28032D01*
X26651Y28101D01*
X26582Y28148D01*
X26500Y28164D01*
D02*
G37*
G36*
X28634Y27679D02*
X28439D01*
X28448Y27632D01*
X28503Y27549D01*
X28586Y27494D01*
X28634Y27484D01*
Y27679D01*
D02*
G37*
G36*
X29774Y27567D02*
Y27372D01*
X29969D01*
X29959Y27419D01*
X29904Y27502D01*
X29821Y27557D01*
X29774Y27567D01*
D02*
G37*
G36*
X29674D02*
X29626Y27557D01*
X29543Y27502D01*
X29488Y27419D01*
X29479Y27372D01*
X29674D01*
Y27567D01*
D02*
G37*
G36*
X34240Y27904D02*
X34158Y27888D01*
X34089Y27841D01*
X34042Y27772D01*
X34026Y27690D01*
X34042Y27608D01*
X34089Y27539D01*
X34158Y27492D01*
X34240Y27476D01*
X34322Y27492D01*
X34391Y27539D01*
X34438Y27608D01*
X34454Y27690D01*
X34438Y27772D01*
X34391Y27841D01*
X34322Y27888D01*
X34240Y27904D01*
D02*
G37*
G36*
X32656Y27820D02*
X32574Y27804D01*
X32505Y27758D01*
X32458Y27688D01*
X32442Y27606D01*
X32458Y27524D01*
X32505Y27455D01*
X32574Y27408D01*
X32656Y27392D01*
X32738Y27408D01*
X32808Y27455D01*
X32854Y27524D01*
X32870Y27606D01*
X32854Y27688D01*
X32808Y27758D01*
X32738Y27804D01*
X32656Y27820D01*
D02*
G37*
G36*
X22285Y27553D02*
X22115D01*
X22024Y27541D01*
X21938Y27506D01*
X21865Y27450D01*
X21809Y27377D01*
X21774Y27291D01*
X21762Y27200D01*
X21774Y27109D01*
X21809Y27023D01*
X21865Y26950D01*
X21938Y26894D01*
X22024Y26859D01*
X22115Y26847D01*
X22285D01*
X22376Y26859D01*
X22462Y26894D01*
X22535Y26950D01*
X22591Y27023D01*
X22626Y27109D01*
X22638Y27200D01*
X22626Y27291D01*
X22591Y27377D01*
X22535Y27450D01*
X22462Y27506D01*
X22376Y27541D01*
X22285Y27553D01*
D02*
G37*
G36*
X24400Y26324D02*
X24318Y26308D01*
X24249Y26261D01*
X24202Y26192D01*
X24186Y26110D01*
X24202Y26028D01*
X24249Y25959D01*
X24318Y25912D01*
X24400Y25896D01*
X24482Y25912D01*
X24551Y25959D01*
X24598Y26028D01*
X24614Y26110D01*
X24598Y26192D01*
X24551Y26261D01*
X24482Y26308D01*
X24400Y26324D01*
D02*
G37*
G36*
X29150Y26314D02*
X29068Y26298D01*
X28999Y26251D01*
X28952Y26182D01*
X28936Y26100D01*
X28952Y26018D01*
X28999Y25949D01*
X29068Y25902D01*
X29150Y25886D01*
X29232Y25902D01*
X29301Y25949D01*
X29348Y26018D01*
X29364Y26100D01*
X29348Y26182D01*
X29301Y26251D01*
X29232Y26298D01*
X29150Y26314D01*
D02*
G37*
G36*
X32450Y26364D02*
X32368Y26348D01*
X32299Y26301D01*
X32252Y26232D01*
X32236Y26150D01*
X32252Y26068D01*
X32299Y25999D01*
X32368Y25952D01*
X32450Y25936D01*
X32532Y25952D01*
X32601Y25999D01*
X32648Y26068D01*
X32664Y26150D01*
X32648Y26232D01*
X32601Y26301D01*
X32532Y26348D01*
X32450Y26364D01*
D02*
G37*
G36*
X27300D02*
X27218Y26348D01*
X27149Y26301D01*
X27102Y26232D01*
X27086Y26150D01*
X27102Y26068D01*
X27149Y25999D01*
X27218Y25952D01*
X27300Y25936D01*
X27382Y25952D01*
X27451Y25999D01*
X27498Y26068D01*
X27514Y26150D01*
X27498Y26232D01*
X27451Y26301D01*
X27382Y26348D01*
X27300Y26364D01*
D02*
G37*
G36*
X36285Y26553D02*
X36115D01*
X36024Y26541D01*
X35938Y26506D01*
X35865Y26450D01*
X35809Y26377D01*
X35774Y26291D01*
X35762Y26200D01*
X35774Y26109D01*
X35809Y26023D01*
X35865Y25950D01*
X35938Y25894D01*
X36024Y25859D01*
X36115Y25847D01*
X36285D01*
X36376Y25859D01*
X36462Y25894D01*
X36535Y25950D01*
X36591Y26023D01*
X36626Y26109D01*
X36638Y26200D01*
X36626Y26291D01*
X36591Y26377D01*
X36535Y26450D01*
X36462Y26506D01*
X36376Y26541D01*
X36285Y26553D01*
D02*
G37*
G36*
X22285D02*
X22115D01*
X22024Y26541D01*
X21938Y26506D01*
X21865Y26450D01*
X21809Y26377D01*
X21774Y26291D01*
X21762Y26200D01*
X21774Y26109D01*
X21809Y26023D01*
X21865Y25950D01*
X21938Y25894D01*
X22024Y25859D01*
X22115Y25847D01*
X22285D01*
X22376Y25859D01*
X22462Y25894D01*
X22535Y25950D01*
X22591Y26023D01*
X22626Y26109D01*
X22638Y26200D01*
X22626Y26291D01*
X22591Y26377D01*
X22535Y26450D01*
X22462Y26506D01*
X22376Y26541D01*
X22285Y26553D01*
D02*
G37*
G36*
X29850Y26114D02*
X29768Y26098D01*
X29699Y26051D01*
X29652Y25982D01*
X29636Y25900D01*
X29652Y25818D01*
X29699Y25749D01*
X29768Y25702D01*
X29850Y25686D01*
X29932Y25702D01*
X30001Y25749D01*
X30048Y25818D01*
X30064Y25900D01*
X30048Y25982D01*
X30001Y26051D01*
X29932Y26098D01*
X29850Y26114D01*
D02*
G37*
G36*
X35285Y26553D02*
X35115D01*
X35024Y26541D01*
X34938Y26506D01*
X34865Y26450D01*
X34809Y26377D01*
X34774Y26291D01*
X34762Y26200D01*
X34774Y26109D01*
X34809Y26023D01*
X34865Y25950D01*
X34938Y25894D01*
X35024Y25859D01*
X35115Y25847D01*
X35285D01*
X35376Y25859D01*
X35462Y25894D01*
X35535Y25950D01*
X35591Y26023D01*
X35626Y26109D01*
X35638Y26200D01*
X35626Y26291D01*
X35591Y26377D01*
X35535Y26450D01*
X35462Y26506D01*
X35376Y26541D01*
X35285Y26553D01*
D02*
G37*
G36*
X23285D02*
X23115D01*
X23024Y26541D01*
X22938Y26506D01*
X22865Y26450D01*
X22809Y26377D01*
X22774Y26291D01*
X22762Y26200D01*
X22774Y26109D01*
X22809Y26023D01*
X22865Y25950D01*
X22938Y25894D01*
X23024Y25859D01*
X23115Y25847D01*
X23285D01*
X23376Y25859D01*
X23462Y25894D01*
X23535Y25950D01*
X23591Y26023D01*
X23626Y26109D01*
X23638Y26200D01*
X23626Y26291D01*
X23591Y26377D01*
X23535Y26450D01*
X23462Y26506D01*
X23376Y26541D01*
X23285Y26553D01*
D02*
G37*
G36*
X25950Y26564D02*
X25868Y26548D01*
X25799Y26501D01*
X25752Y26432D01*
X25736Y26350D01*
X25752Y26268D01*
X25799Y26199D01*
X25868Y26152D01*
X25950Y26136D01*
X26032Y26152D01*
X26101Y26199D01*
X26148Y26268D01*
X26164Y26350D01*
X26148Y26432D01*
X26101Y26501D01*
X26032Y26548D01*
X25950Y26564D01*
D02*
G37*
G36*
X29200Y27064D02*
X29118Y27048D01*
X29049Y27001D01*
X29002Y26932D01*
X28986Y26850D01*
X29002Y26768D01*
X29049Y26699D01*
X29118Y26652D01*
X29200Y26636D01*
X29282Y26652D01*
X29351Y26699D01*
X29398Y26768D01*
X29414Y26850D01*
X29398Y26932D01*
X29351Y27001D01*
X29282Y27048D01*
X29200Y27064D01*
D02*
G37*
G36*
X34370Y26825D02*
Y26630D01*
X34565D01*
X34555Y26678D01*
X34500Y26760D01*
X34418Y26816D01*
X34370Y26825D01*
D02*
G37*
G36*
X24645Y26860D02*
X24450D01*
Y26665D01*
X24498Y26674D01*
X24580Y26730D01*
X24636Y26812D01*
X24645Y26860D01*
D02*
G37*
G36*
X24350D02*
X24155D01*
X24165Y26812D01*
X24220Y26730D01*
X24302Y26674D01*
X24350Y26665D01*
Y26860D01*
D02*
G37*
G36*
X34270Y26825D02*
X34222Y26816D01*
X34140Y26760D01*
X34084Y26678D01*
X34075Y26630D01*
X34270D01*
Y26825D01*
D02*
G37*
G36*
Y26530D02*
X34075D01*
X34084Y26482D01*
X34140Y26400D01*
X34222Y26344D01*
X34270Y26335D01*
Y26530D01*
D02*
G37*
G36*
X28320Y26634D02*
X28238Y26618D01*
X28169Y26571D01*
X28122Y26502D01*
X28106Y26420D01*
X28122Y26338D01*
X28169Y26269D01*
X28238Y26222D01*
X28320Y26206D01*
X28402Y26222D01*
X28471Y26269D01*
X28518Y26338D01*
X28534Y26420D01*
X28518Y26502D01*
X28471Y26571D01*
X28402Y26618D01*
X28320Y26634D01*
D02*
G37*
G36*
X29900Y26814D02*
X29818Y26798D01*
X29749Y26751D01*
X29702Y26682D01*
X29686Y26600D01*
X29702Y26518D01*
X29749Y26449D01*
X29818Y26402D01*
X29900Y26386D01*
X29982Y26402D01*
X30051Y26449D01*
X30098Y26518D01*
X30114Y26600D01*
X30098Y26682D01*
X30051Y26751D01*
X29982Y26798D01*
X29900Y26814D01*
D02*
G37*
G36*
X34565Y26530D02*
X34370D01*
Y26335D01*
X34418Y26344D01*
X34500Y26400D01*
X34555Y26482D01*
X34565Y26530D01*
D02*
G37*
G36*
X36285Y23593D02*
X36250D01*
Y23250D01*
X36672D01*
X36665Y23302D01*
X36626Y23397D01*
X36563Y23478D01*
X36482Y23541D01*
X36387Y23580D01*
X36285Y23593D01*
D02*
G37*
G36*
X33910Y19974D02*
X33828Y19958D01*
X33759Y19911D01*
X33712Y19842D01*
X33696Y19760D01*
X33712Y19678D01*
X33759Y19609D01*
X33828Y19562D01*
X33910Y19546D01*
X33992Y19562D01*
X34061Y19609D01*
X34108Y19678D01*
X34124Y19760D01*
X34108Y19842D01*
X34061Y19911D01*
X33992Y19958D01*
X33910Y19974D01*
D02*
G37*
G36*
X27550Y19904D02*
X27468Y19888D01*
X27399Y19841D01*
X27352Y19772D01*
X27336Y19690D01*
X27352Y19608D01*
X27399Y19539D01*
X27468Y19492D01*
X27550Y19476D01*
X27632Y19492D01*
X27701Y19539D01*
X27748Y19608D01*
X27764Y19690D01*
X27748Y19772D01*
X27701Y19841D01*
X27632Y19888D01*
X27550Y19904D01*
D02*
G37*
G36*
X22100Y20054D02*
X22018Y20038D01*
X21949Y19991D01*
X21902Y19922D01*
X21886Y19840D01*
X21902Y19758D01*
X21949Y19689D01*
X22018Y19642D01*
X22100Y19626D01*
X22182Y19642D01*
X22251Y19689D01*
X22298Y19758D01*
X22314Y19840D01*
X22298Y19922D01*
X22251Y19991D01*
X22182Y20038D01*
X22100Y20054D01*
D02*
G37*
G36*
X30800Y19984D02*
X30718Y19968D01*
X30649Y19921D01*
X30602Y19852D01*
X30586Y19770D01*
X30602Y19688D01*
X30649Y19619D01*
X30718Y19572D01*
X30800Y19556D01*
X30882Y19572D01*
X30951Y19619D01*
X30998Y19688D01*
X31014Y19770D01*
X30998Y19852D01*
X30951Y19921D01*
X30882Y19968D01*
X30800Y19984D01*
D02*
G37*
G36*
X24270Y19894D02*
X24188Y19878D01*
X24119Y19831D01*
X24072Y19762D01*
X24056Y19680D01*
X24072Y19598D01*
X24119Y19529D01*
X24188Y19482D01*
X24270Y19466D01*
X24352Y19482D01*
X24421Y19529D01*
X24468Y19598D01*
X24484Y19680D01*
X24468Y19762D01*
X24421Y19831D01*
X24352Y19878D01*
X24270Y19894D01*
D02*
G37*
G36*
X23100Y19314D02*
X23018Y19298D01*
X22949Y19251D01*
X22902Y19182D01*
X22886Y19100D01*
X22902Y19018D01*
X22949Y18949D01*
X23018Y18902D01*
X23100Y18886D01*
X23182Y18902D01*
X23251Y18949D01*
X23298Y19018D01*
X23314Y19100D01*
X23298Y19182D01*
X23251Y19251D01*
X23182Y19298D01*
X23100Y19314D01*
D02*
G37*
G36*
X28450Y19234D02*
X28368Y19218D01*
X28299Y19171D01*
X28252Y19102D01*
X28236Y19020D01*
X28252Y18938D01*
X28299Y18869D01*
X28368Y18822D01*
X28450Y18806D01*
X28532Y18822D01*
X28601Y18869D01*
X28648Y18938D01*
X28664Y19020D01*
X28648Y19102D01*
X28601Y19171D01*
X28532Y19218D01*
X28450Y19234D01*
D02*
G37*
G36*
X26850Y19814D02*
X26768Y19798D01*
X26699Y19751D01*
X26652Y19682D01*
X26636Y19600D01*
X26652Y19518D01*
X26699Y19449D01*
X26768Y19402D01*
X26850Y19386D01*
X26932Y19402D01*
X27001Y19449D01*
X27048Y19518D01*
X27064Y19600D01*
X27048Y19682D01*
X27001Y19751D01*
X26932Y19798D01*
X26850Y19814D01*
D02*
G37*
G36*
X32700Y19764D02*
X32618Y19748D01*
X32549Y19701D01*
X32502Y19632D01*
X32486Y19550D01*
X32502Y19468D01*
X32549Y19399D01*
X32618Y19352D01*
X32700Y19336D01*
X32782Y19352D01*
X32851Y19399D01*
X32898Y19468D01*
X32914Y19550D01*
X32898Y19632D01*
X32851Y19701D01*
X32782Y19748D01*
X32700Y19764D01*
D02*
G37*
G36*
X30180Y20094D02*
X30098Y20078D01*
X30029Y20031D01*
X29982Y19962D01*
X29966Y19880D01*
X29982Y19798D01*
X30029Y19729D01*
X30098Y19682D01*
X30180Y19666D01*
X30262Y19682D01*
X30331Y19729D01*
X30378Y19798D01*
X30394Y19880D01*
X30378Y19962D01*
X30331Y20031D01*
X30262Y20078D01*
X30180Y20094D01*
D02*
G37*
G36*
X22920Y20864D02*
X22838Y20848D01*
X22769Y20801D01*
X22722Y20732D01*
X22706Y20650D01*
X22722Y20568D01*
X22769Y20499D01*
X22838Y20452D01*
X22920Y20436D01*
X23002Y20452D01*
X23071Y20499D01*
X23118Y20568D01*
X23134Y20650D01*
X23118Y20732D01*
X23071Y20801D01*
X23002Y20848D01*
X22920Y20864D01*
D02*
G37*
G36*
X27930Y20814D02*
X27848Y20798D01*
X27779Y20751D01*
X27732Y20682D01*
X27716Y20600D01*
X27732Y20518D01*
X27779Y20449D01*
X27848Y20402D01*
X27930Y20386D01*
X28012Y20402D01*
X28081Y20449D01*
X28128Y20518D01*
X28144Y20600D01*
X28128Y20682D01*
X28081Y20751D01*
X28012Y20798D01*
X27930Y20814D01*
D02*
G37*
G36*
X31800Y20914D02*
X31718Y20898D01*
X31649Y20851D01*
X31602Y20782D01*
X31586Y20700D01*
X31602Y20618D01*
X31649Y20549D01*
X31718Y20502D01*
X31800Y20486D01*
X31882Y20502D01*
X31951Y20549D01*
X31998Y20618D01*
X32014Y20700D01*
X31998Y20782D01*
X31951Y20851D01*
X31882Y20898D01*
X31800Y20914D01*
D02*
G37*
G36*
X23840Y20904D02*
X23758Y20888D01*
X23689Y20841D01*
X23642Y20772D01*
X23626Y20690D01*
X23642Y20608D01*
X23689Y20539D01*
X23758Y20492D01*
X23840Y20476D01*
X23922Y20492D01*
X23991Y20539D01*
X24038Y20608D01*
X24054Y20690D01*
X24038Y20772D01*
X23991Y20841D01*
X23922Y20888D01*
X23840Y20904D01*
D02*
G37*
G36*
X34450Y20764D02*
X34368Y20748D01*
X34299Y20701D01*
X34252Y20632D01*
X34236Y20550D01*
X34252Y20468D01*
X34299Y20399D01*
X34368Y20352D01*
X34450Y20336D01*
X34532Y20352D01*
X34601Y20399D01*
X34648Y20468D01*
X34664Y20550D01*
X34648Y20632D01*
X34601Y20701D01*
X34532Y20748D01*
X34450Y20764D01*
D02*
G37*
G36*
X29400Y20464D02*
X29318Y20448D01*
X29249Y20401D01*
X29202Y20332D01*
X29186Y20250D01*
X29202Y20168D01*
X29249Y20099D01*
X29318Y20052D01*
X29400Y20036D01*
X29482Y20052D01*
X29551Y20099D01*
X29598Y20168D01*
X29614Y20250D01*
X29598Y20332D01*
X29551Y20401D01*
X29482Y20448D01*
X29400Y20464D01*
D02*
G37*
G36*
X33109Y20147D02*
X33027Y20131D01*
X32957Y20085D01*
X32911Y20015D01*
X32895Y19933D01*
X32911Y19851D01*
X32957Y19782D01*
X33027Y19735D01*
X33109Y19719D01*
X33191Y19735D01*
X33260Y19782D01*
X33307Y19851D01*
X33323Y19933D01*
X33307Y20015D01*
X33260Y20085D01*
X33191Y20131D01*
X33109Y20147D01*
D02*
G37*
G36*
X31045Y20520D02*
X30850D01*
Y20325D01*
X30898Y20334D01*
X30980Y20390D01*
X31035Y20472D01*
X31045Y20520D01*
D02*
G37*
G36*
X30750D02*
X30555D01*
X30564Y20472D01*
X30620Y20390D01*
X30702Y20334D01*
X30750Y20325D01*
Y20520D01*
D02*
G37*
G36*
X24920Y19224D02*
X24838Y19208D01*
X24769Y19161D01*
X24722Y19092D01*
X24706Y19010D01*
X24722Y18928D01*
X24769Y18859D01*
X24838Y18812D01*
X24920Y18796D01*
X25002Y18812D01*
X25071Y18859D01*
X25118Y18928D01*
X25134Y19010D01*
X25118Y19092D01*
X25071Y19161D01*
X25002Y19208D01*
X24920Y19224D01*
D02*
G37*
G36*
X26270Y18330D02*
X26075D01*
X26084Y18282D01*
X26140Y18200D01*
X26222Y18145D01*
X26270Y18135D01*
Y18330D01*
D02*
G37*
G36*
X31620Y18344D02*
X31538Y18328D01*
X31469Y18281D01*
X31422Y18212D01*
X31406Y18130D01*
X31422Y18048D01*
X31469Y17979D01*
X31538Y17932D01*
X31620Y17916D01*
X31702Y17932D01*
X31771Y17979D01*
X31818Y18048D01*
X31834Y18130D01*
X31818Y18212D01*
X31771Y18281D01*
X31702Y18328D01*
X31620Y18344D01*
D02*
G37*
G36*
X26270Y18625D02*
X26222Y18615D01*
X26140Y18560D01*
X26084Y18478D01*
X26075Y18430D01*
X26270D01*
Y18625D01*
D02*
G37*
G36*
X26565Y18330D02*
X26370D01*
Y18135D01*
X26418Y18145D01*
X26500Y18200D01*
X26556Y18282D01*
X26565Y18330D01*
D02*
G37*
G36*
X30940Y18174D02*
X30858Y18158D01*
X30789Y18111D01*
X30742Y18042D01*
X30726Y17960D01*
X30742Y17878D01*
X30789Y17809D01*
X30858Y17762D01*
X30940Y17746D01*
X31022Y17762D01*
X31091Y17809D01*
X31138Y17878D01*
X31154Y17960D01*
X31138Y18042D01*
X31091Y18111D01*
X31022Y18158D01*
X30940Y18174D01*
D02*
G37*
G36*
X25810Y17974D02*
X25728Y17958D01*
X25659Y17912D01*
X25612Y17842D01*
X25596Y17760D01*
X25612Y17678D01*
X25659Y17609D01*
X25728Y17562D01*
X25810Y17546D01*
X25892Y17562D01*
X25962Y17609D01*
X26008Y17678D01*
X26024Y17760D01*
X26008Y17842D01*
X25962Y17912D01*
X25892Y17958D01*
X25810Y17974D01*
D02*
G37*
G36*
X26660Y17964D02*
X26578Y17948D01*
X26509Y17901D01*
X26462Y17832D01*
X26446Y17750D01*
X26462Y17668D01*
X26509Y17599D01*
X26578Y17552D01*
X26660Y17536D01*
X26742Y17552D01*
X26811Y17599D01*
X26858Y17668D01*
X26874Y17750D01*
X26858Y17832D01*
X26811Y17901D01*
X26742Y17948D01*
X26660Y17964D01*
D02*
G37*
G36*
X28550Y18084D02*
X28468Y18068D01*
X28399Y18021D01*
X28352Y17952D01*
X28336Y17870D01*
X28352Y17788D01*
X28399Y17719D01*
X28468Y17672D01*
X28550Y17656D01*
X28632Y17672D01*
X28701Y17719D01*
X28748Y17788D01*
X28764Y17870D01*
X28748Y17952D01*
X28701Y18021D01*
X28632Y18068D01*
X28550Y18084D01*
D02*
G37*
G36*
X27460Y17994D02*
X27378Y17978D01*
X27309Y17931D01*
X27262Y17862D01*
X27246Y17780D01*
X27262Y17698D01*
X27309Y17629D01*
X27378Y17582D01*
X27460Y17566D01*
X27542Y17582D01*
X27611Y17629D01*
X27658Y17698D01*
X27674Y17780D01*
X27658Y17862D01*
X27611Y17931D01*
X27542Y17978D01*
X27460Y17994D01*
D02*
G37*
G36*
X26370Y18625D02*
Y18430D01*
X26565D01*
X26556Y18478D01*
X26500Y18560D01*
X26418Y18615D01*
X26370Y18625D01*
D02*
G37*
G36*
X29980Y18925D02*
X29932Y18915D01*
X29850Y18860D01*
X29794Y18778D01*
X29785Y18730D01*
X29980D01*
Y18925D01*
D02*
G37*
G36*
X25720Y19134D02*
X25638Y19118D01*
X25569Y19071D01*
X25522Y19002D01*
X25506Y18920D01*
X25522Y18838D01*
X25569Y18769D01*
X25638Y18722D01*
X25720Y18706D01*
X25802Y18722D01*
X25871Y18769D01*
X25918Y18838D01*
X25934Y18920D01*
X25918Y19002D01*
X25871Y19071D01*
X25802Y19118D01*
X25720Y19134D01*
D02*
G37*
G36*
X30950Y19184D02*
X30868Y19168D01*
X30799Y19121D01*
X30752Y19052D01*
X30736Y18970D01*
X30752Y18888D01*
X30799Y18819D01*
X30868Y18772D01*
X30950Y18756D01*
X31032Y18772D01*
X31101Y18819D01*
X31148Y18888D01*
X31164Y18970D01*
X31148Y19052D01*
X31101Y19121D01*
X31032Y19168D01*
X30950Y19184D01*
D02*
G37*
G36*
X30080Y18925D02*
Y18730D01*
X30275D01*
X30266Y18778D01*
X30210Y18860D01*
X30128Y18915D01*
X30080Y18925D01*
D02*
G37*
G36*
X31750Y19024D02*
X31668Y19008D01*
X31599Y18961D01*
X31552Y18892D01*
X31536Y18810D01*
X31552Y18728D01*
X31599Y18659D01*
X31668Y18612D01*
X31750Y18596D01*
X31832Y18612D01*
X31901Y18659D01*
X31948Y18728D01*
X31964Y18810D01*
X31948Y18892D01*
X31901Y18961D01*
X31832Y19008D01*
X31750Y19024D01*
D02*
G37*
G36*
X30275Y18630D02*
X30080D01*
Y18435D01*
X30128Y18444D01*
X30210Y18500D01*
X30266Y18582D01*
X30275Y18630D01*
D02*
G37*
G36*
X29980D02*
X29785D01*
X29794Y18582D01*
X29850Y18500D01*
X29932Y18444D01*
X29980Y18435D01*
Y18630D01*
D02*
G37*
G36*
X32840Y18785D02*
Y18590D01*
X33035D01*
X33026Y18638D01*
X32970Y18720D01*
X32888Y18776D01*
X32840Y18785D01*
D02*
G37*
G36*
X32740D02*
X32692Y18776D01*
X32610Y18720D01*
X32555Y18638D01*
X32545Y18590D01*
X32740D01*
Y18785D01*
D02*
G37*
G36*
X29000Y23124D02*
X28918Y23108D01*
X28849Y23061D01*
X28802Y22992D01*
X28786Y22910D01*
X28802Y22828D01*
X28849Y22759D01*
X28918Y22712D01*
X29000Y22696D01*
X29082Y22712D01*
X29151Y22759D01*
X29198Y22828D01*
X29214Y22910D01*
X29198Y22992D01*
X29151Y23061D01*
X29082Y23108D01*
X29000Y23124D01*
D02*
G37*
G36*
X34400Y22814D02*
X34318Y22798D01*
X34249Y22751D01*
X34202Y22682D01*
X34186Y22600D01*
X34202Y22518D01*
X34249Y22449D01*
X34318Y22402D01*
X34400Y22386D01*
X34482Y22402D01*
X34551Y22449D01*
X34598Y22518D01*
X34614Y22600D01*
X34598Y22682D01*
X34551Y22751D01*
X34482Y22798D01*
X34400Y22814D01*
D02*
G37*
G36*
X36672Y23150D02*
X36250D01*
Y22807D01*
X36285D01*
X36387Y22820D01*
X36482Y22859D01*
X36563Y22922D01*
X36626Y23003D01*
X36665Y23098D01*
X36672Y23150D01*
D02*
G37*
G36*
X36150D02*
X35728D01*
X35735Y23098D01*
X35774Y23003D01*
X35837Y22922D01*
X35918Y22859D01*
X36013Y22820D01*
X36115Y22807D01*
X36150D01*
Y23150D01*
D02*
G37*
G36*
X30770Y22594D02*
X30688Y22578D01*
X30619Y22531D01*
X30572Y22462D01*
X30556Y22380D01*
X30572Y22298D01*
X30619Y22229D01*
X30688Y22182D01*
X30770Y22166D01*
X30852Y22182D01*
X30921Y22229D01*
X30968Y22298D01*
X30984Y22380D01*
X30968Y22462D01*
X30921Y22531D01*
X30852Y22578D01*
X30770Y22594D01*
D02*
G37*
G36*
X28493Y22330D02*
X28411Y22313D01*
X28342Y22267D01*
X28296Y22197D01*
X28279Y22116D01*
X28296Y22034D01*
X28342Y21964D01*
X28411Y21918D01*
X28493Y21901D01*
X28575Y21918D01*
X28645Y21964D01*
X28691Y22034D01*
X28708Y22116D01*
X28691Y22197D01*
X28645Y22267D01*
X28575Y22313D01*
X28493Y22330D01*
D02*
G37*
G36*
X34058Y22314D02*
X33976Y22298D01*
X33907Y22251D01*
X33860Y22182D01*
X33844Y22100D01*
X33860Y22018D01*
X33907Y21949D01*
X33976Y21902D01*
X34058Y21886D01*
X34140Y21902D01*
X34209Y21949D01*
X34256Y22018D01*
X34272Y22100D01*
X34256Y22182D01*
X34209Y22251D01*
X34140Y22298D01*
X34058Y22314D01*
D02*
G37*
G36*
X29920Y22434D02*
X29838Y22418D01*
X29769Y22371D01*
X29722Y22302D01*
X29706Y22220D01*
X29722Y22138D01*
X29769Y22069D01*
X29838Y22022D01*
X29920Y22006D01*
X30002Y22022D01*
X30071Y22069D01*
X30118Y22138D01*
X30134Y22220D01*
X30118Y22302D01*
X30071Y22371D01*
X30002Y22418D01*
X29920Y22434D01*
D02*
G37*
G36*
X31700Y22374D02*
X31618Y22358D01*
X31549Y22311D01*
X31502Y22242D01*
X31486Y22160D01*
X31502Y22078D01*
X31549Y22009D01*
X31618Y21962D01*
X31700Y21946D01*
X31782Y21962D01*
X31851Y22009D01*
X31898Y22078D01*
X31914Y22160D01*
X31898Y22242D01*
X31851Y22311D01*
X31782Y22358D01*
X31700Y22374D01*
D02*
G37*
G36*
X22285Y23553D02*
X22115D01*
X22024Y23541D01*
X21938Y23506D01*
X21865Y23450D01*
X21809Y23377D01*
X21774Y23291D01*
X21762Y23200D01*
X21774Y23109D01*
X21809Y23023D01*
X21865Y22950D01*
X21938Y22894D01*
X22024Y22859D01*
X22115Y22847D01*
X22285D01*
X22376Y22859D01*
X22462Y22894D01*
X22535Y22950D01*
X22591Y23023D01*
X22626Y23109D01*
X22638Y23200D01*
X22626Y23291D01*
X22591Y23377D01*
X22535Y23450D01*
X22462Y23506D01*
X22376Y23541D01*
X22285Y23553D01*
D02*
G37*
G36*
X33490Y23554D02*
X33408Y23538D01*
X33339Y23491D01*
X33292Y23422D01*
X33276Y23340D01*
X33292Y23258D01*
X33339Y23189D01*
X33408Y23142D01*
X33490Y23126D01*
X33572Y23142D01*
X33641Y23189D01*
X33688Y23258D01*
X33704Y23340D01*
X33688Y23422D01*
X33641Y23491D01*
X33572Y23538D01*
X33490Y23554D01*
D02*
G37*
G36*
X34390Y23534D02*
X34308Y23518D01*
X34239Y23471D01*
X34192Y23402D01*
X34176Y23320D01*
X34192Y23238D01*
X34239Y23169D01*
X34308Y23122D01*
X34390Y23106D01*
X34472Y23122D01*
X34541Y23169D01*
X34588Y23238D01*
X34604Y23320D01*
X34588Y23402D01*
X34541Y23471D01*
X34472Y23518D01*
X34390Y23534D01*
D02*
G37*
G36*
X36150Y23593D02*
X36115D01*
X36013Y23580D01*
X35918Y23541D01*
X35837Y23478D01*
X35774Y23397D01*
X35735Y23302D01*
X35728Y23250D01*
X36150D01*
Y23593D01*
D02*
G37*
G36*
X27300Y23614D02*
X27218Y23598D01*
X27149Y23551D01*
X27102Y23482D01*
X27086Y23400D01*
X27102Y23318D01*
X27149Y23249D01*
X27218Y23202D01*
X27300Y23186D01*
X27382Y23202D01*
X27451Y23249D01*
X27498Y23318D01*
X27514Y23400D01*
X27498Y23482D01*
X27451Y23551D01*
X27382Y23598D01*
X27300Y23614D01*
D02*
G37*
G36*
X31020Y23514D02*
X30938Y23498D01*
X30869Y23451D01*
X30822Y23382D01*
X30806Y23300D01*
X30822Y23218D01*
X30869Y23149D01*
X30938Y23102D01*
X31020Y23086D01*
X31102Y23102D01*
X31171Y23149D01*
X31218Y23218D01*
X31234Y23300D01*
X31218Y23382D01*
X31171Y23451D01*
X31102Y23498D01*
X31020Y23514D01*
D02*
G37*
G36*
X35285Y23553D02*
X35115D01*
X35024Y23541D01*
X34938Y23506D01*
X34865Y23450D01*
X34809Y23377D01*
X34774Y23291D01*
X34762Y23200D01*
X34774Y23109D01*
X34809Y23023D01*
X34865Y22950D01*
X34938Y22894D01*
X35024Y22859D01*
X35115Y22847D01*
X35285D01*
X35376Y22859D01*
X35462Y22894D01*
X35535Y22950D01*
X35591Y23023D01*
X35626Y23109D01*
X35638Y23200D01*
X35626Y23291D01*
X35591Y23377D01*
X35535Y23450D01*
X35462Y23506D01*
X35376Y23541D01*
X35285Y23553D01*
D02*
G37*
G36*
X23285D02*
X23115D01*
X23024Y23541D01*
X22938Y23506D01*
X22865Y23450D01*
X22809Y23377D01*
X22774Y23291D01*
X22762Y23200D01*
X22774Y23109D01*
X22809Y23023D01*
X22865Y22950D01*
X22938Y22894D01*
X23024Y22859D01*
X23115Y22847D01*
X23285D01*
X23376Y22859D01*
X23462Y22894D01*
X23535Y22950D01*
X23591Y23023D01*
X23626Y23109D01*
X23638Y23200D01*
X23626Y23291D01*
X23591Y23377D01*
X23535Y23450D01*
X23462Y23506D01*
X23376Y23541D01*
X23285Y23553D01*
D02*
G37*
G36*
X31890Y23414D02*
X31808Y23398D01*
X31739Y23351D01*
X31692Y23282D01*
X31676Y23200D01*
X31692Y23118D01*
X31739Y23049D01*
X31808Y23002D01*
X31890Y22986D01*
X31972Y23002D01*
X32041Y23049D01*
X32088Y23118D01*
X32104Y23200D01*
X32088Y23282D01*
X32041Y23351D01*
X31972Y23398D01*
X31890Y23414D01*
D02*
G37*
G36*
X26150Y23314D02*
X26068Y23298D01*
X25999Y23251D01*
X25952Y23182D01*
X25936Y23100D01*
X25952Y23018D01*
X25999Y22949D01*
X26068Y22902D01*
X26150Y22886D01*
X26232Y22902D01*
X26301Y22949D01*
X26348Y23018D01*
X26364Y23100D01*
X26348Y23182D01*
X26301Y23251D01*
X26232Y23298D01*
X26150Y23314D01*
D02*
G37*
G36*
X27810Y22304D02*
X27728Y22288D01*
X27659Y22241D01*
X27612Y22172D01*
X27596Y22090D01*
X27612Y22008D01*
X27659Y21939D01*
X27728Y21892D01*
X27810Y21876D01*
X27892Y21892D01*
X27961Y21939D01*
X28008Y22008D01*
X28024Y22090D01*
X28008Y22172D01*
X27961Y22241D01*
X27892Y22288D01*
X27810Y22304D01*
D02*
G37*
G36*
X22370Y21464D02*
X22288Y21448D01*
X22219Y21401D01*
X22172Y21332D01*
X22156Y21250D01*
X22172Y21168D01*
X22219Y21099D01*
X22288Y21052D01*
X22370Y21036D01*
X22452Y21052D01*
X22521Y21099D01*
X22568Y21168D01*
X22584Y21250D01*
X22568Y21332D01*
X22521Y21401D01*
X22452Y21448D01*
X22370Y21464D01*
D02*
G37*
G36*
X24760Y21454D02*
X24678Y21438D01*
X24609Y21391D01*
X24562Y21322D01*
X24546Y21240D01*
X24562Y21158D01*
X24609Y21089D01*
X24678Y21042D01*
X24760Y21026D01*
X24842Y21042D01*
X24911Y21089D01*
X24958Y21158D01*
X24974Y21240D01*
X24958Y21322D01*
X24911Y21391D01*
X24842Y21438D01*
X24760Y21454D01*
D02*
G37*
G36*
X25685Y21270D02*
X25490D01*
Y21075D01*
X25538Y21084D01*
X25620Y21140D01*
X25675Y21222D01*
X25685Y21270D01*
D02*
G37*
G36*
X25390D02*
X25195D01*
X25205Y21222D01*
X25260Y21140D01*
X25342Y21084D01*
X25390Y21075D01*
Y21270D01*
D02*
G37*
G36*
X31530Y21436D02*
X31448Y21420D01*
X31379Y21373D01*
X31332Y21304D01*
X31316Y21222D01*
X31332Y21140D01*
X31379Y21071D01*
X31448Y21024D01*
X31530Y21008D01*
X31612Y21024D01*
X31681Y21071D01*
X31728Y21140D01*
X31744Y21222D01*
X31728Y21304D01*
X31681Y21373D01*
X31612Y21420D01*
X31530Y21436D01*
D02*
G37*
G36*
X30850Y20815D02*
Y20620D01*
X31045D01*
X31035Y20668D01*
X30980Y20750D01*
X30898Y20805D01*
X30850Y20815D01*
D02*
G37*
G36*
X30750D02*
X30702Y20805D01*
X30620Y20750D01*
X30564Y20668D01*
X30555Y20620D01*
X30750D01*
Y20815D01*
D02*
G37*
G36*
X26130Y21384D02*
X26048Y21368D01*
X25979Y21321D01*
X25932Y21252D01*
X25916Y21170D01*
X25932Y21088D01*
X25979Y21019D01*
X26048Y20972D01*
X26130Y20956D01*
X26212Y20972D01*
X26281Y21019D01*
X26328Y21088D01*
X26344Y21170D01*
X26328Y21252D01*
X26281Y21321D01*
X26212Y21368D01*
X26130Y21384D01*
D02*
G37*
G36*
X29500Y21588D02*
X29399Y21575D01*
X29306Y21536D01*
X29225Y21475D01*
X29164Y21394D01*
X29125Y21300D01*
X29112Y21200D01*
X29125Y21100D01*
X29164Y21006D01*
X29225Y20925D01*
X29306Y20864D01*
X29399Y20825D01*
X29500Y20812D01*
X29601Y20825D01*
X29694Y20864D01*
X29775Y20925D01*
X29836Y21006D01*
X29875Y21100D01*
X29888Y21200D01*
X29875Y21300D01*
X29836Y21394D01*
X29775Y21475D01*
X29694Y21536D01*
X29601Y21575D01*
X29500Y21588D01*
D02*
G37*
G36*
X30850Y21674D02*
X30768Y21658D01*
X30699Y21611D01*
X30652Y21542D01*
X30636Y21460D01*
X30652Y21378D01*
X30699Y21309D01*
X30768Y21262D01*
X30850Y21246D01*
X30932Y21262D01*
X31001Y21309D01*
X31048Y21378D01*
X31064Y21460D01*
X31048Y21542D01*
X31001Y21611D01*
X30932Y21658D01*
X30850Y21674D01*
D02*
G37*
G36*
X23285Y22553D02*
X23115D01*
X23024Y22541D01*
X22938Y22506D01*
X22865Y22450D01*
X22809Y22377D01*
X22774Y22291D01*
X22762Y22200D01*
X22774Y22109D01*
X22809Y22023D01*
X22865Y21950D01*
X22938Y21894D01*
X23024Y21859D01*
X23115Y21847D01*
X23285D01*
X23376Y21859D01*
X23462Y21894D01*
X23535Y21950D01*
X23591Y22023D01*
X23626Y22109D01*
X23638Y22200D01*
X23626Y22291D01*
X23591Y22377D01*
X23535Y22450D01*
X23462Y22506D01*
X23376Y22541D01*
X23285Y22553D01*
D02*
G37*
G36*
X22285D02*
X22115D01*
X22024Y22541D01*
X21938Y22506D01*
X21865Y22450D01*
X21809Y22377D01*
X21774Y22291D01*
X21762Y22200D01*
X21774Y22109D01*
X21809Y22023D01*
X21865Y21950D01*
X21938Y21894D01*
X22024Y21859D01*
X22115Y21847D01*
X22285D01*
X22376Y21859D01*
X22462Y21894D01*
X22535Y21950D01*
X22591Y22023D01*
X22626Y22109D01*
X22638Y22200D01*
X22626Y22291D01*
X22591Y22377D01*
X22535Y22450D01*
X22462Y22506D01*
X22376Y22541D01*
X22285Y22553D01*
D02*
G37*
G36*
X36285D02*
X36115D01*
X36024Y22541D01*
X35938Y22506D01*
X35865Y22450D01*
X35809Y22377D01*
X35774Y22291D01*
X35762Y22200D01*
X35774Y22109D01*
X35809Y22023D01*
X35865Y21950D01*
X35938Y21894D01*
X36024Y21859D01*
X36115Y21847D01*
X36285D01*
X36376Y21859D01*
X36462Y21894D01*
X36535Y21950D01*
X36591Y22023D01*
X36626Y22109D01*
X36638Y22200D01*
X36626Y22291D01*
X36591Y22377D01*
X36535Y22450D01*
X36462Y22506D01*
X36376Y22541D01*
X36285Y22553D01*
D02*
G37*
G36*
X35285D02*
X35115D01*
X35024Y22541D01*
X34938Y22506D01*
X34865Y22450D01*
X34809Y22377D01*
X34774Y22291D01*
X34762Y22200D01*
X34774Y22109D01*
X34809Y22023D01*
X34865Y21950D01*
X34938Y21894D01*
X35024Y21859D01*
X35115Y21847D01*
X35285D01*
X35376Y21859D01*
X35462Y21894D01*
X35535Y21950D01*
X35591Y22023D01*
X35626Y22109D01*
X35638Y22200D01*
X35626Y22291D01*
X35591Y22377D01*
X35535Y22450D01*
X35462Y22506D01*
X35376Y22541D01*
X35285Y22553D01*
D02*
G37*
G36*
X24070Y22264D02*
X23988Y22248D01*
X23919Y22202D01*
X23872Y22132D01*
X23856Y22050D01*
X23872Y21968D01*
X23919Y21899D01*
X23988Y21852D01*
X24070Y21836D01*
X24152Y21852D01*
X24221Y21899D01*
X24268Y21968D01*
X24284Y22050D01*
X24268Y22132D01*
X24221Y22202D01*
X24152Y22248D01*
X24070Y22264D01*
D02*
G37*
G36*
X25390Y21565D02*
X25342Y21556D01*
X25260Y21500D01*
X25205Y21418D01*
X25195Y21370D01*
X25390D01*
Y21565D01*
D02*
G37*
G36*
X23180Y21724D02*
X23098Y21708D01*
X23029Y21661D01*
X22982Y21592D01*
X22966Y21510D01*
X22982Y21428D01*
X23029Y21359D01*
X23098Y21312D01*
X23180Y21296D01*
X23262Y21312D01*
X23331Y21359D01*
X23378Y21428D01*
X23394Y21510D01*
X23378Y21592D01*
X23331Y21661D01*
X23262Y21708D01*
X23180Y21724D01*
D02*
G37*
G36*
X29320Y22054D02*
X29238Y22038D01*
X29169Y21991D01*
X29122Y21922D01*
X29106Y21840D01*
X29122Y21758D01*
X29169Y21689D01*
X29238Y21642D01*
X29320Y21626D01*
X29402Y21642D01*
X29471Y21689D01*
X29518Y21758D01*
X29534Y21840D01*
X29518Y21922D01*
X29471Y21991D01*
X29402Y22038D01*
X29320Y22054D01*
D02*
G37*
G36*
X25490Y21565D02*
Y21370D01*
X25685D01*
X25675Y21418D01*
X25620Y21500D01*
X25538Y21556D01*
X25490Y21565D01*
D02*
G37*
G36*
X28634Y27974D02*
X28586Y27965D01*
X28503Y27909D01*
X28448Y27827D01*
X28439Y27779D01*
X28634D01*
Y27974D01*
D02*
G37*
G36*
X29900Y35614D02*
X29818Y35598D01*
X29749Y35551D01*
X29702Y35482D01*
X29686Y35400D01*
X29702Y35318D01*
X29749Y35249D01*
X29818Y35202D01*
X29900Y35186D01*
X29982Y35202D01*
X30051Y35249D01*
X30098Y35318D01*
X30114Y35400D01*
X30098Y35482D01*
X30051Y35551D01*
X29982Y35598D01*
X29900Y35614D01*
D02*
G37*
G36*
X30489Y35314D02*
X30407Y35297D01*
X30337Y35251D01*
X30291Y35182D01*
X30275Y35100D01*
X30291Y35018D01*
X30337Y34948D01*
X30407Y34902D01*
X30489Y34885D01*
X30571Y34902D01*
X30640Y34948D01*
X30687Y35018D01*
X30703Y35100D01*
X30687Y35182D01*
X30640Y35251D01*
X30571Y35297D01*
X30489Y35314D01*
D02*
G37*
G36*
X36285Y35593D02*
X36250D01*
Y35250D01*
X36672D01*
X36665Y35302D01*
X36626Y35397D01*
X36563Y35478D01*
X36482Y35541D01*
X36387Y35580D01*
X36285Y35593D01*
D02*
G37*
G36*
X36150D02*
X36115D01*
X36013Y35580D01*
X35918Y35541D01*
X35837Y35478D01*
X35774Y35397D01*
X35735Y35302D01*
X35728Y35250D01*
X36150D01*
Y35593D01*
D02*
G37*
G36*
X35285Y35553D02*
X35115D01*
X35024Y35541D01*
X34938Y35506D01*
X34865Y35450D01*
X34809Y35377D01*
X34774Y35291D01*
X34762Y35200D01*
X34774Y35109D01*
X34809Y35023D01*
X34865Y34950D01*
X34938Y34894D01*
X35024Y34859D01*
X35115Y34847D01*
X35285D01*
X35376Y34859D01*
X35462Y34894D01*
X35535Y34950D01*
X35591Y35023D01*
X35626Y35109D01*
X35638Y35200D01*
X35626Y35291D01*
X35591Y35377D01*
X35535Y35450D01*
X35462Y35506D01*
X35376Y35541D01*
X35285Y35553D01*
D02*
G37*
G36*
X36672Y35150D02*
X36250D01*
Y34807D01*
X36285D01*
X36387Y34820D01*
X36482Y34859D01*
X36563Y34922D01*
X36626Y35003D01*
X36665Y35098D01*
X36672Y35150D01*
D02*
G37*
G36*
X36150D02*
X35728D01*
X35735Y35098D01*
X35774Y35003D01*
X35837Y34922D01*
X35918Y34859D01*
X36013Y34820D01*
X36115Y34807D01*
X36150D01*
Y35150D01*
D02*
G37*
G36*
X23285Y35553D02*
X23115D01*
X23024Y35541D01*
X22938Y35506D01*
X22865Y35450D01*
X22809Y35377D01*
X22774Y35291D01*
X22762Y35200D01*
X22774Y35109D01*
X22809Y35023D01*
X22865Y34950D01*
X22938Y34894D01*
X23024Y34859D01*
X23115Y34847D01*
X23285D01*
X23376Y34859D01*
X23462Y34894D01*
X23535Y34950D01*
X23591Y35023D01*
X23626Y35109D01*
X23638Y35200D01*
X23626Y35291D01*
X23591Y35377D01*
X23535Y35450D01*
X23462Y35506D01*
X23376Y35541D01*
X23285Y35553D01*
D02*
G37*
G36*
X22285D02*
X22115D01*
X22024Y35541D01*
X21938Y35506D01*
X21865Y35450D01*
X21809Y35377D01*
X21774Y35291D01*
X21762Y35200D01*
X21774Y35109D01*
X21809Y35023D01*
X21865Y34950D01*
X21938Y34894D01*
X22024Y34859D01*
X22115Y34847D01*
X22285D01*
X22376Y34859D01*
X22462Y34894D01*
X22535Y34950D01*
X22591Y35023D01*
X22626Y35109D01*
X22638Y35200D01*
X22626Y35291D01*
X22591Y35377D01*
X22535Y35450D01*
X22462Y35506D01*
X22376Y35541D01*
X22285Y35553D01*
D02*
G37*
G36*
X34400Y35774D02*
X34318Y35758D01*
X34249Y35711D01*
X34202Y35642D01*
X34186Y35560D01*
X34202Y35478D01*
X34249Y35409D01*
X34318Y35362D01*
X34400Y35346D01*
X34482Y35362D01*
X34551Y35409D01*
X34598Y35478D01*
X34614Y35560D01*
X34598Y35642D01*
X34551Y35711D01*
X34482Y35758D01*
X34400Y35774D01*
D02*
G37*
G36*
X27145Y36050D02*
X26950D01*
Y35855D01*
X26998Y35865D01*
X27080Y35920D01*
X27135Y36002D01*
X27145Y36050D01*
D02*
G37*
G36*
X26850D02*
X26655D01*
X26665Y36002D01*
X26720Y35920D01*
X26802Y35865D01*
X26850Y35855D01*
Y36050D01*
D02*
G37*
G36*
X25522Y36450D02*
X25150D01*
Y36078D01*
X25211Y36086D01*
X25314Y36129D01*
X25403Y36197D01*
X25471Y36286D01*
X25514Y36389D01*
X25522Y36450D01*
D02*
G37*
G36*
X25050D02*
X24678D01*
X24686Y36389D01*
X24729Y36286D01*
X24797Y36197D01*
X24886Y36129D01*
X24989Y36086D01*
X25050Y36078D01*
Y36450D01*
D02*
G37*
G36*
X36285Y36553D02*
X36115D01*
X36024Y36541D01*
X35938Y36506D01*
X35865Y36450D01*
X35809Y36377D01*
X35774Y36291D01*
X35762Y36200D01*
X35774Y36109D01*
X35809Y36023D01*
X35865Y35950D01*
X35938Y35894D01*
X36024Y35859D01*
X36115Y35847D01*
X36285D01*
X36376Y35859D01*
X36462Y35894D01*
X36535Y35950D01*
X36591Y36023D01*
X36626Y36109D01*
X36638Y36200D01*
X36626Y36291D01*
X36591Y36377D01*
X36535Y36450D01*
X36462Y36506D01*
X36376Y36541D01*
X36285Y36553D01*
D02*
G37*
G36*
X22285D02*
X22115D01*
X22024Y36541D01*
X21938Y36506D01*
X21865Y36450D01*
X21809Y36377D01*
X21774Y36291D01*
X21762Y36200D01*
X21774Y36109D01*
X21809Y36023D01*
X21865Y35950D01*
X21938Y35894D01*
X22024Y35859D01*
X22115Y35847D01*
X22285D01*
X22376Y35859D01*
X22462Y35894D01*
X22535Y35950D01*
X22591Y36023D01*
X22626Y36109D01*
X22638Y36200D01*
X22626Y36291D01*
X22591Y36377D01*
X22535Y36450D01*
X22462Y36506D01*
X22376Y36541D01*
X22285Y36553D01*
D02*
G37*
G36*
X27970Y36264D02*
X27888Y36248D01*
X27819Y36201D01*
X27772Y36132D01*
X27756Y36050D01*
X27772Y35968D01*
X27819Y35899D01*
X27888Y35852D01*
X27970Y35836D01*
X28052Y35852D01*
X28121Y35899D01*
X28168Y35968D01*
X28184Y36050D01*
X28168Y36132D01*
X28121Y36201D01*
X28052Y36248D01*
X27970Y36264D01*
D02*
G37*
G36*
X35285Y36553D02*
X35115D01*
X35024Y36541D01*
X34938Y36506D01*
X34865Y36450D01*
X34809Y36377D01*
X34774Y36291D01*
X34762Y36200D01*
X34774Y36109D01*
X34809Y36023D01*
X34865Y35950D01*
X34938Y35894D01*
X35024Y35859D01*
X35115Y35847D01*
X35285D01*
X35376Y35859D01*
X35462Y35894D01*
X35535Y35950D01*
X35591Y36023D01*
X35626Y36109D01*
X35638Y36200D01*
X35626Y36291D01*
X35591Y36377D01*
X35535Y36450D01*
X35462Y36506D01*
X35376Y36541D01*
X35285Y36553D01*
D02*
G37*
G36*
X23285D02*
X23115D01*
X23024Y36541D01*
X22938Y36506D01*
X22865Y36450D01*
X22809Y36377D01*
X22774Y36291D01*
X22762Y36200D01*
X22774Y36109D01*
X22809Y36023D01*
X22865Y35950D01*
X22938Y35894D01*
X23024Y35859D01*
X23115Y35847D01*
X23285D01*
X23376Y35859D01*
X23462Y35894D01*
X23535Y35950D01*
X23591Y36023D01*
X23626Y36109D01*
X23638Y36200D01*
X23626Y36291D01*
X23591Y36377D01*
X23535Y36450D01*
X23462Y36506D01*
X23376Y36541D01*
X23285Y36553D01*
D02*
G37*
G36*
X27400Y35114D02*
X27318Y35098D01*
X27249Y35051D01*
X27202Y34982D01*
X27186Y34900D01*
X27202Y34818D01*
X27249Y34749D01*
X27318Y34702D01*
X27400Y34686D01*
X27482Y34702D01*
X27551Y34749D01*
X27598Y34818D01*
X27614Y34900D01*
X27598Y34982D01*
X27551Y35051D01*
X27482Y35098D01*
X27400Y35114D01*
D02*
G37*
G36*
X28840Y33955D02*
X28645D01*
Y33760D01*
X28693Y33769D01*
X28776Y33824D01*
X28831Y33907D01*
X28840Y33955D01*
D02*
G37*
G36*
X28545D02*
X28350D01*
X28360Y33907D01*
X28415Y33824D01*
X28498Y33769D01*
X28545Y33760D01*
Y33955D01*
D02*
G37*
G36*
X36672Y34150D02*
X36250D01*
Y33807D01*
X36285D01*
X36387Y33820D01*
X36482Y33859D01*
X36563Y33922D01*
X36626Y34003D01*
X36665Y34098D01*
X36672Y34150D01*
D02*
G37*
G36*
X36150D02*
X35728D01*
X35735Y34098D01*
X35774Y34003D01*
X35837Y33922D01*
X35918Y33859D01*
X36013Y33820D01*
X36115Y33807D01*
X36150D01*
Y34150D01*
D02*
G37*
G36*
X27670Y34064D02*
X27588Y34048D01*
X27519Y34001D01*
X27472Y33932D01*
X27456Y33850D01*
X27472Y33768D01*
X27519Y33699D01*
X27588Y33652D01*
X27670Y33636D01*
X27752Y33652D01*
X27821Y33699D01*
X27868Y33768D01*
X27884Y33850D01*
X27868Y33932D01*
X27821Y34001D01*
X27752Y34048D01*
X27670Y34064D01*
D02*
G37*
G36*
X35285Y33553D02*
X35115D01*
X35024Y33541D01*
X34938Y33506D01*
X34865Y33450D01*
X34809Y33377D01*
X34774Y33291D01*
X34762Y33200D01*
X34774Y33109D01*
X34809Y33023D01*
X34865Y32950D01*
X34938Y32894D01*
X35024Y32859D01*
X35115Y32847D01*
X35285D01*
X35376Y32859D01*
X35462Y32894D01*
X35535Y32950D01*
X35591Y33023D01*
X35626Y33109D01*
X35638Y33200D01*
X35626Y33291D01*
X35591Y33377D01*
X35535Y33450D01*
X35462Y33506D01*
X35376Y33541D01*
X35285Y33553D01*
D02*
G37*
G36*
X23285D02*
X23115D01*
X23024Y33541D01*
X22938Y33506D01*
X22865Y33450D01*
X22809Y33377D01*
X22774Y33291D01*
X22762Y33200D01*
X22774Y33109D01*
X22809Y33023D01*
X22865Y32950D01*
X22938Y32894D01*
X23024Y32859D01*
X23115Y32847D01*
X23285D01*
X23376Y32859D01*
X23462Y32894D01*
X23535Y32950D01*
X23591Y33023D01*
X23626Y33109D01*
X23638Y33200D01*
X23626Y33291D01*
X23591Y33377D01*
X23535Y33450D01*
X23462Y33506D01*
X23376Y33541D01*
X23285Y33553D01*
D02*
G37*
G36*
X26920Y33384D02*
X26838Y33368D01*
X26769Y33321D01*
X26722Y33252D01*
X26706Y33170D01*
X26722Y33088D01*
X26769Y33019D01*
X26838Y32972D01*
X26920Y32956D01*
X27002Y32972D01*
X27071Y33019D01*
X27118Y33088D01*
X27134Y33170D01*
X27118Y33252D01*
X27071Y33321D01*
X27002Y33368D01*
X26920Y33384D01*
D02*
G37*
G36*
X36285Y33553D02*
X36115D01*
X36024Y33541D01*
X35938Y33506D01*
X35865Y33450D01*
X35809Y33377D01*
X35774Y33291D01*
X35762Y33200D01*
X35774Y33109D01*
X35809Y33023D01*
X35865Y32950D01*
X35938Y32894D01*
X36024Y32859D01*
X36115Y32847D01*
X36285D01*
X36376Y32859D01*
X36462Y32894D01*
X36535Y32950D01*
X36591Y33023D01*
X36626Y33109D01*
X36638Y33200D01*
X36626Y33291D01*
X36591Y33377D01*
X36535Y33450D01*
X36462Y33506D01*
X36376Y33541D01*
X36285Y33553D01*
D02*
G37*
G36*
X22285Y34553D02*
X22115D01*
X22024Y34541D01*
X21938Y34506D01*
X21865Y34450D01*
X21809Y34377D01*
X21774Y34291D01*
X21762Y34200D01*
X21774Y34109D01*
X21809Y34023D01*
X21865Y33950D01*
X21938Y33894D01*
X22024Y33859D01*
X22115Y33847D01*
X22285D01*
X22376Y33859D01*
X22462Y33894D01*
X22535Y33950D01*
X22591Y34023D01*
X22626Y34109D01*
X22638Y34200D01*
X22626Y34291D01*
X22591Y34377D01*
X22535Y34450D01*
X22462Y34506D01*
X22376Y34541D01*
X22285Y34553D01*
D02*
G37*
G36*
X34450Y34664D02*
X34368Y34648D01*
X34299Y34601D01*
X34252Y34532D01*
X34236Y34450D01*
X34252Y34368D01*
X34299Y34299D01*
X34368Y34252D01*
X34450Y34236D01*
X34532Y34252D01*
X34601Y34299D01*
X34648Y34368D01*
X34664Y34450D01*
X34648Y34532D01*
X34601Y34601D01*
X34532Y34648D01*
X34450Y34664D01*
D02*
G37*
G36*
X28645Y34250D02*
Y34055D01*
X28840D01*
X28831Y34102D01*
X28776Y34185D01*
X28693Y34240D01*
X28645Y34250D01*
D02*
G37*
G36*
X36285Y34593D02*
X36250D01*
Y34250D01*
X36672D01*
X36665Y34302D01*
X36626Y34397D01*
X36563Y34478D01*
X36482Y34541D01*
X36387Y34580D01*
X36285Y34593D01*
D02*
G37*
G36*
X36150D02*
X36115D01*
X36013Y34580D01*
X35918Y34541D01*
X35837Y34478D01*
X35774Y34397D01*
X35735Y34302D01*
X35728Y34250D01*
X36150D01*
Y34593D01*
D02*
G37*
G36*
X28545Y34250D02*
X28498Y34240D01*
X28415Y34185D01*
X28360Y34102D01*
X28350Y34055D01*
X28545D01*
Y34250D01*
D02*
G37*
G36*
X35285Y34553D02*
X35115D01*
X35024Y34541D01*
X34938Y34506D01*
X34865Y34450D01*
X34809Y34377D01*
X34774Y34291D01*
X34762Y34200D01*
X34774Y34109D01*
X34809Y34023D01*
X34865Y33950D01*
X34938Y33894D01*
X35024Y33859D01*
X35115Y33847D01*
X35285D01*
X35376Y33859D01*
X35462Y33894D01*
X35535Y33950D01*
X35591Y34023D01*
X35626Y34109D01*
X35638Y34200D01*
X35626Y34291D01*
X35591Y34377D01*
X35535Y34450D01*
X35462Y34506D01*
X35376Y34541D01*
X35285Y34553D01*
D02*
G37*
G36*
X23285D02*
X23115D01*
X23024Y34541D01*
X22938Y34506D01*
X22865Y34450D01*
X22809Y34377D01*
X22774Y34291D01*
X22762Y34200D01*
X22774Y34109D01*
X22809Y34023D01*
X22865Y33950D01*
X22938Y33894D01*
X23024Y33859D01*
X23115Y33847D01*
X23285D01*
X23376Y33859D01*
X23462Y33894D01*
X23535Y33950D01*
X23591Y34023D01*
X23626Y34109D01*
X23638Y34200D01*
X23626Y34291D01*
X23591Y34377D01*
X23535Y34450D01*
X23462Y34506D01*
X23376Y34541D01*
X23285Y34553D01*
D02*
G37*
G36*
X26950Y34414D02*
X26868Y34398D01*
X26799Y34351D01*
X26752Y34282D01*
X26736Y34200D01*
X26752Y34118D01*
X26799Y34049D01*
X26868Y34002D01*
X26950Y33986D01*
X27032Y34002D01*
X27101Y34049D01*
X27148Y34118D01*
X27164Y34200D01*
X27148Y34282D01*
X27101Y34351D01*
X27032Y34398D01*
X26950Y34414D01*
D02*
G37*
G36*
X31050Y34364D02*
X30968Y34348D01*
X30899Y34301D01*
X30852Y34232D01*
X30836Y34150D01*
X30852Y34068D01*
X30899Y33999D01*
X30968Y33952D01*
X31050Y33936D01*
X31132Y33952D01*
X31201Y33999D01*
X31248Y34068D01*
X31264Y34150D01*
X31248Y34232D01*
X31201Y34301D01*
X31132Y34348D01*
X31050Y34364D01*
D02*
G37*
G36*
X32718Y39664D02*
X32636Y39648D01*
X32567Y39601D01*
X32520Y39532D01*
X32504Y39450D01*
X32520Y39368D01*
X32567Y39299D01*
X32636Y39252D01*
X32718Y39236D01*
X32800Y39252D01*
X32869Y39299D01*
X32916Y39368D01*
X32932Y39450D01*
X32916Y39532D01*
X32869Y39601D01*
X32800Y39648D01*
X32718Y39664D01*
D02*
G37*
G36*
X32138D02*
X32056Y39648D01*
X31987Y39601D01*
X31940Y39532D01*
X31924Y39450D01*
X31940Y39368D01*
X31987Y39299D01*
X32056Y39252D01*
X32138Y39236D01*
X32220Y39252D01*
X32289Y39299D01*
X32336Y39368D01*
X32352Y39450D01*
X32336Y39532D01*
X32289Y39601D01*
X32220Y39648D01*
X32138Y39664D01*
D02*
G37*
G36*
X35300Y41151D02*
X35134Y41135D01*
X34974Y41087D01*
X34827Y41008D01*
X34698Y40902D01*
X34592Y40773D01*
X34513Y40626D01*
X34465Y40466D01*
X34448Y40300D01*
X34465Y40134D01*
X34513Y39974D01*
X34592Y39827D01*
X34698Y39698D01*
X34827Y39592D01*
X34974Y39513D01*
X35134Y39465D01*
X35300Y39448D01*
X35466Y39465D01*
X35626Y39513D01*
X35773Y39592D01*
X35902Y39698D01*
X36008Y39827D01*
X36087Y39974D01*
X36135Y40134D01*
X36151Y40300D01*
X36135Y40466D01*
X36087Y40626D01*
X36008Y40773D01*
X35902Y40902D01*
X35773Y41008D01*
X35626Y41087D01*
X35466Y41135D01*
X35300Y41151D01*
D02*
G37*
G36*
X22800D02*
X22634Y41135D01*
X22474Y41087D01*
X22327Y41008D01*
X22198Y40902D01*
X22092Y40773D01*
X22013Y40626D01*
X21965Y40466D01*
X21948Y40300D01*
X21965Y40134D01*
X22013Y39974D01*
X22092Y39827D01*
X22198Y39698D01*
X22327Y39592D01*
X22474Y39513D01*
X22634Y39465D01*
X22800Y39448D01*
X22966Y39465D01*
X23126Y39513D01*
X23273Y39592D01*
X23402Y39698D01*
X23508Y39827D01*
X23587Y39974D01*
X23635Y40134D01*
X23651Y40300D01*
X23635Y40466D01*
X23587Y40626D01*
X23508Y40773D01*
X23402Y40902D01*
X23273Y41008D01*
X23126Y41087D01*
X22966Y41135D01*
X22800Y41151D01*
D02*
G37*
G36*
X23600Y39245D02*
Y39050D01*
X23795D01*
X23786Y39098D01*
X23730Y39180D01*
X23648Y39235D01*
X23600Y39245D01*
D02*
G37*
G36*
X33750Y39324D02*
X33668Y39308D01*
X33599Y39261D01*
X33552Y39192D01*
X33536Y39110D01*
X33552Y39028D01*
X33599Y38959D01*
X33668Y38912D01*
X33750Y38896D01*
X33832Y38912D01*
X33901Y38959D01*
X33948Y39028D01*
X33964Y39110D01*
X33948Y39192D01*
X33901Y39261D01*
X33832Y39308D01*
X33750Y39324D01*
D02*
G37*
G36*
X23795Y38950D02*
X23600D01*
Y38755D01*
X23648Y38765D01*
X23730Y38820D01*
X23786Y38902D01*
X23795Y38950D01*
D02*
G37*
G36*
X23500Y39245D02*
X23452Y39235D01*
X23370Y39180D01*
X23314Y39098D01*
X23305Y39050D01*
X23500D01*
Y39245D01*
D02*
G37*
G36*
X36030Y39324D02*
X35948Y39308D01*
X35879Y39261D01*
X35832Y39192D01*
X35816Y39110D01*
X35832Y39028D01*
X35879Y38959D01*
X35948Y38912D01*
X36030Y38896D01*
X36112Y38912D01*
X36181Y38959D01*
X36228Y39028D01*
X36244Y39110D01*
X36228Y39192D01*
X36181Y39261D01*
X36112Y39308D01*
X36030Y39324D01*
D02*
G37*
G36*
X30200Y39900D02*
X30005D01*
X30015Y39852D01*
X30070Y39770D01*
X30152Y39715D01*
X30200Y39705D01*
Y39900D01*
D02*
G37*
G36*
X29447Y40648D02*
X29252D01*
Y40453D01*
X29300Y40463D01*
X29382Y40518D01*
X29437Y40600D01*
X29447Y40648D01*
D02*
G37*
G36*
X29152D02*
X28957D01*
X28966Y40600D01*
X29022Y40518D01*
X29104Y40463D01*
X29152Y40453D01*
Y40648D01*
D02*
G37*
G36*
X29252Y40943D02*
Y40748D01*
X29447D01*
X29437Y40796D01*
X29382Y40878D01*
X29300Y40934D01*
X29252Y40943D01*
D02*
G37*
G36*
X29152D02*
X29104Y40934D01*
X29022Y40878D01*
X28966Y40796D01*
X28957Y40748D01*
X29152D01*
Y40943D01*
D02*
G37*
G36*
X30300Y40195D02*
Y40000D01*
X30495D01*
X30485Y40048D01*
X30430Y40130D01*
X30348Y40185D01*
X30300Y40195D01*
D02*
G37*
G36*
X31316Y40565D02*
X31231Y40554D01*
X31152Y40521D01*
X31084Y40469D01*
X31032Y40401D01*
X30999Y40322D01*
X30988Y40237D01*
X30999Y40152D01*
X31032Y40073D01*
X31084Y40005D01*
X31152Y39953D01*
X31231Y39920D01*
X31316Y39909D01*
X31401Y39920D01*
X31480Y39953D01*
X31548Y40005D01*
X31600Y40073D01*
X31632Y40152D01*
X31644Y40237D01*
X31632Y40322D01*
X31600Y40401D01*
X31548Y40469D01*
X31480Y40521D01*
X31401Y40554D01*
X31316Y40565D01*
D02*
G37*
G36*
X30495Y39900D02*
X30300D01*
Y39705D01*
X30348Y39715D01*
X30430Y39770D01*
X30485Y39852D01*
X30495Y39900D01*
D02*
G37*
G36*
X30200Y40195D02*
X30152Y40185D01*
X30070Y40130D01*
X30015Y40048D01*
X30005Y40000D01*
X30200D01*
Y40195D01*
D02*
G37*
G36*
X33284Y40565D02*
X33199Y40554D01*
X33120Y40521D01*
X33052Y40469D01*
X33000Y40401D01*
X32968Y40322D01*
X32956Y40237D01*
X32968Y40152D01*
X33000Y40073D01*
X33052Y40005D01*
X33120Y39953D01*
X33199Y39920D01*
X33284Y39909D01*
X33369Y39920D01*
X33448Y39953D01*
X33516Y40005D01*
X33568Y40073D01*
X33601Y40152D01*
X33612Y40237D01*
X33601Y40322D01*
X33568Y40401D01*
X33516Y40469D01*
X33448Y40521D01*
X33369Y40554D01*
X33284Y40565D01*
D02*
G37*
G36*
X23500Y38950D02*
X23305D01*
X23314Y38902D01*
X23370Y38820D01*
X23452Y38765D01*
X23500Y38755D01*
Y38950D01*
D02*
G37*
G36*
X33200Y36964D02*
X33118Y36948D01*
X33049Y36901D01*
X33002Y36832D01*
X32986Y36750D01*
X33002Y36668D01*
X33049Y36599D01*
X33118Y36552D01*
X33200Y36536D01*
X33282Y36552D01*
X33351Y36599D01*
X33398Y36668D01*
X33414Y36750D01*
X33398Y36832D01*
X33351Y36901D01*
X33282Y36948D01*
X33200Y36964D01*
D02*
G37*
G36*
X28750Y36814D02*
X28668Y36798D01*
X28599Y36751D01*
X28552Y36682D01*
X28536Y36600D01*
X28552Y36518D01*
X28599Y36449D01*
X28668Y36402D01*
X28750Y36386D01*
X28832Y36402D01*
X28901Y36449D01*
X28948Y36518D01*
X28964Y36600D01*
X28948Y36682D01*
X28901Y36751D01*
X28832Y36798D01*
X28750Y36814D01*
D02*
G37*
G36*
X25150Y36922D02*
Y36550D01*
X25522D01*
X25514Y36611D01*
X25471Y36714D01*
X25403Y36803D01*
X25314Y36871D01*
X25211Y36914D01*
X25150Y36922D01*
D02*
G37*
G36*
X25050D02*
X24989Y36914D01*
X24886Y36871D01*
X24797Y36803D01*
X24729Y36714D01*
X24686Y36611D01*
X24678Y36550D01*
X25050D01*
Y36922D01*
D02*
G37*
G36*
X26950Y36345D02*
Y36150D01*
X27145D01*
X27135Y36198D01*
X27080Y36280D01*
X26998Y36335D01*
X26950Y36345D01*
D02*
G37*
G36*
X33750Y36544D02*
X33668Y36528D01*
X33599Y36481D01*
X33552Y36412D01*
X33536Y36330D01*
X33552Y36248D01*
X33599Y36179D01*
X33668Y36132D01*
X33750Y36116D01*
X33832Y36132D01*
X33901Y36179D01*
X33948Y36248D01*
X33964Y36330D01*
X33948Y36412D01*
X33901Y36481D01*
X33832Y36528D01*
X33750Y36544D01*
D02*
G37*
G36*
X32250Y36514D02*
X32168Y36498D01*
X32099Y36451D01*
X32052Y36382D01*
X32036Y36300D01*
X32052Y36218D01*
X32099Y36149D01*
X32168Y36102D01*
X32250Y36086D01*
X32332Y36102D01*
X32401Y36149D01*
X32448Y36218D01*
X32464Y36300D01*
X32448Y36382D01*
X32401Y36451D01*
X32332Y36498D01*
X32250Y36514D01*
D02*
G37*
G36*
X26850Y36345D02*
X26802Y36335D01*
X26720Y36280D01*
X26665Y36198D01*
X26655Y36150D01*
X26850D01*
Y36345D01*
D02*
G37*
G36*
X31650Y36564D02*
X31568Y36548D01*
X31499Y36501D01*
X31452Y36432D01*
X31436Y36350D01*
X31452Y36268D01*
X31499Y36199D01*
X31568Y36152D01*
X31650Y36136D01*
X31732Y36152D01*
X31801Y36199D01*
X31848Y36268D01*
X31864Y36350D01*
X31848Y36432D01*
X31801Y36501D01*
X31732Y36548D01*
X31650Y36564D01*
D02*
G37*
G36*
X22430Y37554D02*
X21970D01*
X21890Y37538D01*
X21822Y37493D01*
X21777Y37425D01*
X21761Y37345D01*
Y37055D01*
X21777Y36975D01*
X21822Y36907D01*
X21890Y36862D01*
X21970Y36846D01*
X22430D01*
X22510Y36862D01*
X22578Y36907D01*
X22623Y36975D01*
X22639Y37055D01*
Y37345D01*
X22623Y37425D01*
X22578Y37493D01*
X22510Y37538D01*
X22430Y37554D01*
D02*
G37*
G36*
X27750Y38414D02*
X27668Y38398D01*
X27599Y38351D01*
X27552Y38282D01*
X27536Y38200D01*
X27552Y38118D01*
X27599Y38049D01*
X27668Y38002D01*
X27750Y37986D01*
X27832Y38002D01*
X27901Y38049D01*
X27948Y38118D01*
X27964Y38200D01*
X27948Y38282D01*
X27901Y38351D01*
X27832Y38398D01*
X27750Y38414D01*
D02*
G37*
G36*
X25100Y38488D02*
X24999Y38475D01*
X24906Y38436D01*
X24825Y38375D01*
X24764Y38294D01*
X24725Y38201D01*
X24712Y38100D01*
X24725Y37999D01*
X24764Y37906D01*
X24825Y37825D01*
X24906Y37764D01*
X24999Y37725D01*
X25100Y37712D01*
X25201Y37725D01*
X25294Y37764D01*
X25375Y37825D01*
X25436Y37906D01*
X25475Y37999D01*
X25488Y38100D01*
X25475Y38201D01*
X25436Y38294D01*
X25375Y38375D01*
X25294Y38436D01*
X25201Y38475D01*
X25100Y38488D01*
D02*
G37*
G36*
X26383Y39031D02*
X26302Y39014D01*
X26232Y38968D01*
X26186Y38898D01*
X26169Y38817D01*
X26186Y38735D01*
X26232Y38665D01*
X26302Y38619D01*
X26383Y38602D01*
X26465Y38619D01*
X26535Y38665D01*
X26581Y38735D01*
X26598Y38817D01*
X26581Y38898D01*
X26535Y38968D01*
X26465Y39014D01*
X26383Y39031D01*
D02*
G37*
G36*
X24150Y39014D02*
X24068Y38998D01*
X23999Y38951D01*
X23952Y38882D01*
X23936Y38800D01*
X23952Y38718D01*
X23999Y38649D01*
X24068Y38602D01*
X24150Y38586D01*
X24232Y38602D01*
X24301Y38649D01*
X24348Y38718D01*
X24364Y38800D01*
X24348Y38882D01*
X24301Y38951D01*
X24232Y38998D01*
X24150Y39014D01*
D02*
G37*
G36*
X35750Y38114D02*
X35668Y38098D01*
X35599Y38051D01*
X35552Y37982D01*
X35536Y37900D01*
X35552Y37818D01*
X35599Y37749D01*
X35668Y37702D01*
X35750Y37686D01*
X35832Y37702D01*
X35901Y37749D01*
X35948Y37818D01*
X35964Y37900D01*
X35948Y37982D01*
X35901Y38051D01*
X35832Y38098D01*
X35750Y38114D01*
D02*
G37*
G36*
X35430Y37554D02*
X34970D01*
X34890Y37538D01*
X34822Y37493D01*
X34777Y37425D01*
X34761Y37345D01*
Y37055D01*
X34777Y36975D01*
X34822Y36907D01*
X34890Y36862D01*
X34970Y36846D01*
X35430D01*
X35510Y36862D01*
X35578Y36907D01*
X35623Y36975D01*
X35639Y37055D01*
Y37345D01*
X35623Y37425D01*
X35578Y37493D01*
X35510Y37538D01*
X35430Y37554D01*
D02*
G37*
G36*
X23430D02*
X22970D01*
X22890Y37538D01*
X22822Y37493D01*
X22777Y37425D01*
X22761Y37345D01*
Y37055D01*
X22777Y36975D01*
X22822Y36907D01*
X22890Y36862D01*
X22970Y36846D01*
X23430D01*
X23510Y36862D01*
X23578Y36907D01*
X23623Y36975D01*
X23639Y37055D01*
Y37345D01*
X23623Y37425D01*
X23578Y37493D01*
X23510Y37538D01*
X23430Y37554D01*
D02*
G37*
G36*
X28150Y37514D02*
X28068Y37498D01*
X27999Y37451D01*
X27952Y37382D01*
X27936Y37300D01*
X27952Y37218D01*
X27999Y37149D01*
X28068Y37102D01*
X28150Y37086D01*
X28232Y37102D01*
X28301Y37149D01*
X28348Y37218D01*
X28364Y37300D01*
X28348Y37382D01*
X28301Y37451D01*
X28232Y37498D01*
X28150Y37514D01*
D02*
G37*
G36*
X36430Y37554D02*
X35970D01*
X35890Y37538D01*
X35822Y37493D01*
X35777Y37425D01*
X35761Y37345D01*
Y37055D01*
X35777Y36975D01*
X35822Y36907D01*
X35890Y36862D01*
X35970Y36846D01*
X36430D01*
X36510Y36862D01*
X36578Y36907D01*
X36623Y36975D01*
X36639Y37055D01*
Y37345D01*
X36623Y37425D01*
X36578Y37493D01*
X36510Y37538D01*
X36430Y37554D01*
D02*
G37*
G36*
X22285Y33553D02*
X22115D01*
X22024Y33541D01*
X21938Y33506D01*
X21865Y33450D01*
X21809Y33377D01*
X21774Y33291D01*
X21762Y33200D01*
X21774Y33109D01*
X21809Y33023D01*
X21865Y32950D01*
X21938Y32894D01*
X22024Y32859D01*
X22115Y32847D01*
X22285D01*
X22376Y32859D01*
X22462Y32894D01*
X22535Y32950D01*
X22591Y33023D01*
X22626Y33109D01*
X22638Y33200D01*
X22626Y33291D01*
X22591Y33377D01*
X22535Y33450D01*
X22462Y33506D01*
X22376Y33541D01*
X22285Y33553D01*
D02*
G37*
G36*
X33369Y29601D02*
X33287Y29585D01*
X33217Y29539D01*
X33171Y29469D01*
X33154Y29387D01*
X33171Y29305D01*
X33217Y29236D01*
X33287Y29189D01*
X33369Y29173D01*
X33450Y29189D01*
X33520Y29236D01*
X33566Y29305D01*
X33583Y29387D01*
X33566Y29469D01*
X33520Y29539D01*
X33450Y29585D01*
X33369Y29601D01*
D02*
G37*
G36*
X26150Y29514D02*
X26068Y29498D01*
X25999Y29451D01*
X25952Y29382D01*
X25936Y29300D01*
X25952Y29218D01*
X25999Y29149D01*
X26068Y29102D01*
X26150Y29086D01*
X26232Y29102D01*
X26301Y29149D01*
X26348Y29218D01*
X26364Y29300D01*
X26348Y29382D01*
X26301Y29451D01*
X26232Y29498D01*
X26150Y29514D01*
D02*
G37*
G36*
X27750Y29565D02*
X27702Y29555D01*
X27620Y29500D01*
X27564Y29418D01*
X27555Y29370D01*
X27750D01*
Y29565D01*
D02*
G37*
G36*
X29030Y29754D02*
X28948Y29738D01*
X28879Y29691D01*
X28832Y29622D01*
X28816Y29540D01*
X28832Y29458D01*
X28879Y29389D01*
X28948Y29342D01*
X29030Y29326D01*
X29112Y29342D01*
X29181Y29389D01*
X29228Y29458D01*
X29244Y29540D01*
X29228Y29622D01*
X29181Y29691D01*
X29112Y29738D01*
X29030Y29754D01*
D02*
G37*
G36*
X28045Y29270D02*
X27850D01*
Y29075D01*
X27898Y29084D01*
X27980Y29140D01*
X28036Y29222D01*
X28045Y29270D01*
D02*
G37*
G36*
X28430Y29384D02*
X28348Y29368D01*
X28279Y29321D01*
X28232Y29252D01*
X28216Y29170D01*
X28232Y29088D01*
X28279Y29019D01*
X28348Y28972D01*
X28430Y28956D01*
X28512Y28972D01*
X28581Y29019D01*
X28628Y29088D01*
X28644Y29170D01*
X28628Y29252D01*
X28581Y29321D01*
X28512Y29368D01*
X28430Y29384D01*
D02*
G37*
G36*
X36285Y29553D02*
X36115D01*
X36024Y29541D01*
X35938Y29506D01*
X35865Y29450D01*
X35809Y29377D01*
X35774Y29291D01*
X35762Y29200D01*
X35774Y29109D01*
X35809Y29023D01*
X35865Y28950D01*
X35938Y28894D01*
X36024Y28859D01*
X36115Y28847D01*
X36285D01*
X36376Y28859D01*
X36462Y28894D01*
X36535Y28950D01*
X36591Y29023D01*
X36626Y29109D01*
X36638Y29200D01*
X36626Y29291D01*
X36591Y29377D01*
X36535Y29450D01*
X36462Y29506D01*
X36376Y29541D01*
X36285Y29553D01*
D02*
G37*
G36*
X27750Y29270D02*
X27555D01*
X27564Y29222D01*
X27620Y29140D01*
X27702Y29084D01*
X27750Y29075D01*
Y29270D01*
D02*
G37*
G36*
X27100Y29414D02*
X27018Y29398D01*
X26949Y29351D01*
X26902Y29282D01*
X26886Y29200D01*
X26902Y29118D01*
X26949Y29049D01*
X27018Y29002D01*
X27100Y28986D01*
X27182Y29002D01*
X27251Y29049D01*
X27298Y29118D01*
X27314Y29200D01*
X27298Y29282D01*
X27251Y29351D01*
X27182Y29398D01*
X27100Y29414D01*
D02*
G37*
G36*
X27850Y29565D02*
Y29370D01*
X28045D01*
X28036Y29418D01*
X27980Y29500D01*
X27898Y29555D01*
X27850Y29565D01*
D02*
G37*
G36*
X32950Y30100D02*
X32755D01*
X32764Y30052D01*
X32820Y29970D01*
X32902Y29915D01*
X32950Y29905D01*
Y30100D01*
D02*
G37*
G36*
X35285Y30553D02*
X35115D01*
X35024Y30541D01*
X34938Y30506D01*
X34865Y30450D01*
X34809Y30377D01*
X34774Y30291D01*
X34762Y30200D01*
X34774Y30109D01*
X34809Y30023D01*
X34865Y29950D01*
X34938Y29894D01*
X35024Y29859D01*
X35115Y29847D01*
X35285D01*
X35376Y29859D01*
X35462Y29894D01*
X35535Y29950D01*
X35591Y30023D01*
X35626Y30109D01*
X35638Y30200D01*
X35626Y30291D01*
X35591Y30377D01*
X35535Y30450D01*
X35462Y30506D01*
X35376Y30541D01*
X35285Y30553D01*
D02*
G37*
G36*
X33690Y31073D02*
X33609Y31062D01*
X33534Y31031D01*
X33469Y30981D01*
X33419Y30916D01*
X33388Y30841D01*
X33377Y30760D01*
X33388Y30679D01*
X33419Y30604D01*
X33469Y30539D01*
X33534Y30489D01*
X33609Y30458D01*
X33642Y30454D01*
X33644Y30403D01*
X33618Y30398D01*
X33549Y30351D01*
X33502Y30282D01*
X33486Y30200D01*
X33502Y30118D01*
X33549Y30049D01*
X33618Y30002D01*
X33700Y29986D01*
X33782Y30002D01*
X33851Y30049D01*
X33898Y30118D01*
X33914Y30200D01*
X33898Y30282D01*
X33851Y30351D01*
X33782Y30398D01*
X33748Y30405D01*
X33750Y30455D01*
X33771Y30458D01*
X33846Y30489D01*
X33911Y30539D01*
X33961Y30604D01*
X33992Y30679D01*
X34003Y30760D01*
X33992Y30841D01*
X33961Y30916D01*
X33911Y30981D01*
X33846Y31031D01*
X33771Y31062D01*
X33690Y31073D01*
D02*
G37*
G36*
X33245Y30100D02*
X33050D01*
Y29905D01*
X33098Y29915D01*
X33180Y29970D01*
X33235Y30052D01*
X33245Y30100D01*
D02*
G37*
G36*
X23285Y30553D02*
X23115D01*
X23024Y30541D01*
X22938Y30506D01*
X22865Y30450D01*
X22809Y30377D01*
X22774Y30291D01*
X22762Y30200D01*
X22774Y30109D01*
X22809Y30023D01*
X22865Y29950D01*
X22938Y29894D01*
X23024Y29859D01*
X23115Y29847D01*
X23285D01*
X23376Y29859D01*
X23462Y29894D01*
X23535Y29950D01*
X23591Y30023D01*
X23626Y30109D01*
X23638Y30200D01*
X23626Y30291D01*
X23591Y30377D01*
X23535Y30450D01*
X23462Y30506D01*
X23376Y30541D01*
X23285Y30553D01*
D02*
G37*
G36*
X36150Y30150D02*
X35728D01*
X35735Y30098D01*
X35774Y30003D01*
X35837Y29922D01*
X35918Y29859D01*
X36013Y29820D01*
X36115Y29807D01*
X36150D01*
Y30150D01*
D02*
G37*
G36*
X24950Y30064D02*
X24868Y30048D01*
X24799Y30001D01*
X24752Y29932D01*
X24736Y29850D01*
X24752Y29768D01*
X24799Y29699D01*
X24868Y29652D01*
X24950Y29636D01*
X25032Y29652D01*
X25101Y29699D01*
X25148Y29768D01*
X25164Y29850D01*
X25148Y29932D01*
X25101Y30001D01*
X25032Y30048D01*
X24950Y30064D01*
D02*
G37*
G36*
X22285Y30553D02*
X22115D01*
X22024Y30541D01*
X21938Y30506D01*
X21865Y30450D01*
X21809Y30377D01*
X21774Y30291D01*
X21762Y30200D01*
X21774Y30109D01*
X21809Y30023D01*
X21865Y29950D01*
X21938Y29894D01*
X22024Y29859D01*
X22115Y29847D01*
X22285D01*
X22376Y29859D01*
X22462Y29894D01*
X22535Y29950D01*
X22591Y30023D01*
X22626Y30109D01*
X22638Y30200D01*
X22626Y30291D01*
X22591Y30377D01*
X22535Y30450D01*
X22462Y30506D01*
X22376Y30541D01*
X22285Y30553D01*
D02*
G37*
G36*
X36672Y30150D02*
X36250D01*
Y29807D01*
X36285D01*
X36387Y29820D01*
X36482Y29859D01*
X36563Y29922D01*
X36626Y30003D01*
X36665Y30098D01*
X36672Y30150D01*
D02*
G37*
G36*
X35285Y29553D02*
X35115D01*
X35024Y29541D01*
X34938Y29506D01*
X34865Y29450D01*
X34809Y29377D01*
X34774Y29291D01*
X34762Y29200D01*
X34774Y29109D01*
X34809Y29023D01*
X34865Y28950D01*
X34938Y28894D01*
X35024Y28859D01*
X35115Y28847D01*
X35285D01*
X35376Y28859D01*
X35462Y28894D01*
X35535Y28950D01*
X35591Y29023D01*
X35626Y29109D01*
X35638Y29200D01*
X35626Y29291D01*
X35591Y29377D01*
X35535Y29450D01*
X35462Y29506D01*
X35376Y29541D01*
X35285Y29553D01*
D02*
G37*
G36*
X31406Y28608D02*
X31324Y28592D01*
X31254Y28546D01*
X31208Y28476D01*
X31192Y28394D01*
X31208Y28312D01*
X31254Y28243D01*
X31324Y28196D01*
X31406Y28180D01*
X31488Y28196D01*
X31557Y28243D01*
X31604Y28312D01*
X31620Y28394D01*
X31604Y28476D01*
X31557Y28546D01*
X31488Y28592D01*
X31406Y28608D01*
D02*
G37*
G36*
X32000Y28564D02*
X31918Y28548D01*
X31849Y28501D01*
X31802Y28432D01*
X31786Y28350D01*
X31802Y28268D01*
X31849Y28199D01*
X31918Y28152D01*
X32000Y28136D01*
X32082Y28152D01*
X32151Y28199D01*
X32198Y28268D01*
X32214Y28350D01*
X32198Y28432D01*
X32151Y28501D01*
X32082Y28548D01*
X32000Y28564D01*
D02*
G37*
G36*
X34290Y28600D02*
X34095D01*
X34104Y28552D01*
X34160Y28470D01*
X34242Y28414D01*
X34290Y28405D01*
Y28600D01*
D02*
G37*
G36*
X28730Y28774D02*
X28648Y28758D01*
X28579Y28711D01*
X28532Y28642D01*
X28516Y28560D01*
X28532Y28478D01*
X28579Y28409D01*
X28648Y28362D01*
X28730Y28346D01*
X28812Y28362D01*
X28881Y28409D01*
X28928Y28478D01*
X28944Y28560D01*
X28928Y28642D01*
X28881Y28711D01*
X28812Y28758D01*
X28730Y28774D01*
D02*
G37*
G36*
X30650Y28364D02*
X30568Y28348D01*
X30499Y28301D01*
X30452Y28232D01*
X30436Y28150D01*
X30452Y28068D01*
X30499Y27999D01*
X30568Y27952D01*
X30650Y27936D01*
X30732Y27952D01*
X30801Y27999D01*
X30848Y28068D01*
X30864Y28150D01*
X30848Y28232D01*
X30801Y28301D01*
X30732Y28348D01*
X30650Y28364D01*
D02*
G37*
G36*
X23310Y28553D02*
X23090D01*
X22999Y28541D01*
X22913Y28506D01*
X22840Y28450D01*
X22784Y28377D01*
X22749Y28291D01*
X22737Y28200D01*
X22749Y28109D01*
X22784Y28023D01*
X22840Y27950D01*
X22913Y27894D01*
X22999Y27859D01*
X23090Y27847D01*
X23310D01*
X23401Y27859D01*
X23487Y27894D01*
X23560Y27950D01*
X23616Y28023D01*
X23651Y28109D01*
X23663Y28200D01*
X23651Y28291D01*
X23616Y28377D01*
X23560Y28450D01*
X23487Y28506D01*
X23401Y28541D01*
X23310Y28553D01*
D02*
G37*
G36*
X28734Y27974D02*
Y27779D01*
X28929D01*
X28919Y27827D01*
X28864Y27909D01*
X28781Y27965D01*
X28734Y27974D01*
D02*
G37*
G36*
X36310Y28553D02*
X36090D01*
X35999Y28541D01*
X35913Y28506D01*
X35840Y28450D01*
X35784Y28377D01*
X35749Y28291D01*
X35737Y28200D01*
X35749Y28109D01*
X35784Y28023D01*
X35840Y27950D01*
X35913Y27894D01*
X35999Y27859D01*
X36090Y27847D01*
X36310D01*
X36401Y27859D01*
X36487Y27894D01*
X36560Y27950D01*
X36616Y28023D01*
X36651Y28109D01*
X36663Y28200D01*
X36651Y28291D01*
X36616Y28377D01*
X36560Y28450D01*
X36487Y28506D01*
X36401Y28541D01*
X36310Y28553D01*
D02*
G37*
G36*
X35310D02*
X35090D01*
X34999Y28541D01*
X34913Y28506D01*
X34840Y28450D01*
X34784Y28377D01*
X34749Y28291D01*
X34737Y28200D01*
X34749Y28109D01*
X34784Y28023D01*
X34840Y27950D01*
X34913Y27894D01*
X34999Y27859D01*
X35090Y27847D01*
X35310D01*
X35401Y27859D01*
X35487Y27894D01*
X35560Y27950D01*
X35616Y28023D01*
X35651Y28109D01*
X35663Y28200D01*
X35651Y28291D01*
X35616Y28377D01*
X35560Y28450D01*
X35487Y28506D01*
X35401Y28541D01*
X35310Y28553D01*
D02*
G37*
G36*
X34585Y28600D02*
X34390D01*
Y28405D01*
X34438Y28414D01*
X34520Y28470D01*
X34576Y28552D01*
X34585Y28600D01*
D02*
G37*
G36*
X32350Y29214D02*
X32268Y29198D01*
X32199Y29151D01*
X32152Y29082D01*
X32136Y29000D01*
X32152Y28918D01*
X32199Y28849D01*
X32268Y28802D01*
X32350Y28786D01*
X32432Y28802D01*
X32501Y28849D01*
X32548Y28918D01*
X32564Y29000D01*
X32548Y29082D01*
X32501Y29151D01*
X32432Y29198D01*
X32350Y29214D01*
D02*
G37*
G36*
X30100D02*
X30018Y29198D01*
X29949Y29151D01*
X29902Y29082D01*
X29886Y29000D01*
X29902Y28918D01*
X29949Y28849D01*
X30018Y28802D01*
X30100Y28786D01*
X30182Y28802D01*
X30251Y28849D01*
X30298Y28918D01*
X30314Y29000D01*
X30298Y29082D01*
X30251Y29151D01*
X30182Y29198D01*
X30100Y29214D01*
D02*
G37*
G36*
X23285Y29553D02*
X23115D01*
X23024Y29541D01*
X22938Y29506D01*
X22865Y29450D01*
X22809Y29377D01*
X22774Y29291D01*
X22762Y29200D01*
X22774Y29109D01*
X22809Y29023D01*
X22865Y28950D01*
X22938Y28894D01*
X23024Y28859D01*
X23115Y28847D01*
X23285D01*
X23376Y28859D01*
X23462Y28894D01*
X23535Y28950D01*
X23591Y29023D01*
X23626Y29109D01*
X23638Y29200D01*
X23626Y29291D01*
X23591Y29377D01*
X23535Y29450D01*
X23462Y29506D01*
X23376Y29541D01*
X23285Y29553D01*
D02*
G37*
G36*
X22285D02*
X22115D01*
X22024Y29541D01*
X21938Y29506D01*
X21865Y29450D01*
X21809Y29377D01*
X21774Y29291D01*
X21762Y29200D01*
X21774Y29109D01*
X21809Y29023D01*
X21865Y28950D01*
X21938Y28894D01*
X22024Y28859D01*
X22115Y28847D01*
X22285D01*
X22376Y28859D01*
X22462Y28894D01*
X22535Y28950D01*
X22591Y29023D01*
X22626Y29109D01*
X22638Y29200D01*
X22626Y29291D01*
X22591Y29377D01*
X22535Y29450D01*
X22462Y29506D01*
X22376Y29541D01*
X22285Y29553D01*
D02*
G37*
G36*
X30950Y29164D02*
X30868Y29148D01*
X30799Y29101D01*
X30752Y29032D01*
X30736Y28950D01*
X30752Y28868D01*
X30799Y28799D01*
X30868Y28752D01*
X30950Y28736D01*
X31032Y28752D01*
X31101Y28799D01*
X31148Y28868D01*
X31164Y28950D01*
X31148Y29032D01*
X31101Y29101D01*
X31032Y29148D01*
X30950Y29164D01*
D02*
G37*
G36*
X25200Y28964D02*
X25118Y28948D01*
X25049Y28901D01*
X25002Y28832D01*
X24986Y28750D01*
X25002Y28668D01*
X25049Y28599D01*
X25118Y28552D01*
X25200Y28536D01*
X25282Y28552D01*
X25351Y28599D01*
X25398Y28668D01*
X25414Y28750D01*
X25398Y28832D01*
X25351Y28901D01*
X25282Y28948D01*
X25200Y28964D01*
D02*
G37*
G36*
X24040Y28864D02*
X23958Y28848D01*
X23889Y28801D01*
X23842Y28732D01*
X23826Y28650D01*
X23842Y28568D01*
X23889Y28499D01*
X23958Y28452D01*
X24040Y28436D01*
X24122Y28452D01*
X24191Y28499D01*
X24238Y28568D01*
X24254Y28650D01*
X24238Y28732D01*
X24191Y28801D01*
X24122Y28848D01*
X24040Y28864D01*
D02*
G37*
G36*
X34390Y28895D02*
Y28700D01*
X34585D01*
X34576Y28748D01*
X34520Y28830D01*
X34438Y28886D01*
X34390Y28895D01*
D02*
G37*
G36*
X34290D02*
X34242Y28886D01*
X34160Y28830D01*
X34104Y28748D01*
X34095Y28700D01*
X34290D01*
Y28895D01*
D02*
G37*
G36*
Y31945D02*
Y31750D01*
X34485D01*
X34476Y31798D01*
X34420Y31880D01*
X34338Y31936D01*
X34290Y31945D01*
D02*
G37*
G36*
X34190D02*
X34142Y31936D01*
X34060Y31880D01*
X34004Y31798D01*
X33995Y31750D01*
X34190D01*
Y31945D01*
D02*
G37*
G36*
X25100Y32035D02*
Y31840D01*
X25295D01*
X25285Y31888D01*
X25230Y31970D01*
X25148Y32025D01*
X25100Y32035D01*
D02*
G37*
G36*
X25000D02*
X24952Y32025D01*
X24870Y31970D01*
X24815Y31888D01*
X24805Y31840D01*
X25000D01*
Y32035D01*
D02*
G37*
G36*
X25295Y31740D02*
X25100D01*
Y31545D01*
X25148Y31555D01*
X25230Y31610D01*
X25285Y31692D01*
X25295Y31740D01*
D02*
G37*
G36*
X34485Y31650D02*
X34290D01*
Y31455D01*
X34338Y31465D01*
X34420Y31520D01*
X34476Y31602D01*
X34485Y31650D01*
D02*
G37*
G36*
X34190D02*
X33995D01*
X34004Y31602D01*
X34060Y31520D01*
X34142Y31465D01*
X34190Y31455D01*
Y31650D01*
D02*
G37*
G36*
X25000Y31740D02*
X24805D01*
X24815Y31692D01*
X24870Y31610D01*
X24952Y31555D01*
X25000Y31545D01*
Y31740D01*
D02*
G37*
G36*
X30850Y31914D02*
X30768Y31898D01*
X30699Y31851D01*
X30652Y31782D01*
X30636Y31700D01*
X30652Y31618D01*
X30699Y31549D01*
X30768Y31502D01*
X30850Y31486D01*
X30932Y31502D01*
X31001Y31549D01*
X31048Y31618D01*
X31064Y31700D01*
X31048Y31782D01*
X31001Y31851D01*
X30932Y31898D01*
X30850Y31914D01*
D02*
G37*
G36*
X22285Y32553D02*
X22115D01*
X22024Y32541D01*
X21938Y32506D01*
X21865Y32450D01*
X21809Y32377D01*
X21774Y32291D01*
X21762Y32200D01*
X21774Y32109D01*
X21809Y32023D01*
X21865Y31950D01*
X21938Y31894D01*
X22024Y31859D01*
X22115Y31847D01*
X22285D01*
X22376Y31859D01*
X22462Y31894D01*
X22535Y31950D01*
X22591Y32023D01*
X22626Y32109D01*
X22638Y32200D01*
X22626Y32291D01*
X22591Y32377D01*
X22535Y32450D01*
X22462Y32506D01*
X22376Y32541D01*
X22285Y32553D01*
D02*
G37*
G36*
X28255Y32855D02*
X27545D01*
Y32145D01*
X28255D01*
Y32855D01*
D02*
G37*
G36*
X28900Y32858D02*
X28807Y32846D01*
X28721Y32810D01*
X28647Y32753D01*
X28590Y32679D01*
X28554Y32593D01*
X28542Y32500D01*
X28554Y32407D01*
X28590Y32321D01*
X28647Y32247D01*
X28721Y32190D01*
X28807Y32154D01*
X28900Y32142D01*
X28993Y32154D01*
X29079Y32190D01*
X29153Y32247D01*
X29210Y32321D01*
X29246Y32407D01*
X29258Y32500D01*
X29246Y32593D01*
X29210Y32679D01*
X29153Y32753D01*
X29079Y32810D01*
X28993Y32846D01*
X28900Y32858D01*
D02*
G37*
G36*
X29950Y32892D02*
Y32550D01*
X30292D01*
X30285Y32603D01*
X30245Y32699D01*
X30182Y32782D01*
X30099Y32845D01*
X30003Y32885D01*
X29950Y32892D01*
D02*
G37*
G36*
X29850D02*
X29797Y32885D01*
X29701Y32845D01*
X29618Y32782D01*
X29555Y32699D01*
X29515Y32603D01*
X29508Y32550D01*
X29850D01*
Y32892D01*
D02*
G37*
G36*
X30292Y32450D02*
X29950D01*
Y32108D01*
X30003Y32115D01*
X30099Y32155D01*
X30182Y32218D01*
X30245Y32301D01*
X30285Y32397D01*
X30292Y32450D01*
D02*
G37*
G36*
X35285Y32553D02*
X35115D01*
X35024Y32541D01*
X34938Y32506D01*
X34865Y32450D01*
X34809Y32377D01*
X34774Y32291D01*
X34762Y32200D01*
X34774Y32109D01*
X34809Y32023D01*
X34865Y31950D01*
X34938Y31894D01*
X35024Y31859D01*
X35115Y31847D01*
X35285D01*
X35376Y31859D01*
X35462Y31894D01*
X35535Y31950D01*
X35591Y32023D01*
X35626Y32109D01*
X35638Y32200D01*
X35626Y32291D01*
X35591Y32377D01*
X35535Y32450D01*
X35462Y32506D01*
X35376Y32541D01*
X35285Y32553D01*
D02*
G37*
G36*
X23285D02*
X23115D01*
X23024Y32541D01*
X22938Y32506D01*
X22865Y32450D01*
X22809Y32377D01*
X22774Y32291D01*
X22762Y32200D01*
X22774Y32109D01*
X22809Y32023D01*
X22865Y31950D01*
X22938Y31894D01*
X23024Y31859D01*
X23115Y31847D01*
X23285D01*
X23376Y31859D01*
X23462Y31894D01*
X23535Y31950D01*
X23591Y32023D01*
X23626Y32109D01*
X23638Y32200D01*
X23626Y32291D01*
X23591Y32377D01*
X23535Y32450D01*
X23462Y32506D01*
X23376Y32541D01*
X23285Y32553D01*
D02*
G37*
G36*
X29850Y32450D02*
X29508D01*
X29515Y32397D01*
X29555Y32301D01*
X29618Y32218D01*
X29701Y32155D01*
X29797Y32115D01*
X29850Y32108D01*
Y32450D01*
D02*
G37*
G36*
X36285Y32553D02*
X36115D01*
X36024Y32541D01*
X35938Y32506D01*
X35865Y32450D01*
X35809Y32377D01*
X35774Y32291D01*
X35762Y32200D01*
X35774Y32109D01*
X35809Y32023D01*
X35865Y31950D01*
X35938Y31894D01*
X36024Y31859D01*
X36115Y31847D01*
X36285D01*
X36376Y31859D01*
X36462Y31894D01*
X36535Y31950D01*
X36591Y32023D01*
X36626Y32109D01*
X36638Y32200D01*
X36626Y32291D01*
X36591Y32377D01*
X36535Y32450D01*
X36462Y32506D01*
X36376Y32541D01*
X36285Y32553D01*
D02*
G37*
G36*
X32800Y31764D02*
X32718Y31748D01*
X32649Y31701D01*
X32602Y31632D01*
X32586Y31550D01*
X32602Y31468D01*
X32649Y31399D01*
X32718Y31352D01*
X32800Y31336D01*
X32882Y31352D01*
X32951Y31399D01*
X32998Y31468D01*
X33014Y31550D01*
X32998Y31632D01*
X32951Y31701D01*
X32882Y31748D01*
X32800Y31764D01*
D02*
G37*
G36*
X25300Y30964D02*
X25218Y30948D01*
X25149Y30901D01*
X25102Y30832D01*
X25086Y30750D01*
X25102Y30668D01*
X25149Y30599D01*
X25218Y30552D01*
X25300Y30536D01*
X25382Y30552D01*
X25451Y30599D01*
X25498Y30668D01*
X25514Y30750D01*
X25498Y30832D01*
X25451Y30901D01*
X25382Y30948D01*
X25300Y30964D01*
D02*
G37*
G36*
X24140Y30944D02*
X24058Y30928D01*
X23989Y30881D01*
X23942Y30812D01*
X23926Y30730D01*
X23942Y30648D01*
X23989Y30579D01*
X24058Y30532D01*
X24140Y30516D01*
X24222Y30532D01*
X24291Y30579D01*
X24338Y30648D01*
X24354Y30730D01*
X24338Y30812D01*
X24291Y30881D01*
X24222Y30928D01*
X24140Y30944D01*
D02*
G37*
G36*
X30245Y30750D02*
X30050D01*
Y30555D01*
X30098Y30564D01*
X30180Y30620D01*
X30236Y30702D01*
X30245Y30750D01*
D02*
G37*
G36*
X29950D02*
X29755D01*
X29764Y30702D01*
X29820Y30620D01*
X29902Y30564D01*
X29950Y30555D01*
Y30750D01*
D02*
G37*
G36*
X36285Y30593D02*
X36250D01*
Y30250D01*
X36672D01*
X36665Y30302D01*
X36626Y30397D01*
X36563Y30478D01*
X36482Y30541D01*
X36387Y30580D01*
X36285Y30593D01*
D02*
G37*
G36*
X32950Y30395D02*
X32902Y30385D01*
X32820Y30330D01*
X32764Y30248D01*
X32755Y30200D01*
X32950D01*
Y30395D01*
D02*
G37*
G36*
X28900Y30464D02*
X28818Y30448D01*
X28749Y30401D01*
X28702Y30332D01*
X28686Y30250D01*
X28702Y30168D01*
X28749Y30099D01*
X28818Y30052D01*
X28900Y30036D01*
X28982Y30052D01*
X29051Y30099D01*
X29098Y30168D01*
X29114Y30250D01*
X29098Y30332D01*
X29051Y30401D01*
X28982Y30448D01*
X28900Y30464D01*
D02*
G37*
G36*
X36150Y30593D02*
X36115D01*
X36013Y30580D01*
X35918Y30541D01*
X35837Y30478D01*
X35774Y30397D01*
X35735Y30302D01*
X35728Y30250D01*
X36150D01*
Y30593D01*
D02*
G37*
G36*
X33050Y30395D02*
Y30200D01*
X33245D01*
X33235Y30248D01*
X33180Y30330D01*
X33098Y30385D01*
X33050Y30395D01*
D02*
G37*
G36*
X36150Y31150D02*
X35728D01*
X35735Y31098D01*
X35774Y31003D01*
X35837Y30922D01*
X35918Y30859D01*
X36013Y30820D01*
X36115Y30807D01*
X36150D01*
Y31150D01*
D02*
G37*
G36*
Y31593D02*
X36115D01*
X36013Y31580D01*
X35918Y31541D01*
X35837Y31478D01*
X35774Y31397D01*
X35735Y31302D01*
X35728Y31250D01*
X36150D01*
Y31593D01*
D02*
G37*
G36*
X30050Y31045D02*
Y30850D01*
X30245D01*
X30236Y30898D01*
X30180Y30980D01*
X30098Y31035D01*
X30050Y31045D01*
D02*
G37*
G36*
X27250Y31714D02*
X27168Y31698D01*
X27099Y31651D01*
X27052Y31582D01*
X27036Y31500D01*
X27052Y31418D01*
X27099Y31349D01*
X27168Y31302D01*
X27250Y31286D01*
X27332Y31302D01*
X27401Y31349D01*
X27448Y31418D01*
X27464Y31500D01*
X27448Y31582D01*
X27401Y31651D01*
X27332Y31698D01*
X27250Y31714D01*
D02*
G37*
G36*
X36285Y31593D02*
X36250D01*
Y31250D01*
X36672D01*
X36665Y31302D01*
X36626Y31397D01*
X36563Y31478D01*
X36482Y31541D01*
X36387Y31580D01*
X36285Y31593D01*
D02*
G37*
G36*
X29950Y31045D02*
X29902Y31035D01*
X29820Y30980D01*
X29764Y30898D01*
X29755Y30850D01*
X29950D01*
Y31045D01*
D02*
G37*
G36*
X22285Y31553D02*
X22115D01*
X22024Y31541D01*
X21938Y31506D01*
X21865Y31450D01*
X21809Y31377D01*
X21774Y31291D01*
X21762Y31200D01*
X21774Y31109D01*
X21809Y31023D01*
X21865Y30950D01*
X21938Y30894D01*
X22024Y30859D01*
X22115Y30847D01*
X22285D01*
X22376Y30859D01*
X22462Y30894D01*
X22535Y30950D01*
X22591Y31023D01*
X22626Y31109D01*
X22638Y31200D01*
X22626Y31291D01*
X22591Y31377D01*
X22535Y31450D01*
X22462Y31506D01*
X22376Y31541D01*
X22285Y31553D01*
D02*
G37*
G36*
X36672Y31150D02*
X36250D01*
Y30807D01*
X36285D01*
X36387Y30820D01*
X36482Y30859D01*
X36563Y30922D01*
X36626Y31003D01*
X36665Y31098D01*
X36672Y31150D01*
D02*
G37*
G36*
X35285Y31553D02*
X35115D01*
X35024Y31541D01*
X34938Y31506D01*
X34865Y31450D01*
X34809Y31377D01*
X34774Y31291D01*
X34762Y31200D01*
X34774Y31109D01*
X34809Y31023D01*
X34865Y30950D01*
X34938Y30894D01*
X35024Y30859D01*
X35115Y30847D01*
X35285D01*
X35376Y30859D01*
X35462Y30894D01*
X35535Y30950D01*
X35591Y31023D01*
X35626Y31109D01*
X35638Y31200D01*
X35626Y31291D01*
X35591Y31377D01*
X35535Y31450D01*
X35462Y31506D01*
X35376Y31541D01*
X35285Y31553D01*
D02*
G37*
G36*
X23285D02*
X23115D01*
X23024Y31541D01*
X22938Y31506D01*
X22865Y31450D01*
X22809Y31377D01*
X22774Y31291D01*
X22762Y31200D01*
X22774Y31109D01*
X22809Y31023D01*
X22865Y30950D01*
X22938Y30894D01*
X23024Y30859D01*
X23115Y30847D01*
X23285D01*
X23376Y30859D01*
X23462Y30894D01*
X23535Y30950D01*
X23591Y31023D01*
X23626Y31109D01*
X23638Y31200D01*
X23626Y31291D01*
X23591Y31377D01*
X23535Y31450D01*
X23462Y31506D01*
X23376Y31541D01*
X23285Y31553D01*
D02*
G37*
%LPD*%
D38*
X29900Y32500D02*
D03*
D40*
X25100Y36500D02*
D03*
D42*
X22200Y25200D02*
D03*
X36200Y23200D02*
D03*
Y30200D02*
D03*
Y31200D02*
D03*
Y34200D02*
D03*
Y35200D02*
D03*
D45*
X31150Y25480D02*
D03*
X30030Y18680D02*
D03*
X23550Y39000D02*
D03*
X29202Y40698D02*
D03*
X30250Y39950D02*
D03*
X28595Y34005D02*
D03*
X30000Y30800D02*
D03*
X26900Y36100D02*
D03*
X27800Y29320D02*
D03*
X25050Y31790D02*
D03*
X25440Y21320D02*
D03*
X28684Y27729D02*
D03*
X29724Y27322D02*
D03*
X33000Y30150D02*
D03*
X34340Y28650D02*
D03*
X26320Y18380D02*
D03*
X24400Y26910D02*
D03*
X34320Y26580D02*
D03*
X34240Y31700D02*
D03*
X34270Y25300D02*
D03*
X32790Y18540D02*
D03*
X30800Y20570D02*
D03*
M02*
