G04*
G04 #@! TF.GenerationSoftware,Altium Limited,CircuitStudio,1.5.1 (13)*
G04*
G04 Layer_Color=15065295*
%FSLAX24Y24*%
%MOIN*%
G70*
G01*
G75*
%ADD47C,0.0098*%
%ADD48C,0.0236*%
%ADD49C,0.0100*%
%ADD50C,0.0079*%
%ADD51C,0.0059*%
G36*
X36565Y21017D02*
Y21010D01*
X36587D01*
X36594Y21010D01*
X36631D01*
Y21003D01*
X36667D01*
Y20996D01*
X36689D01*
X36697Y20996D01*
X36704D01*
Y20988D01*
X36711D01*
X36719Y20988D01*
X36726D01*
Y20981D01*
X36748D01*
Y20974D01*
X36762D01*
X36770Y20974D01*
Y20966D01*
X36784D01*
Y20959D01*
X36806D01*
Y20952D01*
X36821D01*
Y20944D01*
X36835D01*
Y20937D01*
X36843D01*
X36850Y20937D01*
Y20930D01*
X36865D01*
Y20923D01*
X36879D01*
Y20915D01*
X36887D01*
Y20908D01*
X36901D01*
Y20901D01*
X36916D01*
Y20893D01*
X36923D01*
Y20886D01*
X36938D01*
Y20879D01*
X36945D01*
Y20871D01*
X36952Y20871D01*
Y20864D01*
X36967D01*
Y20857D01*
X36974D01*
Y20849D01*
X36981D01*
Y20842D01*
X36989D01*
Y20835D01*
X36996D01*
Y20828D01*
X37011D01*
Y20820D01*
X37018D01*
Y20813D01*
X37025D01*
Y20806D01*
X37033D01*
Y20798D01*
X37040D01*
Y20784D01*
X37047D01*
Y20776D01*
X37054D01*
Y20769D01*
X37062D01*
Y20762D01*
X37069D01*
Y20755D01*
X37076D01*
X37076Y20740D01*
X37084D01*
Y20733D01*
X37091D01*
Y20718D01*
X37098D01*
Y20711D01*
X37106D01*
Y20696D01*
X37113D01*
Y20682D01*
X37120D01*
Y20667D01*
X37127D01*
Y20645D01*
X37135D01*
X37135Y20623D01*
X37142D01*
X37142Y20601D01*
X37149D01*
Y20565D01*
X37157D01*
Y20499D01*
X37164D01*
Y20448D01*
X37157D01*
Y20382D01*
X37149D01*
X37149Y20353D01*
X37142D01*
Y20324D01*
X37135D01*
Y20302D01*
X37127D01*
Y20287D01*
X37120Y20287D01*
Y20265D01*
X37113D01*
Y20251D01*
X37106D01*
Y20236D01*
X37098D01*
X37098Y20221D01*
X37091D01*
Y20214D01*
X37084D01*
Y20200D01*
X37076D01*
Y20185D01*
X37069D01*
Y20178D01*
X37062D01*
Y20170D01*
X37054D01*
Y20156D01*
X37047D01*
Y20148D01*
X37040D01*
Y20141D01*
X37033D01*
Y20127D01*
X37025D01*
Y20119D01*
X37018D01*
Y20112D01*
X37011D01*
Y20105D01*
X37003D01*
Y20097D01*
X36996D01*
Y20090D01*
X36989D01*
Y20083D01*
X36981D01*
Y20075D01*
X36974D01*
Y20068D01*
X36967D01*
Y20061D01*
X36960D01*
Y20053D01*
X36952D01*
Y20046D01*
X36945D01*
Y20039D01*
X36938D01*
Y20032D01*
X36930D01*
Y20024D01*
X36923D01*
Y20017D01*
X36916D01*
Y20010D01*
X36901D01*
Y20002D01*
X36894Y20002D01*
Y19995D01*
X36887D01*
Y19988D01*
X36879D01*
Y19980D01*
X36872D01*
Y19973D01*
X36865D01*
Y19966D01*
X36850D01*
Y19959D01*
X36843D01*
Y19951D01*
X36835D01*
Y19944D01*
X36828D01*
Y19937D01*
X36821D01*
Y19929D01*
X36813D01*
Y19922D01*
X36806D01*
Y19907D01*
X36799D01*
Y19900D01*
X36792D01*
Y19886D01*
X36784D01*
Y19878D01*
X36777D01*
Y19864D01*
X36770D01*
Y19849D01*
X36762Y19849D01*
Y19834D01*
X36755D01*
X36755Y19820D01*
X36748D01*
Y19805D01*
X36740D01*
Y19783D01*
X36733D01*
Y19761D01*
X36726D01*
Y19732D01*
X36719D01*
Y19688D01*
X36711Y19688D01*
Y19615D01*
X36719D01*
Y19572D01*
X36726D01*
Y19550D01*
X36733D01*
Y19528D01*
X36740D01*
Y19513D01*
X36748D01*
Y19498D01*
X36755D01*
Y19484D01*
X36762D01*
Y19477D01*
X36770D01*
Y19469D01*
X36777D01*
Y19455D01*
X36784D01*
Y19447D01*
X36792D01*
Y19440D01*
X36799D01*
Y19433D01*
X36806D01*
Y19425D01*
X36813D01*
Y19418D01*
X36821D01*
Y19411D01*
X36835D01*
Y19404D01*
X36843D01*
Y19396D01*
X36857D01*
Y19389D01*
X36865D01*
Y19382D01*
X36879D01*
Y19374D01*
X36901D01*
Y19360D01*
X36887D01*
Y19367D01*
X36850D01*
Y19374D01*
X36828D01*
Y19382D01*
X36806D01*
Y19389D01*
X36784D01*
Y19396D01*
X36770D01*
Y19404D01*
X36755D01*
Y19411D01*
X36740D01*
Y19418D01*
X36726D01*
Y19425D01*
X36719D01*
Y19433D01*
X36711Y19433D01*
Y19440D01*
X36697D01*
Y19447D01*
X36689D01*
Y19455D01*
X36682D01*
Y19462D01*
X36675D01*
Y19469D01*
X36667D01*
Y19477D01*
X36660D01*
Y19484D01*
X36653D01*
Y19498D01*
X36646D01*
Y19506D01*
X36638D01*
X36638Y19520D01*
X36631D01*
Y19535D01*
X36624D01*
Y19542D01*
X36616D01*
Y19557D01*
X36609D01*
Y19572D01*
X36602D01*
Y19579D01*
X36594D01*
Y19586D01*
X36572D01*
Y19579D01*
X36565D01*
Y19557D01*
X36558Y19557D01*
Y19535D01*
X36551D01*
Y19491D01*
X36543D01*
Y19367D01*
X36551D01*
Y19338D01*
X36558D01*
Y19309D01*
X36565D01*
Y19294D01*
X36572D01*
Y19279D01*
X36580D01*
Y19265D01*
X36587D01*
Y19250D01*
X36594D01*
Y19236D01*
X36602D01*
Y19228D01*
X36609D01*
Y19214D01*
X36616D01*
Y19206D01*
X36624D01*
Y19199D01*
X36631D01*
Y19192D01*
X36638D01*
Y19184D01*
X36646D01*
X36646Y19177D01*
X36653D01*
Y19170D01*
X36660D01*
Y19163D01*
X36667D01*
Y19155D01*
X36675D01*
Y19148D01*
X36682D01*
Y19141D01*
X36697D01*
Y19133D01*
X36704D01*
Y19126D01*
X36689D01*
Y19133D01*
X36667D01*
Y19141D01*
X36646D01*
Y19148D01*
X36631D01*
Y19155D01*
X36616D01*
Y19163D01*
X36609Y19163D01*
X36602D01*
Y19170D01*
X36587D01*
Y19177D01*
X36572D01*
Y19184D01*
X36565D01*
Y19192D01*
X36558Y19192D01*
X36551D01*
Y19199D01*
X36543D01*
Y19206D01*
X36536D01*
Y19214D01*
X36529D01*
Y19221D01*
X36521D01*
Y19228D01*
X36514D01*
X36514Y19236D01*
X36507D01*
Y19243D01*
X36499D01*
Y19250D01*
X36492D01*
Y19257D01*
X36485D01*
Y19265D01*
X36478D01*
Y19272D01*
X36470D01*
Y19279D01*
X36463D01*
Y19294D01*
X36456D01*
Y19272D01*
X36448D01*
Y19206D01*
X36456D01*
Y19170D01*
X36463Y19170D01*
Y19141D01*
X36470D01*
Y19119D01*
X36478D01*
Y19104D01*
X36485D01*
Y19082D01*
X36492D01*
Y19068D01*
X36499D01*
Y19053D01*
X36507D01*
Y19038D01*
X36514Y19038D01*
Y19024D01*
X36521D01*
Y19009D01*
X36529D01*
X36529Y18995D01*
X36536D01*
Y18987D01*
X36543D01*
Y18980D01*
X36551D01*
Y18965D01*
X36558D01*
Y18958D01*
X36565D01*
Y18951D01*
X36580D01*
Y18943D01*
X36587D01*
Y18936D01*
X36594Y18936D01*
Y18929D01*
X36609D01*
Y18922D01*
X36624D01*
Y18914D01*
X36638D01*
Y18907D01*
X36653D01*
Y18900D01*
X36667D01*
Y18892D01*
X36682D01*
Y18885D01*
X36689D01*
X36697Y18885D01*
X36711D01*
Y18878D01*
X36719Y18878D01*
X36733D01*
Y18870D01*
X36777D01*
Y18863D01*
X36813D01*
X36821Y18863D01*
X36843D01*
X36850Y18863D01*
X36967D01*
Y18870D01*
X36996D01*
X37003Y18870D01*
X37018D01*
Y18878D01*
X37054D01*
Y18885D01*
X37069D01*
Y18870D01*
X37062D01*
Y18863D01*
X37054D01*
Y18849D01*
X37047D01*
Y18841D01*
X37040D01*
Y18834D01*
X37033D01*
Y18819D01*
X37025D01*
Y18812D01*
X37018D01*
Y18805D01*
X37011D01*
Y18790D01*
X37003D01*
Y18783D01*
X36996D01*
Y18776D01*
X36989D01*
Y18768D01*
X36981D01*
Y18761D01*
X36974D01*
Y18754D01*
X36967D01*
Y18746D01*
X36960D01*
Y18739D01*
X36952D01*
Y18732D01*
X36945Y18732D01*
Y18724D01*
X36938D01*
Y18717D01*
X36923D01*
Y18710D01*
X36916D01*
Y18702D01*
X36908D01*
Y18695D01*
X36894D01*
Y18688D01*
X36879D01*
Y18681D01*
X36872D01*
Y18673D01*
X36857D01*
Y18666D01*
X36835D01*
Y18659D01*
X36813D01*
Y18651D01*
X36792D01*
Y18644D01*
X36748D01*
Y18637D01*
X36719D01*
X36711Y18637D01*
X36697D01*
Y18629D01*
X36689Y18629D01*
X36543D01*
X36536Y18629D01*
X36529D01*
Y18666D01*
X36536D01*
Y18717D01*
X36543D01*
Y18812D01*
X36536D01*
X36536Y18849D01*
X36529D01*
Y18870D01*
X36521D01*
Y18892D01*
X36514D01*
Y18907D01*
X36507D01*
Y18922D01*
X36499D01*
X36499Y18929D01*
X36492D01*
Y18943D01*
X36485D01*
Y18951D01*
X36478D01*
Y18965D01*
X36470D01*
Y18973D01*
X36463D01*
Y18980D01*
X36456Y18980D01*
Y18995D01*
X36448D01*
Y19002D01*
X36441D01*
Y19009D01*
X36434D01*
Y19024D01*
X36426D01*
Y19031D01*
X36419D01*
Y19046D01*
X36412D01*
Y19053D01*
X36405D01*
Y19068D01*
X36397D01*
Y19082D01*
X36390D01*
Y19097D01*
X36383D01*
Y19119D01*
X36375D01*
Y19141D01*
X36368D01*
Y19170D01*
X36361D01*
Y19206D01*
X36353D01*
Y19389D01*
X36361D01*
Y19433D01*
X36368D01*
Y19469D01*
X36375D01*
Y19498D01*
X36383D01*
Y19520D01*
X36390D01*
Y19535D01*
X36397D01*
Y19557D01*
X36405D01*
Y19572D01*
X36412D01*
Y19593D01*
X36419D01*
Y19608D01*
X36426D01*
Y19623D01*
X36434D01*
Y19645D01*
X36441D01*
Y19659D01*
X36448D01*
X36448Y19674D01*
X36456D01*
X36456Y19696D01*
X36463D01*
Y19710D01*
X36470D01*
Y19732D01*
X36478D01*
Y19776D01*
X36470D01*
Y19791D01*
X36463D01*
Y19798D01*
X36456D01*
Y19805D01*
X36441D01*
Y19813D01*
X36426D01*
Y19820D01*
X36405D01*
X36405Y19827D01*
X36310D01*
X36310Y19820D01*
X36288D01*
Y19813D01*
X36266D01*
Y19805D01*
X36251D01*
Y19798D01*
X36229D01*
Y19791D01*
X36222D01*
Y19783D01*
X36207D01*
Y19776D01*
X36193D01*
X36193Y19769D01*
X36178D01*
Y19761D01*
X36171D01*
Y19754D01*
X36156D01*
Y19747D01*
X36149D01*
Y19739D01*
X36142D01*
Y19732D01*
X36134D01*
Y19725D01*
X36127D01*
X36120Y19725D01*
Y19732D01*
X36127Y19732D01*
Y19747D01*
X36134D01*
Y19761D01*
X36142D01*
Y19776D01*
X36149D01*
Y19791D01*
X36156D01*
Y19798D01*
X36164D01*
Y19813D01*
X36171D01*
Y19820D01*
X36178D01*
Y19834D01*
X36185D01*
Y19842D01*
X36193D01*
Y19856D01*
X36200D01*
Y19864D01*
X36207Y19864D01*
Y19871D01*
X36215D01*
X36215Y19878D01*
X36222D01*
Y19893D01*
X36229D01*
Y19900D01*
X36237D01*
Y19907D01*
X36244D01*
Y19915D01*
X36251D01*
Y19922D01*
X36258D01*
X36258Y19929D01*
X36266D01*
Y19937D01*
X36273D01*
Y19944D01*
X36280D01*
Y19951D01*
X36295D01*
Y19959D01*
X36302D01*
Y19966D01*
X36310D01*
Y19973D01*
X36317D01*
Y19980D01*
X36324D01*
X36332Y19980D01*
Y19988D01*
X36339D01*
Y19995D01*
X36346D01*
X36346Y20002D01*
X36361D01*
Y20010D01*
X36368D01*
Y20017D01*
X36383D01*
Y20024D01*
X36397D01*
Y20032D01*
X36412D01*
Y20039D01*
X36426D01*
Y20046D01*
X36441D01*
Y20053D01*
X36463D01*
Y20061D01*
X36478D01*
Y20068D01*
X36492D01*
Y20075D01*
X36507D01*
X36507Y20083D01*
X36521D01*
Y20090D01*
X36536D01*
Y20097D01*
X36551D01*
Y20105D01*
X36565D01*
Y20112D01*
X36580D01*
Y20119D01*
X36594D01*
Y20127D01*
X36609D01*
Y20134D01*
X36616D01*
Y20141D01*
X36631D01*
Y20148D01*
X36638D01*
X36646Y20148D01*
Y20156D01*
X36653D01*
Y20163D01*
X36667D01*
Y20170D01*
X36675D01*
Y20178D01*
X36689D01*
Y20185D01*
X36697Y20185D01*
Y20192D01*
X36704D01*
Y20200D01*
X36711D01*
Y20207D01*
X36719D01*
Y20214D01*
X36726D01*
Y20221D01*
X36733D01*
Y20229D01*
X36740D01*
Y20236D01*
X36748D01*
Y20243D01*
X36755D01*
Y20251D01*
X36762D01*
X36762Y20265D01*
X36770D01*
Y20273D01*
X36777D01*
Y20287D01*
X36784D01*
Y20294D01*
X36792D01*
Y20309D01*
X36799D01*
Y20331D01*
X36806D01*
Y20346D01*
X36813D01*
Y20375D01*
X36821D01*
X36821Y20506D01*
X36813D01*
Y20543D01*
X36806D01*
Y20565D01*
X36799D01*
Y20587D01*
X36792D01*
Y20608D01*
X36784D01*
X36784Y20623D01*
X36777D01*
Y20638D01*
X36770D01*
X36770Y20652D01*
X36762D01*
X36762Y20667D01*
X36755D01*
Y20682D01*
X36748D01*
X36748Y20696D01*
X36740D01*
Y20711D01*
X36733D01*
Y20725D01*
X36726D01*
Y20733D01*
X36719D01*
Y20747D01*
X36711D01*
Y20755D01*
X36704D01*
Y20769D01*
X36697D01*
Y20776D01*
X36689D01*
Y20784D01*
X36682D01*
Y20798D01*
X36675D01*
Y20806D01*
X36667D01*
Y20813D01*
X36660D01*
Y20820D01*
X36653D01*
Y20828D01*
X36646D01*
Y20835D01*
X36638D01*
Y20842D01*
X36631D01*
Y20857D01*
X36616D01*
Y20864D01*
X36609D01*
Y20871D01*
X36602D01*
Y20879D01*
X36594D01*
Y20886D01*
X36587D01*
Y20893D01*
X36580D01*
Y20901D01*
X36572D01*
Y20908D01*
X36558D01*
Y20915D01*
X36551D01*
Y20923D01*
X36543D01*
Y20930D01*
X36529D01*
Y20937D01*
X36521D01*
Y20944D01*
X36507D01*
X36507Y20952D01*
X36492D01*
Y20959D01*
X36485D01*
Y20966D01*
X36470D01*
Y20974D01*
X36463D01*
X36456Y20974D01*
Y20981D01*
X36441D01*
Y20988D01*
X36434Y20988D01*
X36426D01*
Y20996D01*
X36405D01*
Y21010D01*
X36412Y21010D01*
X36478D01*
Y21017D01*
X36558D01*
X36565Y21017D01*
D02*
G37*
D47*
X31861Y26034D02*
G03*
X31861Y26034I-49J0D01*
G01*
D48*
X31123Y25700D02*
G03*
X31123Y25700I-118J0D01*
G01*
D49*
X25725Y33625D02*
G03*
X25725Y33625I-459J0D01*
G01*
X33093Y33575D02*
G03*
X33093Y33575I-459J0D01*
G01*
X29271Y39061D02*
Y39139D01*
Y39061D02*
X29429D01*
X29114D02*
X29429D01*
X29914D02*
Y39139D01*
Y39061D02*
X30072D01*
X29757D02*
X30072D01*
X30400D02*
X30675D01*
X30537D02*
X30675D01*
X30537D02*
Y39139D01*
X31043Y39061D02*
X31357D01*
X31200D02*
X31357D01*
X31200D02*
Y39139D01*
X25282Y19344D02*
X25538Y19600D01*
X25557Y19344D02*
Y19856D01*
X25282Y19344D02*
Y19856D01*
X25282D02*
X25538Y19600D01*
X25282Y20144D02*
X25538Y20400D01*
X25557Y20144D02*
Y20656D01*
X25282Y20144D02*
Y20656D01*
X25282D02*
X25538Y20400D01*
X29644Y34418D02*
X29900Y34162D01*
X29644Y34143D02*
X30156D01*
X29644Y34418D02*
X30156D01*
X29900Y34162D02*
X30156Y34418D01*
X27208Y21766D02*
X28192D01*
X27188Y20014D02*
X28212D01*
X32944Y20190D02*
X33456D01*
X32924Y21430D02*
X33456D01*
X37100Y34850D02*
X37150Y34900D01*
Y35000D01*
X37100Y35050D01*
X37050D01*
X37000Y35000D01*
Y34900D01*
X36950Y34850D01*
X36900D01*
X36850Y34900D01*
Y35000D01*
X36900Y35050D01*
X37150Y34750D02*
Y34550D01*
Y34650D01*
X36850D01*
Y34450D02*
X37150D01*
X37050Y34350D01*
X37150Y34250D01*
X36850D01*
X37100Y34150D02*
X37150Y34100D01*
Y34000D01*
X37100Y33950D01*
X37050D01*
X37000Y34000D01*
Y34050D01*
Y34000D01*
X36950Y33950D01*
X36900D01*
X36850Y34000D01*
Y34100D01*
X36900Y34150D01*
X36850Y33650D02*
Y33850D01*
X37050Y33650D01*
X37100D01*
X37150Y33700D01*
Y33800D01*
X37100Y33850D01*
X37150Y33351D02*
Y33550D01*
X37000D01*
Y33451D01*
Y33550D01*
X36850D01*
Y33101D02*
X37150D01*
X37000Y33251D01*
Y33051D01*
X37100Y32951D02*
X37150Y32901D01*
Y32801D01*
X37100Y32751D01*
X36900D01*
X36850Y32801D01*
Y32901D01*
X36900Y32951D01*
X37100D01*
X37150Y32451D02*
Y32651D01*
X37000D01*
X37050Y32551D01*
Y32501D01*
X37000Y32451D01*
X36900D01*
X36850Y32501D01*
Y32601D01*
X36900Y32651D01*
X37150Y32051D02*
X36850D01*
Y31901D01*
X36900Y31851D01*
X37100D01*
X37150Y31901D01*
Y32051D01*
X36850Y31601D02*
Y31701D01*
X36900Y31751D01*
X37000D01*
X37050Y31701D01*
Y31601D01*
X37000Y31551D01*
X36950D01*
Y31751D01*
X37050Y31451D02*
X36850Y31351D01*
X37050Y31251D01*
X36850Y31001D02*
Y31101D01*
X36900Y31151D01*
X37000D01*
X37050Y31101D01*
Y31001D01*
X37000Y30951D01*
X36950D01*
Y31151D01*
X36850Y30851D02*
Y30751D01*
Y30801D01*
X37150D01*
Y30851D01*
X36850Y30551D02*
Y30451D01*
X36900Y30401D01*
X37000D01*
X37050Y30451D01*
Y30551D01*
X37000Y30601D01*
X36900D01*
X36850Y30551D01*
X36750Y30302D02*
X37050D01*
Y30152D01*
X37000Y30102D01*
X36900D01*
X36850Y30152D01*
Y30302D01*
Y30002D02*
X37050D01*
Y29952D01*
X37000Y29902D01*
X36850D01*
X37000D01*
X37050Y29852D01*
X37000Y29802D01*
X36850D01*
Y29552D02*
Y29652D01*
X36900Y29702D01*
X37000D01*
X37050Y29652D01*
Y29552D01*
X37000Y29502D01*
X36950D01*
Y29702D01*
X36850Y29402D02*
X37050D01*
Y29252D01*
X37000Y29202D01*
X36850D01*
X37100Y29052D02*
X37050D01*
Y29102D01*
Y29002D01*
Y29052D01*
X36900D01*
X36850Y29002D01*
X37150Y28552D02*
X36850D01*
Y28402D01*
X36900Y28352D01*
X36950D01*
X37000Y28402D01*
Y28552D01*
Y28402D01*
X37050Y28352D01*
X37100D01*
X37150Y28402D01*
Y28552D01*
X36850Y28202D02*
Y28102D01*
X36900Y28052D01*
X37000D01*
X37050Y28102D01*
Y28202D01*
X37000Y28252D01*
X36900D01*
X36850Y28202D01*
X37050Y27902D02*
Y27802D01*
X37000Y27752D01*
X36850D01*
Y27902D01*
X36900Y27952D01*
X36950Y27902D01*
Y27752D01*
X37050Y27652D02*
X36850D01*
X36950D01*
X37000Y27602D01*
X37050Y27552D01*
Y27502D01*
X37150Y27153D02*
X36850D01*
Y27303D01*
X36900Y27352D01*
X37000D01*
X37050Y27303D01*
Y27153D01*
X37150Y26150D02*
Y26350D01*
X36850D01*
Y26150D01*
X37000Y26350D02*
Y26250D01*
X37150Y26050D02*
X36850D01*
Y25850D01*
X37150Y25550D02*
Y25750D01*
X36850D01*
Y25550D01*
X37000Y25750D02*
Y25650D01*
X37100Y25250D02*
X37150Y25300D01*
Y25400D01*
X37100Y25450D01*
X36900D01*
X36850Y25400D01*
Y25300D01*
X36900Y25250D01*
X37150Y25150D02*
Y24950D01*
Y25050D01*
X36850D01*
Y24850D02*
X37150D01*
Y24701D01*
X37100Y24651D01*
X37000D01*
X36950Y24701D01*
Y24850D01*
Y24751D02*
X36850Y24651D01*
X37150Y24551D02*
Y24451D01*
Y24501D01*
X36850D01*
Y24551D01*
Y24451D01*
X37100Y24101D02*
X37150Y24151D01*
Y24251D01*
X37100Y24301D01*
X36900D01*
X36850Y24251D01*
Y24151D01*
X36900Y24101D01*
X36850Y23701D02*
X37150D01*
Y23551D01*
X37100Y23501D01*
X37000D01*
X36950Y23551D01*
Y23701D01*
Y23601D02*
X36850Y23501D01*
Y23401D02*
X37050D01*
X37150Y23301D01*
X37050Y23201D01*
X36850D01*
X37000D01*
Y23401D01*
X37150Y23101D02*
X37100D01*
X37000Y23001D01*
X37100Y22901D01*
X37150D01*
X37000Y23001D02*
X36850D01*
X37150Y22501D02*
X36850D01*
Y22301D01*
Y22201D02*
X37050D01*
X37150Y22101D01*
X37050Y22001D01*
X36850D01*
X37000D01*
Y22201D01*
X37150Y21901D02*
X36850D01*
Y21751D01*
X36900Y21702D01*
X36950D01*
X37000Y21751D01*
Y21901D01*
Y21751D01*
X37050Y21702D01*
X37100D01*
X37150Y21751D01*
Y21901D01*
X37100Y21402D02*
X37150Y21452D01*
Y21552D01*
X37100Y21602D01*
X37050D01*
X37000Y21552D01*
Y21452D01*
X36950Y21402D01*
X36900D01*
X36850Y21452D01*
Y21552D01*
X36900Y21602D01*
X37150Y38000D02*
Y37900D01*
Y37950D01*
X36850D01*
Y38000D01*
Y37900D01*
Y37750D02*
Y37600D01*
X36900Y37550D01*
X36950Y37600D01*
Y37700D01*
X37000Y37750D01*
X37050Y37700D01*
Y37550D01*
X36850Y37400D02*
Y37300D01*
X36900Y37250D01*
X37000D01*
X37050Y37300D01*
Y37400D01*
X37000Y37450D01*
X36900D01*
X36850Y37400D01*
X37100Y36950D02*
X37150Y37000D01*
Y37100D01*
X37100Y37150D01*
X36900D01*
X36850Y37100D01*
Y37000D01*
X36900Y36950D01*
X37150Y36700D02*
Y36800D01*
X37100Y36850D01*
X36900D01*
X36850Y36800D01*
Y36700D01*
X36900Y36650D01*
X37100D01*
X37150Y36700D01*
X36850Y36550D02*
X37150D01*
Y36401D01*
X37100Y36351D01*
X37000D01*
X36950Y36401D01*
Y36550D01*
Y36451D02*
X36850Y36351D01*
X37150Y36051D02*
Y36251D01*
X36850D01*
Y36051D01*
X37000Y36251D02*
Y36151D01*
X32100Y36000D02*
Y35667D01*
X32167Y35600D01*
X32300D01*
X32367Y35667D01*
Y36000D01*
X32766Y35933D02*
X32700Y36000D01*
X32567D01*
X32500Y35933D01*
Y35867D01*
X32567Y35800D01*
X32700D01*
X32766Y35733D01*
Y35667D01*
X32700Y35600D01*
X32567D01*
X32500Y35667D01*
X32900Y35600D02*
Y36000D01*
X33100D01*
X33166Y35933D01*
Y35800D01*
X33100Y35733D01*
X32900D01*
X33033D02*
X33166Y35600D01*
X24800D02*
Y36000D01*
X25000D01*
X25067Y35933D01*
Y35800D01*
X25000Y35733D01*
X24800D01*
X24933D02*
X25067Y35600D01*
X25466Y35933D02*
X25400Y36000D01*
X25267D01*
X25200Y35933D01*
Y35867D01*
X25267Y35800D01*
X25400D01*
X25466Y35733D01*
Y35667D01*
X25400Y35600D01*
X25267D01*
X25200Y35667D01*
X25600Y36000D02*
X25866D01*
X25733D01*
Y35600D01*
X35800Y38300D02*
Y38700D01*
X36000D01*
X36067Y38633D01*
Y38500D01*
X36000Y38433D01*
X35800D01*
X36200Y38700D02*
X36466Y38300D01*
Y38700D02*
X36200Y38300D01*
X34800D02*
Y38700D01*
X35000D01*
X35067Y38633D01*
Y38500D01*
X35000Y38433D01*
X34800D01*
X35466Y38633D02*
X35400Y38700D01*
X35267D01*
X35200Y38633D01*
Y38367D01*
X35267Y38300D01*
X35400D01*
X35466Y38367D01*
X22900Y38300D02*
Y38700D01*
X23100D01*
X23167Y38633D01*
Y38500D01*
X23100Y38433D01*
X22900D01*
X23300Y38700D02*
Y38300D01*
X23500D01*
X23566Y38367D01*
Y38433D01*
X23500Y38500D01*
X23300D01*
X23500D01*
X23566Y38567D01*
Y38633D01*
X23500Y38700D01*
X23300D01*
X21800Y38300D02*
Y38700D01*
X22000D01*
X22067Y38633D01*
Y38500D01*
X22000Y38433D01*
X21800D01*
X22200Y38300D02*
Y38567D01*
X22333Y38700D01*
X22466Y38567D01*
Y38300D01*
Y38500D01*
X22200D01*
X25750Y26050D02*
Y25800D01*
X25800Y25750D01*
X25900D01*
X25950Y25800D01*
Y26050D01*
X26050Y25750D02*
X26150D01*
X26100D01*
Y26050D01*
X26050Y26000D01*
X27500Y33500D02*
Y33200D01*
X27650D01*
X27700Y33250D01*
Y33300D01*
X27650Y33350D01*
X27500D01*
X27650D01*
X27700Y33400D01*
Y33450D01*
X27650Y33500D01*
X27500D01*
X27950D02*
X27850D01*
X27800Y33450D01*
Y33250D01*
X27850Y33200D01*
X27950D01*
X28000Y33250D01*
Y33450D01*
X27950Y33500D01*
X28250D02*
X28150D01*
X28100Y33450D01*
Y33250D01*
X28150Y33200D01*
X28250D01*
X28300Y33250D01*
Y33450D01*
X28250Y33500D01*
X28400D02*
X28600D01*
X28500D01*
Y33200D01*
X28700Y33450D02*
X28750Y33500D01*
X28850D01*
X28900Y33450D01*
Y33250D01*
X28850Y33200D01*
X28750D01*
X28700Y33250D01*
Y33450D01*
X26650Y37800D02*
X26600Y37750D01*
Y37650D01*
X26650Y37600D01*
X26850D01*
X26900Y37650D01*
Y37750D01*
X26850Y37800D01*
X26900Y37900D02*
Y38000D01*
Y37950D01*
X26600D01*
X26650Y37900D01*
X26000Y30100D02*
X26050Y30150D01*
Y30250D01*
X26000Y30300D01*
X25800D01*
X25750Y30250D01*
Y30150D01*
X25800Y30100D01*
X25750Y29800D02*
Y30000D01*
X25950Y29800D01*
X26000D01*
X26050Y29850D01*
Y29950D01*
X26000Y30000D01*
X29400Y29800D02*
X29350Y29750D01*
Y29650D01*
X29400Y29600D01*
X29600D01*
X29650Y29650D01*
Y29750D01*
X29600Y29800D01*
X29400Y29900D02*
X29350Y29950D01*
Y30050D01*
X29400Y30100D01*
X29450D01*
X29500Y30050D01*
Y30000D01*
Y30050D01*
X29550Y30100D01*
X29600D01*
X29650Y30050D01*
Y29950D01*
X29600Y29900D01*
X32500Y30850D02*
X32450Y30900D01*
X32350D01*
X32300Y30850D01*
Y30650D01*
X32350Y30600D01*
X32450D01*
X32500Y30650D01*
X32750Y30600D02*
Y30900D01*
X32600Y30750D01*
X32800D01*
X26465Y22418D02*
X26394Y22418D01*
X26323Y22347D01*
Y22277D01*
X26465Y22135D01*
X26535D01*
X26606Y22206D01*
X26606Y22277D01*
X26641Y22666D02*
X26500Y22524D01*
X26606Y22418D01*
X26641Y22524D01*
X26677Y22559D01*
X26747D01*
X26818Y22489D01*
X26818Y22418D01*
X26747Y22347D01*
X26677D01*
X25450Y27300D02*
X25400Y27350D01*
X25300D01*
X25250Y27300D01*
Y27100D01*
X25300Y27050D01*
X25400D01*
X25450Y27100D01*
X25750Y27350D02*
X25650Y27300D01*
X25550Y27200D01*
Y27100D01*
X25600Y27050D01*
X25700D01*
X25750Y27100D01*
Y27150D01*
X25700Y27200D01*
X25550D01*
X33950Y29550D02*
X33900Y29600D01*
X33800D01*
X33750Y29550D01*
Y29350D01*
X33800Y29300D01*
X33900D01*
X33950Y29350D01*
X34050Y29600D02*
X34250D01*
Y29550D01*
X34050Y29350D01*
Y29300D01*
X32650Y26850D02*
X32600Y26900D01*
X32500D01*
X32450Y26850D01*
Y26650D01*
X32500Y26600D01*
X32600D01*
X32650Y26650D01*
X32750Y26850D02*
X32800Y26900D01*
X32900D01*
X32950Y26850D01*
Y26800D01*
X32900Y26750D01*
X32950Y26700D01*
Y26650D01*
X32900Y26600D01*
X32800D01*
X32750Y26650D01*
Y26700D01*
X32800Y26750D01*
X32750Y26800D01*
Y26850D01*
X32800Y26750D02*
X32900D01*
X27750Y30800D02*
X27700Y30750D01*
Y30650D01*
X27750Y30600D01*
X27950D01*
X28000Y30650D01*
Y30750D01*
X27950Y30800D01*
Y30900D02*
X28000Y30950D01*
Y31050D01*
X27950Y31100D01*
X27750D01*
X27700Y31050D01*
Y30950D01*
X27750Y30900D01*
X27800D01*
X27850Y30950D01*
Y31100D01*
X28350Y30800D02*
X28300Y30750D01*
Y30650D01*
X28350Y30600D01*
X28550D01*
X28600Y30650D01*
Y30750D01*
X28550Y30800D01*
X28600Y30900D02*
Y31000D01*
Y30950D01*
X28300D01*
X28350Y30900D01*
Y31150D02*
X28300Y31200D01*
Y31300D01*
X28350Y31350D01*
X28550D01*
X28600Y31300D01*
Y31200D01*
X28550Y31150D01*
X28350D01*
X30550Y21100D02*
X30500Y21150D01*
X30400D01*
X30350Y21100D01*
Y20900D01*
X30400Y20850D01*
X30500D01*
X30550Y20900D01*
X30650Y20850D02*
X30750D01*
X30700D01*
Y21150D01*
X30650Y21100D01*
X30900Y20850D02*
X31000D01*
X30950D01*
Y21150D01*
X30900Y21100D01*
X31550Y21850D02*
X31500Y21900D01*
X31400D01*
X31350Y21850D01*
Y21650D01*
X31400Y21600D01*
X31500D01*
X31550Y21650D01*
X31650Y21600D02*
X31750D01*
X31700D01*
Y21900D01*
X31650Y21850D01*
X32100Y21600D02*
X31900D01*
X32100Y21800D01*
Y21850D01*
X32050Y21900D01*
X31950D01*
X31900Y21850D01*
X33750Y23100D02*
X33700Y23150D01*
X33600D01*
X33550Y23100D01*
Y22900D01*
X33600Y22850D01*
X33700D01*
X33750Y22900D01*
X33850Y22850D02*
X33950D01*
X33900D01*
Y23150D01*
X33850Y23100D01*
X34100D02*
X34150Y23150D01*
X34250D01*
X34300Y23100D01*
Y23050D01*
X34250Y23000D01*
X34200D01*
X34250D01*
X34300Y22950D01*
Y22900D01*
X34250Y22850D01*
X34150D01*
X34100Y22900D01*
X34017Y21708D02*
X33975Y21750D01*
X33892D01*
X33850Y21708D01*
Y21542D01*
X33892Y21500D01*
X33975D01*
X34017Y21542D01*
X34100Y21500D02*
X34183D01*
X34142D01*
Y21750D01*
X34100Y21708D01*
X34433Y21500D02*
Y21750D01*
X34308Y21625D01*
X34475D01*
X32200Y25250D02*
X32150Y25300D01*
X32050D01*
X32000Y25250D01*
Y25050D01*
X32050Y25000D01*
X32150D01*
X32200Y25050D01*
X32300Y25000D02*
X32400D01*
X32350D01*
Y25300D01*
X32300Y25250D01*
X32750Y25300D02*
X32550D01*
Y25150D01*
X32650Y25200D01*
X32700D01*
X32750Y25150D01*
Y25050D01*
X32700Y25000D01*
X32600D01*
X32550Y25050D01*
X29171Y37800D02*
X29471D01*
Y37950D01*
X29421Y38000D01*
X29221D01*
X29171Y37950D01*
Y37800D01*
X29471Y38100D02*
Y38200D01*
Y38150D01*
X29171D01*
X29221Y38100D01*
X29781Y37800D02*
X30081D01*
Y37950D01*
X30031Y38000D01*
X29831D01*
X29781Y37950D01*
Y37800D01*
X30081Y38300D02*
Y38100D01*
X29881Y38300D01*
X29831D01*
X29781Y38250D01*
Y38150D01*
X29831Y38100D01*
X30491Y37800D02*
X30790D01*
Y37950D01*
X30740Y38000D01*
X30540D01*
X30491Y37950D01*
Y37800D01*
X30540Y38100D02*
X30491Y38150D01*
Y38250D01*
X30540Y38300D01*
X30590D01*
X30640Y38250D01*
Y38200D01*
Y38250D01*
X30690Y38300D01*
X30740D01*
X30790Y38250D01*
Y38150D01*
X30740Y38100D01*
X31100Y37800D02*
X31400D01*
Y37950D01*
X31350Y38000D01*
X31150D01*
X31100Y37950D01*
Y37800D01*
X31400Y38250D02*
X31100D01*
X31250Y38100D01*
Y38300D01*
X24000Y19250D02*
Y18950D01*
X24150D01*
X24200Y19000D01*
Y19200D01*
X24150Y19250D01*
X24000D01*
X24500D02*
X24300D01*
Y19100D01*
X24400Y19150D01*
X24450D01*
X24500Y19100D01*
Y19000D01*
X24450Y18950D01*
X24350D01*
X24300Y19000D01*
X23900Y20350D02*
Y20050D01*
X24050D01*
X24100Y20100D01*
Y20300D01*
X24050Y20350D01*
X23900D01*
X24400D02*
X24300Y20300D01*
X24200Y20200D01*
Y20100D01*
X24250Y20050D01*
X24350D01*
X24400Y20100D01*
Y20150D01*
X24350Y20200D01*
X24200D01*
X29100Y34000D02*
X29400D01*
Y34150D01*
X29350Y34200D01*
X29150D01*
X29100Y34150D01*
Y34000D01*
Y34300D02*
Y34500D01*
X29150D01*
X29350Y34300D01*
X29400D01*
X28650Y19800D02*
X28450D01*
Y19650D01*
X28550D01*
X28450D01*
Y19500D01*
X28750D02*
X28850D01*
X28800D01*
Y19800D01*
X28750Y19750D01*
X27050Y30750D02*
Y30550D01*
X27200D01*
Y30650D01*
Y30550D01*
X27350D01*
X27050Y30850D02*
X27350D01*
Y31000D01*
X27300Y31050D01*
X27250D01*
X27200Y31000D01*
Y30850D01*
Y31000D01*
X27150Y31050D01*
X27100D01*
X27050Y31000D01*
Y30850D01*
X27350Y31150D02*
Y31250D01*
Y31200D01*
X27050D01*
X27100Y31150D01*
X23700Y39600D02*
Y39500D01*
Y39550D01*
X23950D01*
X24000Y39500D01*
Y39450D01*
X23950Y39400D01*
X24000Y39700D02*
Y39800D01*
Y39750D01*
X23700D01*
X23750Y39700D01*
X30200Y40500D02*
Y40400D01*
Y40450D01*
X30450D01*
X30500Y40400D01*
Y40350D01*
X30450Y40300D01*
X30500Y40800D02*
Y40600D01*
X30300Y40800D01*
X30250D01*
X30200Y40750D01*
Y40650D01*
X30250Y40600D01*
X29500Y35900D02*
X29200D01*
Y36050D01*
X29250Y36100D01*
X29350D01*
X29400Y36050D01*
Y35900D01*
Y36000D02*
X29500Y36100D01*
Y36200D02*
Y36300D01*
Y36250D01*
X29200D01*
X29250Y36200D01*
X27450Y37600D02*
X27150D01*
Y37750D01*
X27200Y37800D01*
X27300D01*
X27350Y37750D01*
Y37600D01*
Y37700D02*
X27450Y37800D01*
Y38100D02*
Y37900D01*
X27250Y38100D01*
X27200D01*
X27150Y38050D01*
Y37950D01*
X27200Y37900D01*
X30143Y35900D02*
X29843D01*
Y36050D01*
X29893Y36100D01*
X29993D01*
X30043Y36050D01*
Y35900D01*
Y36000D02*
X30143Y36100D01*
X29893Y36200D02*
X29843Y36250D01*
Y36350D01*
X29893Y36400D01*
X29943D01*
X29993Y36350D01*
Y36300D01*
Y36350D01*
X30043Y36400D01*
X30093D01*
X30143Y36350D01*
Y36250D01*
X30093Y36200D01*
X30786Y35900D02*
X30486D01*
Y36050D01*
X30536Y36100D01*
X30636D01*
X30686Y36050D01*
Y35900D01*
Y36000D02*
X30786Y36100D01*
Y36350D02*
X30486D01*
X30636Y36200D01*
Y36400D01*
X31300Y35900D02*
X31000D01*
Y36050D01*
X31050Y36100D01*
X31150D01*
X31200Y36050D01*
Y35900D01*
Y36000D02*
X31300Y36100D01*
X31000Y36400D02*
Y36200D01*
X31150D01*
X31100Y36300D01*
Y36350D01*
X31150Y36400D01*
X31250D01*
X31300Y36350D01*
Y36250D01*
X31250Y36200D01*
X26300Y30300D02*
X26600D01*
Y30150D01*
X26550Y30100D01*
X26450D01*
X26400Y30150D01*
Y30300D01*
Y30200D02*
X26300Y30100D01*
X26600Y29800D02*
X26550Y29900D01*
X26450Y30000D01*
X26350D01*
X26300Y29950D01*
Y29850D01*
X26350Y29800D01*
X26400D01*
X26450Y29850D01*
Y30000D01*
X31050Y33050D02*
X30750D01*
Y33200D01*
X30800Y33250D01*
X30900D01*
X30950Y33200D01*
Y33050D01*
Y33150D02*
X31050Y33250D01*
X30750Y33350D02*
Y33550D01*
X30800D01*
X31000Y33350D01*
X31050D01*
X24960Y31070D02*
Y31370D01*
X25110D01*
X25160Y31320D01*
Y31220D01*
X25110Y31170D01*
X24960D01*
X25060D02*
X25160Y31070D01*
X25260Y31320D02*
X25310Y31370D01*
X25410D01*
X25460Y31320D01*
Y31270D01*
X25410Y31220D01*
X25460Y31170D01*
Y31120D01*
X25410Y31070D01*
X25310D01*
X25260Y31120D01*
Y31170D01*
X25310Y31220D01*
X25260Y31270D01*
Y31320D01*
X25310Y31220D02*
X25410D01*
X24920Y30110D02*
Y30410D01*
X25070D01*
X25120Y30360D01*
Y30260D01*
X25070Y30210D01*
X24920D01*
X25020D02*
X25120Y30110D01*
X25220Y30160D02*
X25270Y30110D01*
X25370D01*
X25420Y30160D01*
Y30360D01*
X25370Y30410D01*
X25270D01*
X25220Y30360D01*
Y30310D01*
X25270Y30260D01*
X25420D01*
X27100Y18450D02*
X26800D01*
Y18600D01*
X26850Y18650D01*
X26950D01*
X27000Y18600D01*
Y18450D01*
Y18550D02*
X27100Y18650D01*
Y18750D02*
Y18850D01*
Y18800D01*
X26800D01*
X26850Y18750D01*
Y19000D02*
X26800Y19050D01*
Y19150D01*
X26850Y19200D01*
X27050D01*
X27100Y19150D01*
Y19050D01*
X27050Y19000D01*
X26850D01*
X28250Y18400D02*
Y18700D01*
X28400D01*
X28450Y18650D01*
Y18550D01*
X28400Y18500D01*
X28250D01*
X28350D02*
X28450Y18400D01*
X28550D02*
X28650D01*
X28600D01*
Y18700D01*
X28550Y18650D01*
X28800Y18400D02*
X28900D01*
X28850D01*
Y18700D01*
X28800Y18650D01*
X27900Y34900D02*
Y35200D01*
X28050D01*
X28100Y35150D01*
Y35050D01*
X28050Y35000D01*
X27900D01*
X28000D02*
X28100Y34900D01*
X28200D02*
X28300D01*
X28250D01*
Y35200D01*
X28200Y35150D01*
X28650Y34900D02*
X28450D01*
X28650Y35100D01*
Y35150D01*
X28600Y35200D01*
X28500D01*
X28450Y35150D01*
X33900Y37800D02*
X33600D01*
Y37950D01*
X33650Y38000D01*
X33750D01*
X33800Y37950D01*
Y37800D01*
Y37900D02*
X33900Y38000D01*
Y38100D02*
Y38200D01*
Y38150D01*
X33600D01*
X33650Y38100D01*
Y38350D02*
X33600Y38400D01*
Y38500D01*
X33650Y38550D01*
X33700D01*
X33750Y38500D01*
Y38450D01*
Y38500D01*
X33800Y38550D01*
X33850D01*
X33900Y38500D01*
Y38400D01*
X33850Y38350D01*
X25650Y22950D02*
X25438Y23162D01*
X25544Y23268D01*
X25615Y23268D01*
X25685Y23197D01*
X25685Y23127D01*
X25579Y23021D01*
X25650Y23091D02*
X25791Y23091D01*
X25862Y23162D02*
X25933Y23233D01*
X25897Y23197D01*
X25685Y23409D01*
Y23339D01*
X26145Y23445D02*
X25933Y23657D01*
Y23445D01*
X26074Y23586D01*
X26357Y23657D02*
X26286Y23586D01*
X26216D01*
X26145Y23657D01*
X26145Y23728D01*
X26216Y23798D01*
X26286D01*
X26322Y23763D01*
X26180Y23622D01*
X24800Y23800D02*
X24588Y24012D01*
X24694Y24118D01*
X24765Y24118D01*
X24835Y24047D01*
X24835Y23977D01*
X24729Y23871D01*
X24800Y23941D02*
X24941Y23941D01*
X25012Y24012D02*
X25083Y24083D01*
X25047Y24047D01*
X24835Y24259D01*
Y24189D01*
X25295Y24295D02*
X25083Y24507D01*
Y24295D01*
X25224Y24436D01*
X25259Y24542D02*
X25366Y24436D01*
X25436D01*
X25542Y24542D01*
X25401Y24684D01*
X22700Y19300D02*
X22400D01*
Y19450D01*
X22450Y19500D01*
X22550D01*
X22600Y19450D01*
Y19300D01*
Y19400D02*
X22700Y19500D01*
Y19600D02*
Y19700D01*
Y19650D01*
X22400D01*
X22450Y19600D01*
X22650Y19850D02*
X22700Y19900D01*
Y20000D01*
X22650Y20050D01*
X22450D01*
X22400Y20000D01*
Y19900D01*
X22450Y19850D01*
X22500D01*
X22550Y19900D01*
Y20050D01*
X26150Y22500D02*
X25938Y22712D01*
X26044Y22818D01*
X26115Y22818D01*
X26185Y22747D01*
X26185Y22677D01*
X26079Y22571D01*
X26150Y22641D02*
X26291Y22641D01*
X26574Y22924D02*
X26645Y22995D01*
X26609Y22959D01*
X26397Y23172D01*
Y23101D01*
X26680Y23454D02*
X26539Y23313D01*
X26645Y23207D01*
X26680Y23313D01*
X26716Y23348D01*
X26786D01*
X26857Y23278D01*
Y23207D01*
X26786Y23136D01*
X26716D01*
X27069Y23419D02*
X26998Y23348D01*
X26928D01*
X26857Y23419D01*
Y23490D01*
X26928Y23560D01*
X26998D01*
X27034Y23525D01*
X26892Y23384D01*
X25150Y23400D02*
X24938Y23612D01*
X25044Y23718D01*
X25115Y23718D01*
X25185Y23647D01*
X25185Y23577D01*
X25079Y23471D01*
X25150Y23541D02*
X25291Y23541D01*
X25786Y24036D02*
X25857Y24107D01*
X25822Y24072D01*
X25609Y24284D01*
Y24213D01*
X25892Y24566D02*
X25751Y24425D01*
X25857Y24319D01*
X25892Y24425D01*
X25928Y24460D01*
X25998D01*
X26069Y24390D01*
X26069Y24319D01*
X25998Y24248D01*
X25928D01*
X26034Y24566D02*
X26140Y24460D01*
X26210D01*
X26316Y24566D01*
X26175Y24708D01*
X32150Y18850D02*
Y19150D01*
X32300D01*
X32350Y19100D01*
Y19000D01*
X32300Y18950D01*
X32150D01*
X32250D02*
X32350Y18850D01*
X32650D02*
X32450D01*
X32650Y19050D01*
Y19100D01*
X32600Y19150D01*
X32500D01*
X32450Y19100D01*
X32750D02*
X32800Y19150D01*
X32900D01*
X32950Y19100D01*
Y18900D01*
X32900Y18850D01*
X32800D01*
X32750Y18900D01*
Y19100D01*
X32200Y37800D02*
X31900D01*
Y37950D01*
X31950Y38000D01*
X32050D01*
X32100Y37950D01*
Y37800D01*
Y37900D02*
X32200Y38000D01*
Y38100D02*
Y38200D01*
Y38150D01*
X31900D01*
X31950Y38100D01*
X31900Y38550D02*
X31950Y38450D01*
X32050Y38350D01*
X32150D01*
X32200Y38400D01*
Y38500D01*
X32150Y38550D01*
X32100D01*
X32050Y38500D01*
Y38350D01*
X31950Y25500D02*
Y25800D01*
X32100D01*
X32150Y25750D01*
Y25650D01*
X32100Y25600D01*
X31950D01*
X32050D02*
X32150Y25500D01*
X32250D02*
X32350D01*
X32300D01*
Y25800D01*
X32250Y25750D01*
X32500Y25800D02*
X32700D01*
Y25750D01*
X32500Y25550D01*
Y25500D01*
X32200Y24050D02*
Y24350D01*
X32350D01*
X32400Y24300D01*
Y24200D01*
X32350Y24150D01*
X32200D01*
X32300D02*
X32400Y24050D01*
X32500D02*
X32600D01*
X32550D01*
Y24350D01*
X32500Y24300D01*
X32750D02*
X32800Y24350D01*
X32900D01*
X32950Y24300D01*
Y24250D01*
X32900Y24200D01*
X32950Y24150D01*
Y24100D01*
X32900Y24050D01*
X32800D01*
X32750Y24100D01*
Y24150D01*
X32800Y24200D01*
X32750Y24250D01*
Y24300D01*
X32800Y24200D02*
X32900D01*
X26700Y32250D02*
X26650Y32200D01*
Y32100D01*
X26700Y32050D01*
X26750D01*
X26800Y32100D01*
Y32200D01*
X26850Y32250D01*
X26900D01*
X26950Y32200D01*
Y32100D01*
X26900Y32050D01*
X26650Y32350D02*
X26950D01*
X26850Y32450D01*
X26950Y32550D01*
X26650D01*
X26950Y32650D02*
Y32750D01*
Y32700D01*
X26650D01*
X26700Y32650D01*
X34050Y32250D02*
X34000Y32200D01*
Y32100D01*
X34050Y32050D01*
X34100D01*
X34150Y32100D01*
Y32200D01*
X34200Y32250D01*
X34250D01*
X34300Y32200D01*
Y32100D01*
X34250Y32050D01*
X34000Y32350D02*
X34300D01*
X34200Y32450D01*
X34300Y32550D01*
X34000D01*
X34300Y32850D02*
Y32650D01*
X34100Y32850D01*
X34050D01*
X34000Y32800D01*
Y32700D01*
X34050Y32650D01*
X26050Y36800D02*
X26100Y36850D01*
Y36950D01*
X26050Y37000D01*
X25850D01*
X25800Y36950D01*
Y36850D01*
X25850Y36800D01*
X25950D01*
Y36900D01*
X25800Y36700D02*
X26100D01*
X25800Y36500D01*
X26100D01*
Y36400D02*
X25800D01*
Y36250D01*
X25850Y36200D01*
X26050D01*
X26100Y36250D01*
Y36400D01*
X34050Y21200D02*
Y20950D01*
X34100Y20900D01*
X34200D01*
X34250Y20950D01*
Y21200D01*
X34550Y20900D02*
X34350D01*
X34550Y21100D01*
Y21150D01*
X34500Y21200D01*
X34400D01*
X34350Y21150D01*
X26100Y38600D02*
X25900D01*
X25800Y38500D01*
X25900Y38400D01*
X26100D01*
Y38300D02*
X25800D01*
Y38150D01*
X25850Y38100D01*
X26050D01*
X26100Y38150D01*
Y38300D01*
Y38000D02*
X25800D01*
Y37850D01*
X25850Y37800D01*
X26050D01*
X26100Y37850D01*
Y38000D01*
X29800Y21900D02*
Y21700D01*
X29900Y21600D01*
X30000Y21700D01*
Y21900D01*
X30100D02*
X30200D01*
X30150D01*
Y21600D01*
X30100D01*
X30200D01*
X30350D02*
Y21900D01*
X30550Y21600D01*
Y21900D01*
X30900Y31300D02*
Y31250D01*
X31000Y31150D01*
X31100Y31250D01*
Y31300D01*
X31000Y31150D02*
Y31000D01*
X31200D02*
X31300D01*
X31250D01*
Y31300D01*
X31200Y31250D01*
X32650Y27950D02*
X32700D01*
X32800Y28050D01*
X32700Y28150D01*
X32650D01*
X32800Y28050D02*
X32950D01*
Y28450D02*
Y28250D01*
X32750Y28450D01*
X32700D01*
X32650Y28400D01*
Y28300D01*
X32700Y28250D01*
D50*
X29000Y28261D02*
X31561Y25700D01*
X26439D02*
X29000Y23139D01*
X31561Y25700D01*
X26439D02*
X29000Y28261D01*
X27400Y32000D02*
X30400D01*
Y33000D01*
X27400D02*
X30400D01*
X27400Y32000D02*
Y33000D01*
X31705Y20543D02*
Y20857D01*
X32295Y20543D02*
Y20857D01*
X32843Y21805D02*
X33157D01*
X32843Y22395D02*
X33157D01*
X27062Y29921D02*
Y30079D01*
X27338Y29921D02*
Y30079D01*
X25025Y41365D02*
X28175D01*
X24238Y41129D02*
Y41365D01*
X24395D01*
X24238Y39200D02*
Y39987D01*
Y39200D02*
X28726D01*
Y39791D01*
X29162Y37121D02*
Y37279D01*
X29438Y37121D02*
Y37279D01*
X27362Y36921D02*
Y37079D01*
X27638Y36921D02*
Y37079D01*
X29805Y37121D02*
Y37279D01*
X30081Y37121D02*
Y37279D01*
X30448Y37121D02*
Y37279D01*
X30724Y37121D02*
Y37279D01*
X31091Y37121D02*
Y37279D01*
X31367Y37121D02*
Y37279D01*
X26638Y30821D02*
Y30979D01*
X26362Y30821D02*
Y30979D01*
X30988Y32371D02*
Y32529D01*
X30712Y32371D02*
Y32529D01*
X24271Y31338D02*
X24429D01*
X24271Y31062D02*
X24429D01*
X24271Y30338D02*
X24429D01*
X24271Y30062D02*
X24429D01*
X27262Y18721D02*
Y18879D01*
X27538Y18721D02*
Y18879D01*
X27762Y18721D02*
Y18879D01*
X28038Y18721D02*
Y18879D01*
X28221Y34362D02*
X28379D01*
X28221Y34638D02*
X28379D01*
X33838Y37121D02*
Y37279D01*
X33562Y37121D02*
Y37279D01*
X24947Y22642D02*
X25058Y22753D01*
X25142Y22447D02*
X25253Y22558D01*
X24047Y23542D02*
X24158Y23653D01*
X24242Y23347D02*
X24353Y23458D01*
X22962Y19821D02*
Y19979D01*
X23238Y19821D02*
Y19979D01*
X25347Y22242D02*
X25458Y22353D01*
X25542Y22047D02*
X25653Y22158D01*
X24447Y23142D02*
X24558Y23253D01*
X24642Y22947D02*
X24753Y23058D01*
X31721Y19588D02*
X31879D01*
X31721Y19312D02*
X31879D01*
X32138Y37121D02*
Y37279D01*
X31862Y37121D02*
Y37279D01*
X33521Y25762D02*
X33679D01*
X33521Y26038D02*
X33679D01*
X33521Y24112D02*
X33679D01*
X33521Y24388D02*
X33679D01*
X24085Y33035D02*
Y34216D01*
X24872Y32444D02*
X25581D01*
X26526Y33035D02*
Y34216D01*
X24912Y34806D02*
X25581D01*
X33815Y32984D02*
Y34165D01*
X32319Y34756D02*
X33028D01*
X31374Y32984D02*
Y34165D01*
X32319Y32394D02*
X32988D01*
X31071Y30764D02*
X32099D01*
X30406D02*
X31435D01*
X30406Y29307D02*
Y30764D01*
Y29307D02*
X32099D01*
Y30764D01*
X33128Y28527D02*
X34072D01*
Y26873D02*
Y28527D01*
X33128Y26873D02*
X34072D01*
X33128D02*
Y28527D01*
X22700Y38100D02*
X23700D01*
Y21300D02*
Y38100D01*
X22700Y21300D02*
X23700D01*
X21700D02*
Y38100D01*
Y21300D02*
X22700D01*
X21700Y38100D02*
X22700D01*
Y21300D02*
Y38100D01*
X35700Y21300D02*
Y38100D01*
X34700D02*
X35700D01*
X34700Y21300D02*
X35700D01*
X34700D02*
Y38100D01*
X35700Y21300D02*
X36700D01*
Y38100D01*
X35700D02*
X36700D01*
D51*
X31834Y17754D02*
Y17459D01*
X31981D01*
X32031Y17508D01*
Y17557D01*
X31981Y17607D01*
X31834D01*
X31981D01*
X32031Y17656D01*
Y17705D01*
X31981Y17754D01*
X31834D01*
X32129Y17459D02*
X32227D01*
X32178D01*
Y17754D01*
X32129Y17705D01*
X32375D02*
X32424Y17754D01*
X32523D01*
X32572Y17705D01*
Y17656D01*
X32523Y17607D01*
X32572Y17557D01*
Y17508D01*
X32523Y17459D01*
X32424D01*
X32375Y17508D01*
Y17557D01*
X32424Y17607D01*
X32375Y17656D01*
Y17705D01*
X32424Y17607D02*
X32523D01*
X24964Y17754D02*
Y17459D01*
X25111D01*
X25161Y17508D01*
Y17557D01*
X25111Y17607D01*
X24964D01*
X25111D01*
X25161Y17656D01*
Y17705D01*
X25111Y17754D01*
X24964D01*
X25259Y17705D02*
X25308Y17754D01*
X25407D01*
X25456Y17705D01*
Y17508D01*
X25407Y17459D01*
X25308D01*
X25259Y17508D01*
Y17705D01*
X25554Y17459D02*
X25653D01*
X25603D01*
Y17754D01*
X25554Y17705D01*
M02*
