M48
;Layer_Color=6321
;FILE_FORMAT=2:4
INCH,LZ
;TYPE=PLATED
T1F00S00C0.0160
T2F00S00C0.0280
T3F00S00C0.0354
T4F00S00C0.0374
T5F00S00C0.0420
T6F00S00C0.1339
%
T01
X03162Y01813
X03175Y01881
X03279Y01854
X0327Y01955
X033109Y019933
X03391Y01976
X03445Y02055
X034058Y0221
X0344Y0226
X03439Y02332
X03349Y02334
X03257Y02366
X03189Y0232
X03146Y024
X03185Y0246
X03277Y0247
X03348Y02474
X03457Y02472
X03427Y0253
X03432Y02658
X03424Y02769
X03434Y02865
X033369Y029387
X033Y03015
X0337Y0302
X03235Y029
X032Y02835
X031406Y028394
X0313Y02745
X032656Y027606
X03245Y02615
X03285Y0255
X03404Y02411
X0317Y02216
X03153Y021222
X0318Y0207
X03223Y01759
X03094Y01796
X03095Y01897
X0308Y01977
X03018Y01988
X0294Y02025
X02932Y02184
X02992Y02222
X03077Y02238
X03085Y02146
X0308Y02057
X03003Y01868
X02845Y01902
X02855Y01787
X02746Y01778
X02666Y01775
X02581Y01776
X02632Y01838
X02572Y01892
X02492Y01901
X02427Y01968
X02384Y02069
X02292Y02065
X02318Y02151
X02237Y02125
X0221Y01984
X0231Y0191
X02476Y02124
X02544Y02132
X02613Y02117
X02615Y0231
X02661Y02401
X0273Y0234
X02836Y02409
X02835Y02465
X0286Y02545
X02788Y02588
X0273Y02615
X02695Y0255
X02575Y02543
X02595Y02635
X0244Y02611
Y02691
X02495Y0275
X02545Y0278
X0265Y02795
X026861Y027519
X0271Y0292
X0278Y02932
X02843Y02917
X02873Y02856
X028684Y027729
X0292Y02685
X02915Y0261
X02985Y0259
X0299Y0266
X029724Y027322
X03065Y02815
X03095Y02895
X0301Y029
X02903Y02954
X0289Y03025
X03Y0308
X0253Y03075
X02414Y03073
X02495Y02985
X0252Y02875
X02404Y02865
X02429Y02799
X0245Y0254
X02477Y0246
X02545Y02379
X02407Y02205
X02781Y02209
X028493Y022116
X029Y02291
X029401Y024501
X02975Y02495
X03055Y02485
X03045Y02545
X03115Y02548
X03102Y0233
X02793Y0206
X02755Y01969
X02685Y0196
X02832Y02642
X02615Y0293
X02725Y0315
X02692Y03317
X02695Y0342
X02767Y03385
X028595Y034005
X0274Y0349
X0269Y0361
X02797Y03605
X02875Y0366
X02815Y0373
X02775Y0382
X026383Y038817
X02415Y0388
X02355Y039
X02185Y03929
X029202Y040698
X03025Y03995
X0299Y0354
X030489Y0351
X03105Y03415
X03085Y0317
X02505Y03179
X0328Y03155
X03424Y0317
X03445Y03445
X0344Y03556
X03375Y03633
X0332Y03675
X03225Y0363
X03165Y03635
X032138Y03945
X032718
X03375Y03911
X03603
X03575Y0379
T02
X03369Y03076
T03
X0279Y0325
X0289
X0299
T04
X030991Y0413
X031316Y040237
X033284
X033609Y0413
T05
X0352Y0222
Y0232
Y0242
Y0252
Y0262
Y0272
Y0282
Y0292
Y0302
Y0312
X0362
Y0302
Y0292
Y0282
Y0272
Y0262
Y0252
Y0242
Y0232
Y0222
X0295Y0212
X0232Y0222
Y0232
Y0242
Y0252
Y0262
Y0272
Y0282
Y0292
Y0302
Y0312
X0222
Y0302
Y0292
Y0282
Y0272
Y0262
Y0252
Y0242
Y0232
Y0222
Y0322
X0232
Y0332
Y0342
Y0352
Y0362
Y0372
X0222
Y0362
Y0352
Y0342
Y0332
X0251Y0365
Y0381
X0352Y0372
Y0362
Y0352
Y0342
Y0332
Y0322
X0362
Y0332
Y0342
Y0352
Y0362
Y0372
T06
X0353Y0193
X0228Y0403
X0353
M30
