G04*
G04 #@! TF.GenerationSoftware,Altium Limited,CircuitStudio,1.5.1 (13)*
G04*
G04 Layer_Physical_Order=2*
G04 Layer_Color=13260*
%FSLAX24Y24*%
%MOIN*%
G70*
G01*
G75*
%ADD36C,0.0060*%
%ADD40C,0.0650*%
G04:AMPARAMS|DCode=41|XSize=75mil|YSize=58mil|CornerRadius=14.5mil|HoleSize=0mil|Usage=FLASHONLY|Rotation=0.000|XOffset=0mil|YOffset=0mil|HoleType=Round|Shape=RoundedRectangle|*
%AMROUNDEDRECTD41*
21,1,0.0750,0.0290,0,0,0.0*
21,1,0.0460,0.0580,0,0,0.0*
1,1,0.0290,0.0230,-0.0145*
1,1,0.0290,-0.0230,-0.0145*
1,1,0.0290,-0.0230,0.0145*
1,1,0.0290,0.0230,0.0145*
%
%ADD41ROUNDEDRECTD41*%
%ADD42O,0.0750X0.0580*%
%ADD45C,0.0300*%
D36*
X27300Y22610D02*
Y23400D01*
X27110Y22420D02*
X27300Y22610D01*
X35820Y21820D02*
X36200Y22200D01*
X34420Y21820D02*
X35820D01*
X32280Y19680D02*
X34420Y21820D01*
X31309Y17480D02*
X31889Y18060D01*
Y18271D01*
X32280Y18661D01*
Y19680D01*
X32450Y18140D02*
Y19300D01*
X31819Y18370D02*
X32160Y18711D01*
Y21209D01*
X32040Y18761D02*
Y21159D01*
X31769Y18490D02*
X32040Y18761D01*
X31160Y22040D02*
X32040Y21159D01*
X31800Y20431D02*
Y20700D01*
X30899Y19530D02*
X31800Y20431D01*
X28897Y22180D02*
X29621D01*
X28593Y21876D02*
X28897Y22180D01*
X28394Y21876D02*
X28593D01*
X28180Y22090D02*
X28394Y21876D01*
X27810Y22090D02*
X28180D01*
X29621Y22180D02*
X29821Y21980D01*
X30270D01*
X30790Y21460D01*
X29085Y21605D02*
X29320Y21840D01*
X29085Y20904D02*
Y21605D01*
X24890Y22209D02*
X25890Y21209D01*
Y21071D02*
Y21209D01*
Y21071D02*
X26031Y20930D01*
X26470Y20600D02*
X27930D01*
X26140Y20930D02*
X26470Y20600D01*
X26031Y20930D02*
X26140D01*
X24890Y22209D02*
Y24381D01*
Y22209D02*
Y22500D01*
X24671Y24840D02*
X24869D01*
X25010Y24699D01*
Y24501D02*
Y24699D01*
X24890Y24381D02*
X25010Y24501D01*
X24530Y22001D02*
Y24331D01*
X24410Y24451D02*
X24530Y24331D01*
X24410Y24451D02*
Y24749D01*
X24631Y24970D01*
X24530Y24699D02*
X24671Y24840D01*
X24530Y24501D02*
Y24699D01*
Y24501D02*
X24650Y24381D01*
Y21951D02*
Y24381D01*
X28070Y23390D02*
X29691D01*
X27230Y25770D02*
X28350Y24650D01*
X24811Y25770D02*
X27230D01*
X27709Y26390D02*
X28120Y25979D01*
X27201Y26390D02*
X27709D01*
X26970Y26159D02*
X27201Y26390D01*
X26410Y26159D02*
X26970D01*
X28120Y25591D02*
Y25979D01*
X28691Y25210D02*
X29401Y24501D01*
X28501Y25210D02*
X28691D01*
X28120Y25591D02*
X28501Y25210D01*
X30219Y24180D02*
X30910Y24871D01*
X28931Y24180D02*
X30219D01*
X30910Y24871D02*
Y25641D01*
X30641Y25910D02*
X30910Y25641D01*
X30251Y25910D02*
X30641D01*
X30591Y25790D02*
X30790Y25591D01*
Y25090D02*
Y25591D01*
X30550Y24850D02*
X30790Y25090D01*
X30079Y25790D02*
X30591D01*
X28444Y27630D02*
Y28337D01*
Y27630D02*
X28584Y27489D01*
X29560Y26829D02*
X29660Y26729D01*
X28912Y27477D02*
X29560Y26829D01*
X28900Y27489D02*
X28912Y27477D01*
X29660Y26501D02*
Y26729D01*
X28584Y27489D02*
X28900D01*
X25200Y28750D02*
X25420Y28530D01*
X27201D01*
X28960Y26771D01*
Y26751D02*
Y26771D01*
X27250Y29540D02*
X27560Y29230D01*
Y29221D02*
Y29230D01*
Y29221D02*
X28444Y28337D01*
X33290Y29309D02*
X33369Y29387D01*
X27190Y33941D02*
X27400Y34151D01*
X27190Y33559D02*
Y33941D01*
X27640Y35720D02*
X27970Y36050D01*
X27640Y34221D02*
Y35720D01*
X27310Y33891D02*
X27640Y34221D01*
X23200Y25822D02*
Y26200D01*
X27650Y33750D02*
X27750Y33850D01*
X27650Y33468D02*
Y33750D01*
X28620Y26291D02*
X29471Y25440D01*
X28620Y26291D02*
Y26761D01*
X29471Y25440D02*
X30440D01*
X31521Y18370D02*
X31819D01*
X31471Y18490D02*
X31769D01*
X27460Y17780D02*
X27550Y17870D01*
X28550D01*
X25669Y17420D02*
X26330D01*
X26660Y17750D01*
X27101Y18680D02*
X28591D01*
X26461Y18040D02*
X27101Y18680D01*
X30741Y17480D02*
X31309D01*
X30250Y17971D02*
X30741Y17480D01*
X30250Y17971D02*
Y18269D01*
X30129Y18920D02*
X30370Y18679D01*
Y18021D02*
Y18679D01*
X30490Y18071D02*
Y19062D01*
X29812Y18920D02*
X30129D01*
X30402Y19150D02*
X30490Y19062D01*
X31380Y18229D02*
X31521Y18370D01*
X31380Y17891D02*
Y18229D01*
X31089Y17600D02*
X31380Y17891D01*
X30791Y17600D02*
X31089D01*
X30370Y18021D02*
X30791Y17600D01*
X31180Y17861D02*
Y18199D01*
X31471Y18490D01*
X31039Y17720D02*
X31180Y17861D01*
X30841Y17720D02*
X31039D01*
X30490Y18071D02*
X30841Y17720D01*
X30451Y19270D02*
X30710Y19011D01*
Y18871D02*
Y19011D01*
Y18871D02*
X30940Y18641D01*
Y17960D02*
Y18641D01*
X29038Y19127D02*
Y19140D01*
X28591Y18680D02*
X29038Y19127D01*
X30079Y18440D02*
X30250Y18269D01*
X29931Y18440D02*
X30079D01*
X29690Y18681D02*
X29931Y18440D01*
X29472Y19260D02*
X29812Y18920D01*
X28931Y19260D02*
X29472D01*
X28691Y19020D02*
X28931Y19260D01*
X28450Y19020D02*
X28691D01*
X29690Y18681D02*
Y18872D01*
X31610Y24189D02*
Y24841D01*
X31700Y23390D02*
X31890Y23200D01*
X31700Y23390D02*
Y24099D01*
X31610Y24189D02*
X31700Y24099D01*
X31610Y24841D02*
X31640Y24871D01*
X31850Y27519D02*
X32340Y28009D01*
X31850Y24600D02*
Y27519D01*
X32290Y25421D02*
X32690Y25821D01*
X32290Y24440D02*
Y25421D01*
Y24440D02*
X32570Y24160D01*
Y23660D02*
Y24160D01*
X32530Y24539D02*
X33030Y24039D01*
Y23409D02*
Y24039D01*
X32311Y22860D02*
X32910Y23459D01*
Y23989D01*
X32410Y24489D02*
X32910Y23989D01*
X33150Y23481D02*
X33480Y23811D01*
X33150Y23360D02*
Y23481D01*
X33370Y23220D02*
X33490Y23340D01*
X33196Y23220D02*
X33370D01*
X33650Y24909D02*
Y25320D01*
Y24909D02*
X33720Y24839D01*
Y24430D02*
Y24839D01*
Y24430D02*
X34040Y24110D01*
X33490Y23340D02*
Y23560D01*
X34040Y24110D01*
X34958Y24580D02*
X35580D01*
X36200Y25200D01*
X34735Y23735D02*
Y24357D01*
X34390Y23320D02*
Y23390D01*
X34735Y23735D01*
Y24357D02*
X34958Y24580D01*
X35735Y24357D02*
X35958Y24580D01*
X35735Y24113D02*
Y24357D01*
X35442Y23820D02*
X35735Y24113D01*
X35198Y23820D02*
X35442D01*
X34735Y23357D02*
X35198Y23820D01*
X36043Y27043D02*
X36200Y27200D01*
X35665Y27043D02*
X36043D01*
X35442Y26820D02*
X35665Y27043D01*
X35198Y26820D02*
X35442D01*
X34735Y26357D02*
X35198Y26820D01*
X34735Y26246D02*
Y26357D01*
X33930Y25441D02*
X34735Y26246D01*
X32410Y24489D02*
Y24849D01*
X32621Y25060D01*
X32980D01*
X33650Y25320D02*
Y27581D01*
X33030Y24700D02*
X33650Y25320D01*
X33530Y25841D02*
Y27631D01*
X33360Y25670D02*
X33530Y25841D01*
X33360Y25270D02*
Y25670D01*
X33029Y24940D02*
X33360Y25270D01*
X33410Y25890D02*
Y27680D01*
X33240Y25720D02*
X33410Y25890D01*
X33240Y25320D02*
Y25720D01*
X32770Y24700D02*
X33030D01*
X32530Y24539D02*
Y24799D01*
X32671Y24940D01*
X33029D01*
X32690Y25821D02*
Y27572D01*
X32656Y27606D02*
X32690Y27572D01*
X32850Y25500D02*
X33290Y25940D01*
Y29309D01*
X33700Y27970D02*
Y30200D01*
X33410Y27680D02*
X33700Y27970D01*
X33840Y27941D02*
Y29978D01*
X33829Y29989D02*
X33840Y29978D01*
X33960Y27891D02*
Y29809D01*
X33650Y27581D02*
X33960Y27891D01*
Y29809D02*
X34590Y30439D01*
X34240Y27690D02*
Y28411D01*
X34100Y29281D02*
X34710Y29891D01*
X34100Y28551D02*
X34240Y28411D01*
X34100Y28551D02*
Y29281D01*
X33810Y31121D02*
X34030Y30901D01*
Y30191D02*
Y30901D01*
X33829Y29989D02*
X34030Y30191D01*
X29900Y35400D02*
X30450Y35950D01*
X33200Y36750D02*
X33689D01*
X34000Y36241D02*
Y36439D01*
X33810Y36051D02*
X34000Y36241D01*
X33810Y31121D02*
Y36051D01*
X35385Y37926D02*
X36111Y37200D01*
X36200D01*
X35385Y37926D02*
Y38015D01*
X24950Y29850D02*
X25150Y30050D01*
X25300D01*
X26050Y29300D01*
X25300Y30050D02*
Y30750D01*
X25660Y31090D02*
X27530Y32960D01*
X25010Y31450D02*
X25200D01*
X26920Y33170D01*
X23800Y28947D02*
Y29213D01*
X23780Y25652D02*
X23800Y25632D01*
X23780Y25652D02*
Y28373D01*
X23660Y28493D02*
X23780Y28373D01*
X23660Y28493D02*
Y28807D01*
X23800Y28947D01*
X23920Y25710D02*
Y28431D01*
X23800Y28749D02*
X23940Y28889D01*
X23800Y28551D02*
Y28749D01*
Y28551D02*
X23920Y28431D01*
Y25710D02*
X23940Y25690D01*
X24060Y22400D02*
Y25739D01*
X24040Y25759D02*
X24060Y25739D01*
X24050Y27891D02*
Y28640D01*
X24060Y27079D02*
Y27881D01*
Y26279D02*
Y26741D01*
X24040Y28650D02*
X24050Y28640D01*
Y27891D02*
X24060Y27881D01*
X24040Y27059D02*
X24060Y27079D01*
X24040Y26761D02*
Y27059D01*
Y26761D02*
X24060Y26741D01*
X24040Y26259D02*
X24060Y26279D01*
X24040Y25759D02*
Y26259D01*
X24461Y25870D02*
X25241Y25090D01*
X24301Y25870D02*
X24461D01*
X24160Y26011D02*
X24301Y25870D01*
X24180Y26229D02*
Y26791D01*
X24290Y27139D02*
Y27990D01*
X24160Y27009D02*
X24290Y27139D01*
X24160Y26811D02*
Y27009D01*
Y26811D02*
X24180Y26791D01*
X24160Y26209D02*
X24180Y26229D01*
X24160Y26011D02*
Y26209D01*
X21735Y22428D02*
X21897Y22590D01*
X21958Y21820D02*
X22281D01*
X21735Y22043D02*
X21958Y21820D01*
X21735Y22043D02*
Y22428D01*
X24770Y21902D02*
Y24600D01*
X24319Y21450D02*
X24770Y21902D01*
X24119Y21450D02*
X24319D01*
X23500Y20831D02*
X24119Y21450D01*
X23970Y21810D02*
X24169D01*
X24219Y21690D02*
X24530Y22001D01*
X24269Y21570D02*
X24650Y21951D01*
X24060Y22400D02*
X24310Y22150D01*
X24070Y21570D02*
X24269D01*
X24020Y21690D02*
X24219D01*
X24310Y21951D02*
Y22150D01*
X24169Y21810D02*
X24310Y21951D01*
X23380Y20881D02*
X24070Y21570D01*
X23260Y20930D02*
X24020Y21690D01*
X23800Y22121D02*
Y25632D01*
X23189Y21510D02*
X23800Y22121D01*
X22920Y20760D02*
X23970Y21810D01*
X24510Y20690D02*
X26010Y19190D01*
X25621Y19160D02*
X25819D01*
X25979Y19000D01*
X25471Y19010D02*
X25621Y19160D01*
X24920Y19010D02*
X25471D01*
X25979Y19000D02*
X27879D01*
X30033Y19150D02*
X30402D01*
X29748Y19435D02*
X30033Y19150D01*
X28314Y19435D02*
X29748D01*
X30083Y19270D02*
X30451D01*
X29798Y19555D02*
X30083Y19270D01*
X26010Y19190D02*
X27899D01*
X26720Y19330D02*
X27841D01*
X30141Y19410D02*
X31011D01*
X29856Y19695D02*
X30141Y19410D01*
X31011D02*
X31611Y18810D01*
X28156Y19815D02*
X29905D01*
X30701Y19530D02*
X30899D01*
X30591Y19640D02*
X30701Y19530D01*
X30081Y19640D02*
X30591D01*
X29905Y19815D02*
X30081Y19640D01*
X27791Y19450D02*
X28156Y19815D01*
X27451Y19450D02*
X27791D01*
X27301Y19600D02*
X27451Y19450D01*
X26850Y19600D02*
X27301D01*
X27879Y21170D02*
X29039Y20010D01*
X29499D01*
X29640Y20151D01*
Y20349D01*
X29085Y20904D02*
X29640Y20349D01*
X27110Y22420D02*
X29310Y20220D01*
X31611Y18810D02*
X31750D01*
X30845Y18055D02*
X30940Y17960D01*
X32230Y17920D02*
X32450Y18140D01*
X32230Y17590D02*
Y17920D01*
X31428Y21120D02*
X31530Y21222D01*
X29580Y21120D02*
X31428D01*
X31160Y22040D02*
Y22261D01*
X31230Y22331D01*
Y22341D01*
X29920Y22220D02*
X30591D01*
X30671Y22140D01*
X30869D01*
X31110Y22381D01*
Y22390D01*
X30770Y22380D02*
Y22400D01*
X26130Y21170D02*
X27879D01*
X25100Y38100D02*
X25667D01*
X26383Y38817D01*
X30050Y40750D02*
X33750D01*
X34423Y40077D01*
Y38977D02*
Y40077D01*
X36200Y36200D02*
Y37200D01*
X35550Y25750D02*
X35735Y25935D01*
X31050Y34150D02*
X32250Y32950D01*
X30590Y33959D02*
X31330Y33219D01*
X26383Y38817D02*
X28117D01*
X30050Y40750D01*
X26290Y26209D02*
Y26898D01*
X34423Y38977D02*
X35385Y38015D01*
X34450Y34450D02*
X34735Y34165D01*
X35200Y27200D02*
X35700Y27700D01*
X26800Y37250D02*
X27750Y38200D01*
X24950Y37250D02*
X26800D01*
X24000Y36300D02*
X24950Y37250D01*
X24000Y34000D02*
Y36300D01*
X23200Y33200D02*
X24000Y34000D01*
X25490Y26159D02*
Y26329D01*
X28347Y24066D02*
X28690Y24409D01*
Y24791D01*
X30569Y35100D02*
X30590Y35121D01*
Y33959D02*
Y35121D01*
X30489Y35100D02*
X30569D01*
X30450Y35950D02*
X33250D01*
X27400Y34151D02*
Y34900D01*
X34900Y37200D02*
X35200D01*
X34459Y27200D02*
X35200D01*
X32250Y29390D02*
Y32950D01*
X29030Y28850D02*
Y29540D01*
X28740Y28560D02*
X29030Y28850D01*
X33250Y35950D02*
X33640Y36340D01*
X23950Y29431D02*
X23950Y29431D01*
X23690Y29323D02*
X23800Y29213D01*
X23830Y29381D02*
X23940Y29271D01*
X23830Y29381D02*
Y29481D01*
X23830Y29481D01*
X23830Y29481D02*
X23830Y29481D01*
X27250Y29540D02*
Y31500D01*
X24350Y29540D02*
X24740Y29150D01*
X24480Y29580D02*
X24860Y29200D01*
X24190Y29530D02*
Y30121D01*
X24350Y29540D02*
Y30111D01*
X24840Y30601D02*
Y30941D01*
X24720Y30651D02*
Y30990D01*
X24350Y30111D02*
X24840Y30601D01*
X24190Y30121D02*
X24720Y30651D01*
X24480Y29580D02*
Y30071D01*
X24960Y30551D01*
Y30891D01*
X25060Y31330D02*
X25561D01*
X25109Y31210D02*
X25611D01*
X24840Y30941D02*
X25109Y31210D01*
X24720Y30990D02*
X25060Y31330D01*
X24960Y30891D02*
X25159Y31090D01*
X25660D01*
X25561Y31330D02*
X27290Y33059D01*
X25611Y31210D02*
X27410Y33009D01*
Y33339D01*
X27190Y33559D02*
X27410Y33339D01*
X27290Y33059D02*
Y33290D01*
X26950Y33630D02*
X27290Y33290D01*
X26950Y33630D02*
Y34200D01*
X27530Y32960D02*
Y33389D01*
X27310Y33609D02*
X27530Y33389D01*
X27310Y33609D02*
Y33891D01*
X25470Y17619D02*
Y18120D01*
Y17619D02*
X25669Y17420D01*
X22730Y26730D02*
X23200Y27200D01*
X29038Y19140D02*
X29422D01*
X32230Y17590D02*
X32290Y17650D01*
X32450Y19300D02*
X32700Y19550D01*
X28730Y28560D02*
X28740D01*
X31421Y27810D02*
X31640Y27591D01*
X30509Y27810D02*
X31421D01*
X32340Y28009D02*
Y28491D01*
X27431Y27950D02*
X28620Y26761D01*
X32010Y29150D02*
X32250Y29390D01*
X30190Y26890D02*
Y28609D01*
X30310Y28009D02*
X30509Y27810D01*
X30310Y28009D02*
Y28291D01*
X30560Y28541D01*
X31330Y28830D02*
Y33219D01*
X30650Y28150D02*
X31330Y28830D01*
X33530Y27631D02*
X33840Y27941D01*
X32010Y28821D02*
Y29150D01*
Y28821D02*
X32340Y28491D01*
X34710Y29891D02*
Y31881D01*
X34590Y30439D02*
Y31831D01*
X26150Y29200D02*
X27100D01*
X23940Y22210D02*
X24070Y22080D01*
X24920Y18670D02*
X25470Y18120D01*
X29900Y26600D02*
X30190Y26890D01*
X29422Y19140D02*
X29690Y18872D01*
X34800Y25750D02*
X35550D01*
X36200Y25806D02*
Y26200D01*
X34400Y22650D02*
X34735Y22985D01*
X34400Y22600D02*
Y22650D01*
X34050Y22108D02*
X34058Y22100D01*
X30591Y22490D02*
X30680D01*
X34690Y24840D02*
Y25640D01*
X34800Y25750D01*
X30680Y22490D02*
X30770Y22400D01*
X30770Y22540D02*
X31090Y22860D01*
X29741Y23510D02*
X29951Y23300D01*
X29500Y21200D02*
X29580Y21120D01*
X31230Y22341D02*
X31509Y22620D01*
X31110Y22390D02*
X31460Y22740D01*
X29691Y23390D02*
X30591Y22490D01*
X32850Y25500D02*
Y25599D01*
X32476Y22500D02*
X33196Y23220D01*
X34050Y22108D02*
Y23471D01*
X30521Y22560D02*
X30591Y22490D01*
X32980Y25060D02*
X33240Y25320D01*
X30440Y25440D02*
X30450Y25450D01*
X31640Y24871D02*
Y27591D01*
X31450Y24000D02*
X31460D01*
X29951Y23300D02*
X31020D01*
X31360Y22009D02*
Y22301D01*
X31559Y22500D01*
X30790Y21460D02*
X30850D01*
X24129Y19340D02*
X24250D01*
X22340Y21220D02*
X22370Y21250D01*
X22340Y20410D02*
Y21220D01*
X22281Y21820D02*
X22710Y21391D01*
Y21091D02*
Y21391D01*
X22460Y20841D02*
X22710Y21091D01*
X24070Y22050D02*
Y22080D01*
X24760Y21240D02*
X24810D01*
X24250Y19340D02*
X24580Y19010D01*
Y18869D02*
Y19010D01*
Y18869D02*
X24779Y18670D01*
X24920D01*
X26601Y17750D02*
X26660D01*
X27841Y19330D02*
X28206Y19695D01*
X29856D01*
X27899Y19190D02*
X28264Y19555D01*
X29798D01*
X27879Y19000D02*
X28314Y19435D01*
X26540Y25090D02*
X28120Y23510D01*
X29741D01*
X25810Y17760D02*
X26090Y18040D01*
X26461D01*
X26500Y27950D02*
X27431D01*
X26141Y25890D02*
X26410Y26159D01*
X26091Y26010D02*
X26290Y26209D01*
X23940Y28889D02*
Y29271D01*
X25809Y26010D02*
X26091D01*
X25610Y26209D02*
X25809Y26010D01*
X25490Y26159D02*
X25759Y25890D01*
X26141D01*
X23950Y29431D02*
X24380Y29001D01*
X24070Y29480D02*
X24500Y29051D01*
X24190Y29530D02*
X24620Y29100D01*
X25610Y26209D02*
Y27479D01*
X25790Y27659D01*
Y27941D01*
X25441Y28290D02*
X25790Y27941D01*
X25300Y27800D02*
X25450D01*
X24500Y27319D02*
X25490Y26329D01*
X24471Y26110D02*
X24811Y25770D01*
X24400Y26110D02*
X24471D01*
X23940Y22210D02*
Y25690D01*
X22580Y20509D02*
Y20791D01*
X22460Y20459D02*
Y20841D01*
X22920Y20650D02*
Y20760D01*
X23519Y19950D02*
X24129Y19340D01*
X23160Y20070D02*
X23500Y20410D01*
X23111Y20190D02*
X23380Y20459D01*
X22580Y20509D02*
X22779Y20310D01*
X23061D01*
X23260Y20509D01*
X22460Y20459D02*
X22729Y20190D01*
X23111D01*
X22340Y20410D02*
X22680Y20070D01*
X23160D01*
X22630Y19950D02*
X23519D01*
X23690Y29323D02*
Y32068D01*
X23840Y20690D02*
X24510D01*
X31360Y22009D02*
X32160Y21209D01*
X31530Y21222D02*
Y21247D01*
X31700Y22160D02*
X31920Y22380D01*
X31559Y22500D02*
X32476D01*
X31509Y22620D02*
X32410D01*
X31460Y22740D02*
X32361D01*
X31090Y22860D02*
X32311D01*
X33940Y32241D02*
X34141Y32040D01*
X34381D01*
X34060Y32291D02*
X34191Y32160D01*
X34431D01*
X34381Y32040D02*
X34590Y31831D01*
X34431Y32160D02*
X34710Y31881D01*
X35391Y33632D02*
X35700Y33322D01*
Y27700D02*
Y33322D01*
X23665Y23043D02*
Y23059D01*
X23680Y23074D01*
X23212Y22590D02*
X23665Y23043D01*
X21897Y22590D02*
X23212D01*
X21615Y22478D02*
X21957Y22820D01*
X22442D01*
X22730Y23108D01*
Y26730D01*
X25059Y28410D02*
X27151D01*
X25009Y28290D02*
X25441D01*
X24870Y28230D02*
Y28230D01*
Y28230D02*
X25300Y27800D01*
X24750Y27700D02*
X24950Y27500D01*
X24750Y27700D02*
Y28181D01*
X24630Y27849D02*
Y28131D01*
X24500Y27319D02*
Y27719D01*
X24630Y27849D01*
X26050Y29300D02*
X26150D01*
X24860Y28609D02*
Y29200D01*
Y28609D02*
X25059Y28410D01*
X24740Y28559D02*
X25009Y28290D01*
X24740Y28559D02*
Y29150D01*
X24620Y28480D02*
Y29100D01*
Y28480D02*
X24870Y28230D01*
X24500Y28431D02*
X24750Y28181D01*
X24500Y28431D02*
Y29051D01*
X24380Y28381D02*
X24630Y28131D01*
X24380Y28381D02*
Y29001D01*
X35146Y33632D02*
X35391D01*
X34735Y34043D02*
X35146Y33632D01*
X34735Y34043D02*
Y34165D01*
X36200Y29200D02*
X36690Y28710D01*
X34570Y24720D02*
X34690Y24840D01*
X32410Y22620D02*
X33150Y23360D01*
X32361Y22740D02*
X33030Y23409D01*
X34050Y23471D02*
X34229Y23650D01*
X33930Y25159D02*
Y25441D01*
X34735Y22985D02*
Y23357D01*
X34181Y23770D02*
X34380Y23969D01*
X34179Y23770D02*
X34181D01*
X33890Y23481D02*
X34179Y23770D01*
X33890Y23259D02*
Y23481D01*
X33810Y25109D02*
Y26551D01*
X33011Y22380D02*
X33890Y23259D01*
X34380Y23969D02*
Y24259D01*
X34110Y24529D02*
Y24809D01*
X33810Y25109D02*
X34110Y24809D01*
Y24529D02*
X34380Y24259D01*
X34230Y24579D02*
Y24859D01*
X33930Y25159D02*
X34230Y24859D01*
Y24579D02*
X34500Y24309D01*
X34229Y23650D02*
X34231D01*
X34500Y23919D01*
Y24309D01*
X33480Y23811D02*
Y24740D01*
X33810Y26551D02*
X34459Y27200D01*
X31920Y22380D02*
X33011D01*
X36665Y25043D02*
Y25357D01*
X36442Y25580D02*
X36665Y25357D01*
X36426Y25580D02*
X36442D01*
X36200Y25806D02*
X36426Y25580D01*
X35735Y26357D02*
X35958Y26580D01*
X36202D01*
X36690Y27068D01*
X35958Y24580D02*
X36202D01*
X36665Y25043D01*
X35735Y25935D02*
Y26357D01*
X36690Y27068D02*
Y28710D01*
X34060Y32291D02*
Y35961D01*
X23180Y21510D02*
X23189D01*
X23500Y20410D02*
Y20831D01*
X23380Y20459D02*
Y20881D01*
X23260Y20509D02*
Y20930D01*
X22200Y22200D02*
X22830Y21570D01*
Y21041D02*
Y21570D01*
X22580Y20791D02*
X22830Y21041D01*
X21615Y20965D02*
Y22478D01*
Y20965D02*
X22630Y19950D01*
X28938Y22560D02*
X30521D01*
X28493Y22116D02*
X28938Y22560D01*
X26861Y27469D02*
Y27519D01*
X26290Y26898D02*
X26861Y27469D01*
X24810Y21240D02*
X26720Y19330D01*
X28169Y23630D02*
X31090D01*
X31460Y24000D01*
X33940Y32241D02*
Y36011D01*
X34120Y36191D01*
X35200Y37101D02*
Y37200D01*
X34060Y35961D02*
X35200Y37101D01*
X33640Y36340D02*
X33650Y36330D01*
X33750D01*
X34120Y36191D02*
Y38675D01*
X34423Y38977D01*
X33689Y36750D02*
X34000Y36439D01*
X32030Y39190D02*
X32458D01*
X32718Y39450D01*
X31910Y39310D02*
X32030Y39190D01*
X28998Y31852D02*
Y31858D01*
X28354Y32501D02*
X28998Y31858D01*
X28354Y32501D02*
Y32764D01*
X27650Y33468D02*
X28354Y32764D01*
X30190Y28609D02*
X30340Y28759D01*
Y30941D01*
X30560Y28541D02*
Y31410D01*
X30850Y31700D01*
X28998Y31852D02*
X29428D01*
X30340Y30941D01*
X28020Y23949D02*
Y24320D01*
Y23949D02*
X28219Y23750D01*
X28501D01*
X28931Y24180D01*
X28020Y24320D02*
X28350Y24650D01*
X27300Y26121D02*
Y26150D01*
Y26121D02*
X27781Y25640D01*
X27841D01*
X28690Y24791D01*
X28740Y26510D02*
X29150Y26100D01*
X28740Y26510D02*
Y26811D01*
X28260Y27291D02*
X28740Y26811D01*
X28260Y27291D02*
Y27301D01*
X27151Y28410D02*
X28260Y27301D01*
X29660Y26501D02*
X30251Y25910D01*
X29949Y25660D02*
X30079Y25790D01*
X29751Y25660D02*
X29949D01*
X29621Y25790D02*
X29751Y25660D01*
X29620Y25790D02*
X29621D01*
X29620D02*
Y25791D01*
X29610Y25801D02*
X29620Y25791D01*
X29610Y25801D02*
Y26101D01*
X28960Y26751D02*
X29610Y26101D01*
X26490Y24970D02*
X28070Y23390D01*
X24631Y24970D02*
X26490D01*
X25241Y25090D02*
X26540D01*
X26369Y25430D02*
X28169Y23630D01*
X25750Y25430D02*
X26369D01*
X30861Y39310D02*
X31110D01*
X30861D02*
X31910D01*
X24851Y33498D02*
X30803Y39450D01*
X32138D01*
X24851Y33229D02*
Y33498D01*
X24991Y33171D02*
Y33440D01*
X30861Y39310D01*
X24070Y30171D02*
X24580Y30681D01*
Y31020D01*
X24070Y29480D02*
Y30171D01*
X24580Y31020D02*
X25010Y31450D01*
X24140Y30420D02*
Y30730D01*
X23950Y30230D02*
X24140Y30420D01*
X23950Y29431D02*
Y30230D01*
X23830Y32010D02*
X24991Y33171D01*
X23830Y29481D02*
Y32010D01*
X23690Y32068D02*
X23936Y32314D01*
X23690Y32068D02*
X24851Y33229D01*
X23200Y25822D02*
X23680Y25342D01*
Y23074D02*
Y25342D01*
D40*
X25100Y38100D02*
D03*
X29500Y21200D02*
D03*
D41*
X35200Y37200D02*
D03*
X36200D02*
D03*
D42*
X23200Y33200D02*
D03*
Y27200D02*
D03*
Y26200D02*
D03*
X22200Y22200D02*
D03*
X35200Y27200D02*
D03*
X36200Y22200D02*
D03*
Y25200D02*
D03*
Y26200D02*
D03*
Y27200D02*
D03*
Y29200D02*
D03*
Y36200D02*
D03*
D45*
X27300Y23400D02*
D03*
X29320Y21840D02*
D03*
X27670Y33850D02*
D03*
X28550Y17870D02*
D03*
X24950Y29850D02*
D03*
X24140Y30730D02*
D03*
X30770Y22380D02*
D03*
X32718Y39450D02*
D03*
X32138D02*
D03*
X32700Y19550D02*
D03*
X26383Y38817D02*
D03*
X31050Y34150D02*
D03*
X30850Y31700D02*
D03*
X34450Y34450D02*
D03*
X27750Y38200D02*
D03*
X27250Y31500D02*
D03*
X29900Y35400D02*
D03*
X30489Y35100D02*
D03*
X27400Y34900D02*
D03*
X29030Y29540D02*
D03*
X33200Y36750D02*
D03*
X32656Y27606D02*
D03*
X25300Y30750D02*
D03*
X27100Y29200D02*
D03*
X26950Y34200D02*
D03*
X26920Y33170D02*
D03*
X27970Y36050D02*
D03*
X25810Y17760D02*
D03*
X30940Y17960D02*
D03*
X32230Y17590D02*
D03*
X31750Y18810D02*
D03*
X29400Y20250D02*
D03*
X27300Y26150D02*
D03*
X28730Y28560D02*
D03*
X29150Y26100D02*
D03*
X30650Y28150D02*
D03*
X34240Y27690D02*
D03*
X33700Y30200D02*
D03*
X33369Y29387D02*
D03*
X29900Y26600D02*
D03*
X34058Y22100D02*
D03*
X34400Y22600D02*
D03*
X31800Y20700D02*
D03*
X32850Y25500D02*
D03*
X30450Y25450D02*
D03*
X33480Y24740D02*
D03*
X32770Y24700D02*
D03*
X31850Y24600D02*
D03*
X31460Y24000D02*
D03*
X31020Y23300D02*
D03*
X30850Y21460D02*
D03*
X27810Y22090D02*
D03*
X22920Y20650D02*
D03*
X22370Y21250D02*
D03*
X24070Y22050D02*
D03*
X24760Y21240D02*
D03*
X26130Y21170D02*
D03*
X24920Y19010D02*
D03*
X26660Y17750D02*
D03*
X27460Y17780D02*
D03*
X28450Y19020D02*
D03*
X30550Y24850D02*
D03*
X28350Y24650D02*
D03*
X29401Y24501D02*
D03*
X28360Y24090D02*
D03*
X26500Y27950D02*
D03*
X25750Y25430D02*
D03*
X25450Y27800D02*
D03*
X24950Y27500D02*
D03*
X24400Y26110D02*
D03*
X24770Y24600D02*
D03*
X23840Y20690D02*
D03*
X31530Y21222D02*
D03*
X31700Y22160D02*
D03*
X31890Y23200D02*
D03*
X24290Y27990D02*
D03*
X24040Y28650D02*
D03*
X26150Y29300D02*
D03*
X25200Y28750D02*
D03*
X34570Y24720D02*
D03*
X34040Y24110D02*
D03*
X33490Y23340D02*
D03*
X32570Y23660D02*
D03*
X34390Y23320D02*
D03*
X23180Y21510D02*
D03*
X26850Y19600D02*
D03*
X27930Y20600D02*
D03*
X29920Y22220D02*
D03*
X28493Y22116D02*
D03*
X26861Y27519D02*
D03*
X33750Y36330D02*
D03*
M02*
